<?xml version="1.0" encoding="utf-8"?>
<!-- Generator: Adobe Illustrator 24.1.1, SVG Export Plug-In . SVG Version: 6.00 Build 0)  -->
<svg version="1.1" id="katman_1" xmlns="http://www.w3.org/2000/svg" xmlns:xlink="http://www.w3.org/1999/xlink" x="0px" y="0px"
	 viewBox="0 0 648 628" style="enable-background:new 0 0 648 628;" xml:space="preserve">
<g>
	<path d="M513.3,548c11.4,0.1,20-8.2,20-19.3c0-10.7-9-19.6-19.8-19.6c-10.6,0-20.2,9.2-20.4,19.4C493,538.7,502.4,547.8,513.3,548z
		"/>
	<path d="M402,135c31.8,15.4,64.3,15.4,96.1,0c12.3-6,12.3-14.5-0.6-19.9c-14.8-6.1-31-9-47.3-13.5c-16.4,4.4-32.5,7.3-47.4,13.3
		C390,120,389.9,129.1,402,135z"/>
	<path d="M445.2,162.7h-17.6c0,20,1,39.3-0.3,58.4c-1.1,16.3,7.5,26,19.2,37.8c0-31.7,0-60.8,0-89.9
		C446.4,167,445.7,165.1,445.2,162.7z"/>
	<path d="M394.8,151.4c-3.9,42.4-5,48.4,17.4,64.5c0-15.4-0.8-30.3,0.2-45C413.5,157.2,407,152.2,394.8,151.4z"/>
	<path d="M593-0.9H55C24.4-0.9-0.5,24-0.5,54.6v518.5c0,30.6,24.9,55.4,55.5,55.4H593c11.2,0,21.7-3.4,30.4-9.1
		c5.7-3.5,10.4-8,14.2-13.4c6.8-9.2,10.9-20.6,10.9-32.9V54.6C648.5,24,623.6-0.9,593-0.9z M609.6,2.7c-4.2-1.2-8.6-2-13.2-2.5
		C601,0.5,605.4,1.4,609.6,2.7z M539,126.1c2.6,25.7,4,42.1,2.5,55.4c-0.3,2.6-0.7,5-1.3,7.4c0.5-2.4,1-4.8,1.3-7.4
		C543,168.2,541.6,151.8,539,126.1c-0.5-4.7-2.8-10-6-14.8C536.3,116.1,538.5,121.5,539,126.1z M538.8,321.6c-0.1-8-1-13-3.7-16.1
		C537.9,308.6,538.8,313.6,538.8,321.6c0.3,25.4,0.3,50.7,0,76.1c-0.1,7.1-0.8,11.8-2.9,14.8c2.1-3,2.8-7.7,2.9-14.9
		C539.1,372.3,539.1,346.9,538.8,321.6z M534.3,204.7c0.6-1.1,1.1-2.2,1.6-3.3C535.4,202.5,534.8,203.6,534.3,204.7
		c-0.6,1.1-1.2,2.2-1.8,3.3C533.1,206.9,533.7,205.8,534.3,204.7z M532.5,303.4c-0.5-0.3-1-0.5-1.6-0.8
		C531.5,302.8,532,303.1,532.5,303.4z M531,108.5c-0.7-0.9-1.5-1.8-2.2-2.6C529.6,106.7,530.3,107.6,531,108.5z M519.8,98.6
		c0.8,0.4,1.7,0.9,2.5,1.5C521.5,99.5,520.6,99,519.8,98.6c-5.7-3-11.5-5.5-17.3-7.7C508.3,93,514.1,95.6,519.8,98.6z M502.5,90.8
		c-2.2-0.8-4.3-1.6-6.5-2.3C498.2,89.2,500.4,90,502.5,90.8z M496,88.5c-2.2-0.7-4.3-1.4-6.5-2C491.7,87.1,493.8,87.8,496,88.5z
		 M422.7,83.6c-1.6,0.3-3.1,0.6-4.7,1C419.6,84.2,421.1,83.9,422.7,83.6z M416.8,84.8c-1.8,0.4-3.6,0.9-5.4,1.3
		C413.2,85.7,415,85.2,416.8,84.8z M385.5,107.5c43-20.2,86.2-20.4,129.1,0.2c10.3,5,13,14,14.5,25.5c5.9,46.1-5.9,84.6-42,115.6
		c-13.3,11.5-23.6,26.5-37.3,42.4c-25.7-30-49.9-57.6-73.1-86c-3.9-4.7-4.4-13.1-4.6-19.8c-0.6-17.9,0.3-35.8-0.4-53.7
		C371.2,120.2,375.8,112,385.5,107.5z M530.9,302.6c-0.6-0.2-1.2-0.4-1.9-0.6C529.7,302.2,530.3,302.4,530.9,302.6z M529,302
		c-1-0.3-2.1-0.5-3.3-0.7C527,301.5,528,301.7,529,302z M525.8,301.3c-1.2-0.2-2.5-0.3-3.9-0.4C523.3,301.1,524.6,301.2,525.8,301.3
		z M520.8,300.9c-1.1,0-2.3-0.1-3.5-0.1c-3,0-6.1,0-9.2,0c3.1,0,6.1,0,9.2,0C518.5,300.9,519.7,300.9,520.8,300.9z M471.3,283.4
		c8.7-10.1,16.9-19.7,25.1-29.3C488.2,263.7,480,273.3,471.3,283.4z M474.3,300.8c-5.8,0-11.8,0-18,0l0,0
		C462.5,300.8,468.5,300.8,474.3,300.8z M288,350.3c8.9-9.3,16.5-20.2,26.3-28.4c6.7-5.6,16.2-10.9,24.5-11
		c59.1-0.9,118.2-0.3,177.3-0.6c9.5-0.1,13.2,2.9,13,12.8c-0.6,24.3-0.6,48.7,0,73c0.2,10-3.5,12.9-13,12.8
		c-29.8-0.4-59.6-0.1-89.4-0.1c-28.3,0-56.6-0.3-84.9,0.1c-12.4,0.2-21.9-3.9-29.6-13.8c-7.6-9.8-15.9-19-24.4-28.1
		C282.3,360.8,282.4,356.1,288,350.3z M412.3,456.6c-14.7,0-29.3,0-44,0c-0.5,0-0.9,0-1.3,0c0.4,0,0.9,0,1.3,0
		C383,456.6,397.7,456.6,412.3,456.6z M317.4,456.9c-1.5-0.1-3.1-0.2-4.8-0.3c-1.7,0-3.6-0.1-5.5-0.1c-2.4,0-4.8,0-7.2,0
		c2.4,0,4.8,0,7.2,0c2,0,3.8,0,5.5,0.1C314.3,456.7,315.9,456.7,317.4,456.9z M289.1,456.4c-13.3-0.1-26.8-0.5-41.2-1.9l0,0
		C262.3,455.9,275.8,456.3,289.1,456.4z M279.5,372.2c-0.3,25.2-1.3,49.2-16.7,68.5C278.2,421.4,279.2,397.3,279.5,372.2
		L279.5,372.2z M276.7,348.4L276.7,348.4c0-13.8,0-25.4,0-36.5C276.7,323,276.7,334.5,276.7,348.4z M276.7,302.5c0,2.1,0,4.3,0,6.5
		C276.7,306.8,276.7,304.6,276.7,302.5c0-1,0-2-0.1-2.9C276.6,300.5,276.7,301.4,276.7,302.5z M140.2,290.8
		c36.8,0.4,73.5,0.3,110.3,0c8.7-0.1,12.5,2.6,12.4,12c-0.4,34.3,0.1,68.6-0.3,102.9c-0.2,18.6-27.3,48.3-45.8,49
		c-28.7,1-57.5,0.3-88.9,0.3v-94.2c0-18.9,0.5-37.8-0.2-56.7C127.5,294.6,130.1,290.7,140.2,290.8z M100.2,277.4
		c-22.6-0.1-45.1-0.2-67.7-0.2c-5.9,0-11.8,0-19.3,0c0-0.8-0.1-1.6-0.1-2.4c-0.1-1.2-0.1-2.3-0.2-3.4c0.1,1.1,0.1,2.2,0.2,3.4
		c0,0.8,0.1,1.6,0.1,2.4c7.5,0,13.4,0,19.3,0C55.1,277.2,77.6,277.3,100.2,277.4z M33.8,18.5c1-0.5,1.9-1,3-1.4
		C35.7,17.6,34.8,18,33.8,18.5z M53.9,0.2c-8.1,0.7-15.3,2.3-21.6,4.9C38.9,2.1,46.2,0.3,53.9,0.2z M29.7,21
		c-0.9,0.6-1.7,1.2-2.5,1.9C28,22.2,28.9,21.6,29.7,21z M24.6,25.3c-0.6,0.6-1.1,1.2-1.6,1.8C23.5,26.5,24,25.9,24.6,25.3z
		 M12.5,63.1c0-14,2.7-25,8.3-33.1C15.2,38.1,12.5,49.1,12.5,63.1c-0.1,65.6,0,131.3,0,197c0,1.5,0,3,0.1,4.5
		c-0.1-1.5-0.1-3-0.1-4.5C12.4,194.4,12.4,128.7,12.5,63.1z M11.9,292.9H113v161.8H11.9V292.9z M1,580.7c0.3,2.1,0.7,4.1,1.2,6.1
		C1.8,584.8,1.3,582.8,1,580.7z M0.7,50.9C1,45.4,2.2,40.2,4.1,35.2C2.4,40,1.3,45.2,0.7,50.9z M38.2,624.9c3.8,1.1,7.8,1.9,12,2.4
		C46,627,42,626.1,38.2,624.9z M322.1,616.9h-88.5c0-8.8,0.2-17.1,0-25.4c-0.4-10.8-6.5-16.6-17-16.7c-28.3-0.3-56.7-0.3-85,0
		c-12,0.1-18.2,6.8-18.2,18.9c0,7.4,0,14.8,0,22.7c-23.1,0-45.5,2.2-67.3-0.7c-18.4-2.5-32.6-16.7-33.7-35.4
		c-2.1-36-0.6-72.3-0.6-110.4v0h41.5c84.6,0,169.1,0.2,253.6-0.2c11.4,0,15.7,2.6,15.5,14.9C321.6,528.3,322.1,572,322.1,616.9z
		 M336.5,485.7c0,7.7,0,15.3,0,23C336.4,501,336.5,493.4,336.5,485.7c0-7.2-0.3-12.6-1.3-16.8C336.2,473,336.5,478.5,336.5,485.7z
		 M343.1,615.5c-2.2-3.4-6.3-6.9-6.4-10.4c-0.3-31.2-0.3-62.4-0.3-93.6c0,31.2,0,62.4,0.3,93.6C336.8,608.6,340.9,612,343.1,615.5
		L343.1,615.5z M549,616.3H364.6V471.2H549V616.3z M563.9,476.9c0.2-13.9-6-20.3-19.5-20.3c-30.1,0-60.1,0-90.2,0
		c30.1,0,60.2,0,90.2,0C557.9,456.6,564.2,463,563.9,476.9c-0.2,15.7-0.2,31.4-0.2,47.1C563.7,508.3,563.7,492.6,563.9,476.9z
		 M598.4,614.8c-10,1.8-21.6,1.3-34.6-1.4h0v-49.9c0-8.6,0-17.2,0-25.8c0,8.6,0.1,17.2,0.1,25.9v49.9
		C576.8,616.1,588.5,616.6,598.4,614.8c2.1-0.4,4.1-0.9,6.1-1.5C602.5,613.9,600.5,614.4,598.4,614.8z M616.7,607.5
		c0.7-0.5,1.4-1,2.1-1.6C618.1,606.5,617.4,607,616.7,607.5z"/>
</g>
</svg>
