<?xml version="1.0" encoding="utf-8"?>
<!-- Generator: Adobe Illustrator 24.1.1, SVG Export Plug-In . SVG Version: 6.00 Build 0)  -->
<svg version="1.1" id="katman_1" xmlns="http://www.w3.org/2000/svg" xmlns:xlink="http://www.w3.org/1999/xlink" x="0px" y="0px"
	 viewBox="0 0 648 422" style="enable-background:new 0 0 648 422;" xml:space="preserve">
<style type="text/css">
	.st0{fill:#F9AF3B;}
	.st1{fill:#FFFFFF;}
	.st2{fill:#9A9999;}
	.st3{fill:#7A7B7B;}
	.st4{fill:#9B9B9B;}
	.st5{fill:#585858;}
	.st6{fill:#868686;}
	.st7{fill:#828384;}
	.st8{fill:#E4E5E4;}
	.st9{fill:#F49524;}
	.st10{fill:#4E4E4D;}
	.st11{fill:#989898;}
	.st12{fill:#A5B1C4;}
	.st13{fill:#A4B5C9;}
	.st14{fill:#363636;}
</style>
<path fill="#fff"  d="M134.43,58.14c-3.44,3.02-2.19,7.09-2.19,10.72c-0.08,94.77-0.65,189.57,0.38,284.32c0.25,22.71,1.06,45.52,1.56,68.28
	c-14.54,0.15-29.1-0.19-43.58,0.7c-8.06,0.49-10.62-2.13-9.52-9.75c0.32-2.32-0.36-4.77-0.59-7.18
	c-6.77-10.15-5.42-20.62-1.33-31.24c3.17-2.7,2.05-6.4,2.05-9.73C81.27,263.14,81.27,162,81.25,60.89c0-4.12-0.29-7.87-2.58-11.82
	c-4.18-7.18-4.03-15.94-1.77-23.28c2.6-8.44,3.95-17.01,5.87-25.5c14.18,0.04,28.39,0.57,42.55-0.11c8.3-0.4,11.33,2.17,10.21,10.36
	c-0.36,2.64,0.47,5.45,0.76,8.19c6.8,9.26,3.36,19.56,3.02,29.55C138.28,51.85,137.24,55.44,134.43,58.14"/>
<path fill="#fff"  d="M135.93,49.42c-0.36-10.24-1.01-20.49,0.36-30.69c4.47-2.58,9.39-1.88,14.18-1.9c67.35-0.11,134.68-0.21,202.03-0.29
	c5.42,11.95,4.31,24.02,0.63,36.15c-3.52,3.08-7.81,2.34-11.92,2.34c-63.7,0.04-127.4,0.06-191.09,0
	C144.75,55,138.65,56.35,135.93,49.42"/>
<path fill="#fff" d="M136.16,405.27l0.3-31.15c2.96-5.44,8.23-5.93,13.49-5.95c63.72-0.17,127.44-0.13,191.16-0.02c4.16,0,8.32,0.38,11.82,3.1
	c3.93,11.48,4.83,22.94-0.53,34.26C280.33,405.44,208.24,405.35,136.16,405.27"/>
<path fill="#fff" d="M136.52,362.34c2.7-3.97,6.82-2.57,10.41-2.57c27.2-0.11,54.41-0.51,81.6,0.17c9.88,0.25,12.52-3.15,11.95-12.37
	c-0.34-5.57-2.22-11.69,1.73-16.95c0.44,0.32,0.87,0.65,1.31,0.97c0.67,0.87,1.14,1.84,1.46,2.91c0.91,4.22,1.27,8.55,2.51,12.71
	c0.78,6.27,4.41,8.61,10.58,8.63c26.83,0.04,53.67-0.09,80.5,0.08c7.7,0.06,10.51-3.59,10.74-10.51c-0.46-4.35-0.63-8.7,0.55-12.98
	c0.3-1.29,0.82-2.47,1.54-3.55c1.86-2.32,4.45-3.25,7.28-3.25c14.77,0.1,29.55-1.27,44.28,0.76c1.22,0.55,2.22,1.37,3,2.45
	c0.67,1.12,1.1,2.34,1.35,3.63c0.55,3.91,0.85,7.77-2.51,10.79c-0.23,23.01-0.76,46.03-0.51,69.02c0.1,7.3-1.14,10.41-9.37,9.88
	c-13.34-0.86-26.8-0.42-40.19-0.51c-2.45-13.7-0.63-27.52-1.05-41.26c-0.34-11.08-3.61-14.88-14.48-15.53
	c-2.76-0.15-5.53-0.04-8.31-0.04c-58.8,0-117.6,0.02-176.4-0.02c-4.83,0-9.69,0.36-14.48-0.55
	C138.76,363.8,137.59,363.15,136.52,362.34"/>
<path fill="#fff" class="st0" d="M404.58,330.23c-0.21-0.61-0.34-1.22-0.36-1.88c-12.9-2.11-25.9-0.25-38.84-0.97
	c-2.89-0.17-6.77,1.62-8.46-1.63c-1.84-3.55,1.1-6.31,3.44-8.84c3.99-2.53,8.5-2.66,12.96-2.45c28.85,1.44,57.7-1.41,86.53-0.15
	c7.79,0.34,13.28-2,16.02-9.58c0.49-0.38,0.99-0.76,1.48-1.12c6.58-18.4,14.98-35.69,29.4-49.41c1.03-2.66,0.38-5.7,1.96-8.23
	c0.48-1.22,0.61-2.91,1.5-3.55c8.8-6.39,33.14-4.83,41.58,2.53c-0.04,4.29-3.06,6.5-6.52,6.88c-10.53,1.16-19.63,6.02-29.04,10.17
	c-12.39,13.44-17.14,28.85-12.24,46.83c1.79,6.5,5.11,10.43,12.54,8.65c1.9,1.18,2.64,3.04,3.14,5.09c0.34,3.63-0.25,6.92-3.27,9.37
	c-3.82,2.17-8.06,1.67-12.16,1.69c-28.7,0.06-57.37,0.06-86.05,0C413.41,333.59,408.36,334.35,404.58,330.23"/>
<path fill="#fff" d="M82.77,0.29c-1.96,14.42-1.98,28.94-1.75,43.46c1.79,107.36,0.27,214.69,0.72,322.03c0.02,3.06-0.76,6.12-1.18,9.16
	c-1.1-0.93-1.29-2.05-0.57-3.31c0-102.47-0.15-204.96,0.21-307.43c0.04-9.94-2.43-13.19-12.56-12.68
	c-16.57,0.84-33.24,0.32-49.85,0.19C5.17,51.62,1.33,47.23,1.33,33.45C1.31,20.68,4.94,16.94,18,16.84
	c16.97-0.11,33.94-0.44,50.89,0.13c8.3,0.3,12.52-1.67,11.17-10.72C79.73,3.98,79.65,1.26,82.77,0.29"/>
<path fill="#fff" class="st1" d="M79.98,371.64c0.19,1.1,0.4,2.2,0.59,3.31c-0.04,10.11-0.06,20.2-0.08,30.29c-20.73,0.06-41.47,0.17-62.2,0.11
	c-12.94-0.04-17.01-4.41-16.97-17.69c0.04-12.2,3.29-15.18,16.53-15.3C38.57,372.13,59.29,371.88,79.98,371.64"/>
<path fill="#fff" class="st2" d="M404.83,343.25c-0.1-3.53-0.19-7.07-0.29-10.6c6.71-2.24,13.63-0.91,20.41-0.95
	c29.93-0.17,59.84-0.1,89.76-0.08c9.96,3.65,18.61,4.71,28.94-2.19c8.61-5.74,20.66-3.29,31.22-0.99c1.06,0.55,1.88,1.37,2.45,2.43
	c-8.46,2.74-17.14,0.86-25.71,1.22c-4.75,0.19-8.29,0.84-7.75,6.77c0.49,5.51-3.1,6.01-7.34,5.99c-41.56-0.04-83.12,0-124.69-0.08
	C409.5,344.77,407.17,343.78,404.83,343.25"/>
<path class="st3" d="M516.22,261.98c4.94-7.92,12.11-11.74,21.44-12.01c5.17-0.15,10.4-0.61,14.12-5.04
	c5.19-2.57,10.76-1.9,16.23-1.94c23.49-0.1,46.98-0.27,70.49-0.13c3.34,0.02,9.27-2.22,9.5,2.93c0.23,5.51-5.78,3.4-9.07,3.42
	c-24.9,0.23-49.77,0.21-74.65,0.21c-4.5,0-8.15,0.11-11.5,4.69C543.57,266.73,531.12,268.99,516.22,261.98"/>
<path fill="#fff" d="M352.48,52.01c0-11.84,0-23.66,0-35.48c0.72-16.32,0.72-16.32,17.41-16.34c11.29,0,22.58-0.08,33.88-0.11
	c3.73,3,1.71,7.11,1.73,10.6c0.13,90.04,0.1,180.05,0.13,270.09c0,3.74-0.74,7.62,0.8,11.29c2.3,3.97,1.71,8.11,0.65,12.26
	c-1.37,4.64-5.05,6.46-9.31,6.82c-12.62,1.12-25.28,1.01-37.91,0.1c-4.22-0.32-8.04-1.94-9.63-6.48c-1.2-4.83-1.75-9.54,2.34-13.42
	c0.68-0.04,1.81-0.27,1.98,0.04c9.12,16.91,24.84,8.5,37.93,9.73c3.59,0.34,5.44-2.64,5.74-6.14c0.32-3.46,0.27-6.94,0.27-10.4
	c0.02-86.98,0.02-173.97,0.02-260.95c-0.02-3.12-0.11-6.23-0.15-9.35c-0.06-5.64-3.02-8.13-8.5-8.11c-1.37,0.02,0.34,0-1.03,0
	c-36.17,0.06-29.13-3.99-30.27,28.07c-0.3,8.23,3.25,17.52-4.9,24.29C350.34,56.86,351.08,54.5,352.48,52.01"/>
<path class="st4" d="M404.76,303.69c0.08-3.65,0.13-7.32,0.21-10.97c0.32-0.87,0.93-1.35,1.86-1.35
	c19.02,0.04,38.07,0.61,57.05-0.11c9.65-0.36,14.46,2.2,13.45,12.33l0.1-0.08c-3.19,3.12-7.22,3.95-11.44,4.01
	c-16.59,0.21-33.16,0.19-49.75,0C412.04,307.49,407.94,306.92,404.76,303.69"/>
<path fill="#fff" d="M406.84,291.38c-0.63,0.44-1.24,0.89-1.86,1.35c-0.17-6.21-0.49-12.43-0.49-18.66c-0.02-87.55,0-175.11-0.04-262.64
	c0-3.78-0.44-7.56-0.67-11.35c4.75,3.25,2.77,8.21,2.77,12.39C406.75,105.44,406.78,198.41,406.84,291.38"/>
<path fill="#fff" d="M138.01,362.03c29.34-0.21,58.7-0.51,88.07-0.59c39.4-0.1,78.77,0.19,118.17-0.19c8.17-0.06,10.91,2.36,10.62,10.64
	c-0.55,16.57-0.13,33.16-0.11,49.75c-4.28-4.88-0.65-10.89-2.34-16.13c0.02-11.14,0.06-22.29,0.08-33.43
	c-3.67-5.11-9.14-4.14-14.25-4.14c-60.97-0.13-121.95,0.04-182.94-0.19C149.18,367.73,141.77,369.92,138.01,362.03"/>
<path class="st5" d="M517.31,322.04c-0.27-1.52-0.53-3.06-0.8-4.58c0.23-2.55,0.46-5.07,0.68-7.62c1.48-7.66,7.77-9.01,13.38-7.91
	c15.45,3.08,31.13,1.81,46.58,3.67c0.13,1.27,0.27,2.55,0.38,3.82c0.61,1.18,0.51,2.32-0.27,3.38c-2.85,4.31-7.39,4.48-11.82,4.71
	c-7.16,0.38-14.33,0.21-21.51,0.15C534.8,317.57,525.62,317.13,517.31,322.04"/>
<path class="st6" d="M577.16,305.6c-16.42,0-32.84,0.1-49.26,0c-4.24-0.02-8.25,0-10.7,4.24c-2.95-17.08-2.95-17.12,14.9-17.01
	c5.61,0.04,12.07-1.81,12.18,7.83c0.04,4.2,4.86,2.51,7.7,2.91C560.35,304.73,569.07,301.27,577.16,305.6"/>
<path class="st7" d="M508.69,245.96c7.34,4.62,0.53,5.93-1.94,8.23c-0.99-3.02-3.69-5.78-1.6-9.18
	C505.33,244.71,507.48,245.62,508.69,245.96"/>
<path class="st6" d="M576.59,312.28c0.32-0.95,0.65-1.92,0.95-2.87c1.46,7.16,2.22,14.33-0.21,21.46l-0.48-0.8
	C571.84,324.2,573.64,318.25,576.59,312.28"/>
<path fill="#fff" d="M352.4,58.08c4.75-6.56,1.67-13.99,2.15-20.98c0.57-8.29,0.57-16.63,0.04-24.9c-0.48-7.41,1.54-10.81,9.69-10.28
	c9.65,0.65,19.38,0.57,29.04,0.02c7.56-0.44,9.33,2.7,9.26,9.67c-0.28,29.04-0.13,58.1-0.11,87.15c0,64.99-0.19,130.01,0.27,195
	c0.08,9.79-2.93,12.81-12.31,11.97c-7.89-0.72-15.93-0.65-23.81-0.02c-8.51,0.7-13.4-1.35-12.22-11c0.11-0.97-1.41-2.13-2.17-3.19
	c-0.46-0.49-0.89-0.97-1.35-1.44c-3.14-5.8-2.28-12.12-2.28-18.28c-0.08-63.93-0.02-127.84-0.06-191.77
	c-0.02-15.41-0.29-15.66-15.62-15.7c-24.88-0.06-49.77-0.1-74.65,0.02c-13.04,0.06-13.06,0.17-13.95,13.21
	c-0.27,3.8-0.34,7.62-2.62,10.93c-0.91,1.18-2.09,1.52-3.48,1.03c0.02-29.23,0.02-29.23-28.77-29.23c-20.7,0-41.39,0.06-62.09-0.06
	c-3.69-0.02-7.66,1.12-10.93-1.71c2.83-4.2,7.22-3.44,11.29-3.44c64.37-0.04,128.72-0.02,193.08-0.02
	C344.89,55.06,349.21,54.51,352.4,58.08"/>
<path class="st8" d="M238.2,89.52c0.72,0.04,1.44,0.06,2.17,0.1c10.36,0.59,15.15,5.02,15.98,15.94c0.97,12.73,0.3,25.54,0.36,38.31
	c0.08,14.14-0.38,28.32,0.13,42.46c0.4,10.68-2.05,19.76-10.32,26.87c-2.51,3.9-3.21,8.17-3.17,12.77
	c0.19,21.61-0.17,43.23,0.23,64.84c0.63,8.08,6.27,8.68,12.6,8.7c26.55,0.08,53.08-0.09,79.63,0.08c5.76,0.04,11.9-0.78,16.44,4.22
	c0.67,2.76,2.41,3.82,5.25,3.8c14.08-0.06,28.16-0.06,42.25,0c2.87,0.02,4.54-1.1,5.04-3.92c24.23-0.06,48.44-0.11,72.67-0.19
	c1.37,10.11-1.44,14.75-13.21,14.54c-34.44-0.65-68.91,0.06-103.36,0.23c-5.13,5-11.57,6.02-18.3,5.74
	c-21.36-0.91-42.78-0.36-64.14-1.69c-4.83-0.3-9.67-0.25-14.5,0.59c-11.52,2-22.79,1.84-33.01-4.96
	c-2.45-16.51-0.65-33.11-1.01-49.66c-0.34-14.86-0.04-29.76-0.08-44.66c-0.04-8.02,1.58-15.51-8.91-20.58
	c-6.35-3.08-4.31-13.25-0.68-19.52c2.45-4.26,3.1-8.19,3.08-12.69c-0.04-20.09,0.63-40.19-0.25-60.24
	C222.52,98.68,227.99,92.83,238.2,89.52"/>
<path d="M138.01,362.03c3.97,1.71,8.17,0.89,12.26,0.91c64.16,0.06,128.32,0.11,192.48-0.08c6.82-0.02,11.95,0.34,9.75,9.22
	c-67.28,0.08-134.55,0.17-201.83,0.27c-4.79,0.02-9.71-0.72-14.2,1.77c-1.16-3.93-1.1-7.85,0.06-11.78
	C137.08,362.49,137.57,362.39,138.01,362.03"/>
<path class="st9" d="M230.91,317.95c25.66,3.19,51.33,0.51,77,0.4c8.82-0.04,17.54,1.92,26.55,1.56c8.84-0.36,17.67,0.44,26.4-1.63
	c-3.52,6.42-1.69,8.08,5.59,8.29c12.58,0.32,25.39-2.7,37.78,1.81c-15.49-0.21-30.96-0.44-46.43-0.63c-2.13-0.02-4.1,0.4-5.28,2.47
	c-2.81,3.17-6.59,3.38-10.43,3.38c-29.63,0.08-59.27,0.08-88.88,0c-3.8-0.02-7.66,0.06-10.57-3.06l-0.4,0.08
	C238.46,326.39,234.69,322.17,230.91,317.95"/>
<path class="st10" d="M352.38,344.79c0.47,14.9,0.47,14.92-13.85,14.92c-26.49,0-52.98,0-79.48,0c-14.58,0-14.58,0-14.67-14.35
	c3.48-4.39,8.53-4.26,13.32-4.28c27.37-0.17,54.71-0.15,82.06-0.02C344.3,341.08,348.83,341.35,352.38,344.79"/>
<path class="st11" d="M352.38,344.79c-36.01,0.19-72.01,0.38-108,0.57c-3.59-3.86-1.52-8.48-1.67-12.79
	c17.22-2.13,34.51-0.87,51.77-0.84c19.35,0.08,38.71-1.41,58.02,0.86L352.38,344.79z"/>
<path class="st12" d="M516.6,332.57c-37.34,0.02-74.71,0.04-112.05,0.08c0-0.8,0.02-1.62,0.02-2.41
	c37.36,0.04,74.74,0.08,112.09,0.11c0.46,0.51,0.61,1.01,0.44,1.5C516.92,332.32,516.75,332.57,516.6,332.57"/>
<path class="st13" d="M352.49,332.6c-36.6,0-73.2,0-109.79-0.02c-0.25-0.68-0.27-1.35-0.08-2.05c36.62-0.1,73.26-0.21,109.88-0.3
	C352.51,331.02,352.49,331.8,352.49,332.6"/>
<path class="st14" d="M516.6,332.57c0.02-0.74,0.04-1.48,0.06-2.22c0.23-2.76,0.44-5.53,0.67-8.3c1.44-6.23,4.96-8.27,11.71-8.34
	c15.85-0.13,31.83,2.19,47.57-1.41c0.1,5.91,0.17,11.84,0.25,17.77c-7.91,0.09-15.81,0.06-23.72,0.32
	c-5.07,0.19-10.36-1.77-12.96,6.31C538.38,342.26,518.88,338.52,516.6,332.57"/>
<path class="st2" d="M352.25,303.81c-33.09-0.02-66.19-0.49-99.28,0.19c-10.45,0.21-14.84-2.43-12.56-13.06
	c1.01-0.93,2.15-1.69,3.36-2.3c2.57-1.24,5.32-1.54,8.1-1.56c29.36-0.21,58.72-0.21,88.1,0c4.52,0.02,9.03,0.49,12.26,4.37
	c0,0-0.02,0.06-0.02,0.08C352.23,295.62,352.25,299.71,352.25,303.81"/>
<path class="st8" d="M242.21,209.15c0.08,27.35,0.17,54.68,0.25,82.02c-0.68-0.08-1.37-0.15-2.05-0.23
	c-0.06-25.12-0.13-50.25-0.13-75.39C240.28,213.3,239.4,210.63,242.21,209.15"/>
<rect x="345.25" y="50.71" width="8.32" height="8.32"/>
<rect x="126.34" y="47.01" width="23.39" height="13.25"/>
<rect x="131.19" y="359.7" width="12.98" height="45.65"/>
</svg>
