<?xml version="1.0" encoding="utf-8"?>
<!-- Generator: Adobe Illustrator 24.1.1, SVG Export Plug-In . SVG Version: 6.00 Build 0)  -->
<svg version="1.1" id="katman_1" xmlns="http://www.w3.org/2000/svg" xmlns:xlink="http://www.w3.org/1999/xlink" x="0px" y="0px"
	 viewBox="0 0 648 646" style="enable-background:new 0 0 648 646;" xml:space="preserve">
<style type="text/css">
	.st0{display:none;}
	.st1{display:inline;}
</style>
<g class="st0">
	<path fill="#fff" class="st1" d="M457.02,572.74c1.48,3.53,4.95,5.86,8.78,5.86h103.89c5.24,0,9.51-4.26,9.51-9.51V465.2
		c0-3.83-2.33-7.3-5.86-8.78c-3.56-1.46-7.64-0.66-10.37,2.05L459.07,562.39C456.36,565.1,455.56,569.18,457.02,572.74z
		 M560.18,488.16v71.43h-71.43L560.18,488.16z"/>
	<path fill="#fff" class="st1" d="M642.04,304.08c-3.56-1.48-7.64-0.66-10.35,2.05l-28.47,28.47V141.02c0-5.24-4.24-9.51-9.51-9.51h-73.02
		L547.2,105l25.56-25.56c5.47-5.47,8.48-12.74,8.48-20.5c0-7.75-3.01-15.02-8.48-20.5L543.21,8.91c-5.47-5.47-12.77-8.48-20.5-8.48
		c-7.73,0-15.02,3.01-20.5,8.48l-25.56,25.56l-30.89,30.89l-66.16,66.16H84.56V37.48c0-5.24-4.26-9.51-9.51-9.51
		c-41.24,0-74.78,33.56-74.78,74.78v403.73c0,0.71,0.09,1.39,0.23,2.05c1.32,17.49,8.89,33.74,21.52,46.07
		c13.52,13.2,31.37,20.45,50.27,20.45h290.47l-54.72,54.72c-2.71,2.71-3.53,6.82-2.05,10.35c1.46,3.56,4.92,5.88,8.78,5.88h323.64
		c5.24,0,9.51-4.26,9.51-9.51V312.85C647.92,309,645.59,305.53,642.04,304.08z M515.67,22.36c3.88-3.9,10.21-3.9,14.09,0
		l29.55,29.55c3.9,3.88,3.9,10.21,0,14.09l-18.83,18.83l-43.66-43.64L515.67,22.36z M483.39,54.64l43.64,43.64l-17.44,17.44
		l-43.64-43.64L483.39,54.64z M628.9,419.66h-17.53c-5.24,0-9.51,4.26-9.51,9.51c0,5.24,4.26,9.51,9.51,9.51h17.53v28.63h-17.53
		c-5.24,0-9.51,4.26-9.51,9.51c0,5.27,4.26,9.51,9.51,9.51h17.53v28.66h-17.53c-5.24,0-9.51,4.24-9.51,9.51
		c0,5.24,4.26,9.51,9.51,9.51h17.53v28.63h-17.53c-5.24,0-9.51,4.26-9.51,9.51c0,5.24,4.26,9.51,9.51,9.51h17.53v45.35H337.73
		l96-96.03c3.72-3.72,3.72-9.73,0-13.45c-0.43-0.41-0.89-0.8-1.37-1.12c-3.69-2.53-8.78-2.17-12.06,1.12l-38.53,38.53H72.29
		c-28.84,0-52.05-22.5-52.96-51.3c0.05-1.8,0.21-3.58,0.41-5.36c0,0,0-0.02,0.02-0.02c0.09-0.84,0.23-1.69,0.36-2.51
		c0.02-0.11,0.05-0.21,0.05-0.3c0.14-0.73,0.3-1.48,0.46-2.21c0.05-0.21,0.09-0.41,0.14-0.62c0.16-0.62,0.3-1.25,0.48-1.87
		c0.09-0.32,0.18-0.66,0.27-0.98c0.14-0.48,0.3-0.96,0.43-1.44c0.16-0.48,0.32-0.96,0.5-1.44c0.09-0.32,0.21-0.66,0.34-0.98
		c0.23-0.62,0.48-1.23,0.73-1.85c0.07-0.18,0.14-0.36,0.21-0.52c0.34-0.78,0.66-1.53,1.03-2.26c0.02-0.05,0.05-0.07,0.05-0.09
		c7.43-15.39,21.73-26.86,38.89-30.41c0.05-0.02,0.09-0.02,0.14-0.05c0.8-0.16,1.6-0.3,2.39-0.41c0.14-0.02,0.27-0.07,0.41-0.07
		c0.71-0.11,1.44-0.21,2.17-0.3c0.21-0.02,0.41-0.05,0.62-0.07c0.71-0.07,1.41-0.11,2.12-0.16c0.25-0.02,0.46-0.05,0.68-0.05
		c0.93-0.05,1.87-0.09,2.83-0.09c5.24,0,9.48-4.24,9.48-9.48v-68.94c0-5.24-4.24-9.51-9.48-9.51c-5.27,0-9.51,4.26-9.51,9.51v60.03
		c-16.05,2.03-30.96,9.19-42.7,20.66c-1.25,1.21-2.42,2.46-3.56,3.74V102.75c0-27.52,20.02-50.43,46.26-54.97v93.24v193.26
		c0,5.24,4.24,9.51,9.51,9.51c5.24,0,9.48-4.26,9.48-9.51V150.53h276.06l-52.55,52.55c-3.72,3.72-3.72,9.73,0,13.45
		c3.72,3.69,9.73,3.69,13.45,0l68.78-68.78l62.22-62.22l43.64,43.64l-5.11,5.13c-0.02,0-0.02,0-0.02,0L299.34,325.98l-43.66-43.66
		l37.8-37.78c3.69-3.72,3.69-9.73,0-13.45c-3.72-3.72-9.76-3.72-13.45,0l-44.5,44.5c-0.25,0.25-0.46,0.5-0.68,0.75
		c-0.07,0.09-0.11,0.18-0.18,0.27c-0.14,0.18-0.27,0.36-0.39,0.55c-0.07,0.09-0.14,0.21-0.21,0.32c-0.11,0.18-0.21,0.36-0.3,0.55
		c-0.07,0.11-0.11,0.23-0.18,0.36c-0.07,0.18-0.16,0.36-0.23,0.57c-0.02,0.07-0.05,0.11-0.07,0.18l-18.53,52.48l-12.63,35.77
		c-0.16,0.48-0.27,0.96-0.36,1.44h-31.62c-5.24,0-9.51,4.26-9.51,9.51c0,5.24,4.26,9.51,9.51,9.51h263.25
		c5.24,0,9.51-4.26,9.51-9.51c0-5.24-4.26-9.51-9.51-9.51H244.53l57.98-20.45c0.05-0.02,0.09-0.05,0.14-0.07
		c0.23-0.09,0.43-0.18,0.66-0.27c0.09-0.05,0.18-0.09,0.25-0.11c0.23-0.11,0.46-0.25,0.68-0.39c0.07-0.05,0.14-0.09,0.21-0.11
		c0.23-0.16,0.46-0.32,0.66-0.48c0.07-0.05,0.11-0.09,0.18-0.14c0.25-0.21,0.52-0.43,0.75-0.68l195.63-195.61h82.53v203.08
		L448.23,489.58c-3.72,3.72-3.72,9.73,0,13.45c0.23,0.23,0.48,0.43,0.73,0.66c1.73,1.41,3.85,2.12,6,2.12c2.12,0,4.26-0.71,6-2.12
		c0.25-0.23,0.48-0.43,0.73-0.66L628.9,335.79V419.66z M281.94,335.47l-27.22,9.62l-18.15-18.15l9.6-27.22L281.94,335.47z"/>
</g>
<path fill="#fff" d="M585.06-0.88c-86.66-0.03-173.33,0-259.99,0c-87.37,0-174.73-0.03-262.1,0C24.39-0.88,0,23.62,0,62.33
	c0,174.03,0,348.06,0,522.09c0,37.95,24.61,62.67,62.43,62.67c174.38,0.03,348.76,0.03,523.14,0c37.82,0,62.43-24.72,62.43-62.67
	c0-174.03,0-348.06,0-522.09C648,23.59,623.63-0.88,585.06-0.88z M445.81,27.09c-0.69,0.43-1.47,0.67-1.88,1.74
	C444.4,27.79,445.08,27.35,445.81,27.09z M253.63,178c23.72,0.43,47.44,0.16,71.19,0.16c23.02,0,46.07,0.35,69.12-0.19
	c7.47-0.16,9.06,2.13,8.92,9.19c-0.46,22.7-0.32,45.37-0.11,68.09c0.08,9.43-3.85,13.85-13.53,13.83
	c-43.32-0.13-86.64-0.03-129.96-0.11c-10.84,0-13.88-3.15-13.91-14.31c-0.11-22.7,0.22-45.39-0.19-68.09
	C245.06,179.91,246.78,177.86,253.63,178z M53.97,28.17C53.97,28.17,53.97,28.17,53.97,28.17C53.97,28.18,53.97,28.18,53.97,28.17
	c27.1-0.02,54.16-0.13,81.25-0.02c22.97,0.11,45.9,0.46,68.87,0.7c-0.11,40.49-0.27,80.97-0.27,121.43c0,3.34-0.03,6.93,2.56,9.7
	c0.01,0.01,0.01,0.02,0.02,0.03c-0.12,1.82,0.67,3.13,2.12,4.11c0,0.01,0.01,0.02,0.01,0.04c1.43,4.61,4.82,8.03,8.84,9.49
	c7.66,2.78,8.55,7.87,8.57,15.1c0.08,24.34-1.38,48.68,0.73,72.97c0.01,0.01,0,0.01,0.01,0.02c-0.44,0.59-0.45,1.09,0.11,1.6
	c0.15-0.25,0.37-0.5,0.56-0.75c-0.01,0.05,0.15,0.1,0.12,0.15c-0.22,0.4-0.46,0.59-0.67,0.59c1.78,15.31,12.27,24.8,28.01,25.31
	c19.79,0.67,19.79,0.67,19.79,20.67c0,8.2-0.11,16.39,0.03,24.59c0.11,6.06,1.7,11.46,8.06,13.99c0.24,0.24,0.49,0.76,0.67,0.73
	c14.85-1.08,15.18,9,16.44,19.84c4.1,34.63,9.03,69.14,13.64,103.69c0,0,0,0,0,0.01l0.51,5.69c0,0,0,0,0-0.01c0,0,0,0,0,0.01
	c-0.38,3.71-0.42,7.37,1.58,10.76c0,0,0,0.01,0,0.02c0.16,1.92,0.32,3.83,0.49,5.74c0.02-0.01,0.01-0.03,0.03-0.05
	c-0.01,0.02-0.01,0.04-0.01,0.06c-0.46,3.68-0.34,7.3,1.6,10.63c0,0.01,0,0.02,0,0.03l0.32,3.77c0,0,0,0.01-0.01,0.01
	c-0.76,4.77,0.05,9.41,1.56,13.8c2.1,6.04,5.2,6.15,8.46,0.67c-0.02-0.02,0-0.03-0.01-0.05c0.01,0.01,0,0.02,0.02,0.03
	c0.57-0.54,0.65-1.13,0.3-1.78c0,0,0,0,0,0c2.69-8.86,3.1-18,3.72-27.13c-0.01-0.02-0.01-0.03-0.01-0.05c0.01,0.01,0,0.02,0.01,0.03
	c0.16-1.89,0.32-3.8,0.49-5.72c0,0,0,0,0,0c0,0,0,0,0,0c3.29-23.7,6.66-47.39,9.79-71.11c2.45-18.71,4.77-37.42,6.79-56.18
	c0.78-7.47,1.86-13.64,11.81-11.54c1.29,0.27,2.96-1.23,4.44-1.91h0.01c0,0,0,0-0.01,0l0,0c6.79-2.86,8.11-8.63,8.09-15.12
	c0-12.37,0.24-24.77-0.11-37.12c-0.13-5.39,1.59-7.47,7.01-7.06c5.15,0.35,10.35,0.32,15.47-0.05
	c13.75-1.08,23.51-10.76,25.47-24.99c2.26-23.26,0.65-46.58,0.89-69.9c0.08-9.11-0.89-17.82,10.43-21.3
	c2.4-0.76,4.58-3.02,5.28-5.96c0,0,0-0.01,0-0.01c2.3-1.54,3.61-3.63,3.77-6.41c2.58-2.8,2.56-6.36,2.56-9.7
	c-0.03-40.49-0.16-80.95-0.27-121.44c0,0,0,0,0,0c3.04-0.22,6.12-0.67,9.19-0.67c46.98-0.03,93.94,0,140.92,0c0,0,0.01,0,0.01,0
	c12.59,3.85,20.89,12.05,24.85,24.61c0.03,27.17,0.08,54.34,0.08,81.49c-0.05,118.66-0.11,237.29-0.16,355.93l-0.22-0.4c0,0,0,0,0,0
	c-30.16,0.03-60.33-0.03-90.46,0.13c-3.53,0.03-7.62-1.67-10.51,2.04c-0.01,0-0.03,0-0.04,0l-0.08-0.02
	c0.01,0.01,0.02,0.01,0.02,0.02c-0.01,0-0.02,0-0.03,0c-6.23,3.5-9.49,9.76-13.94,14.88c-0.01,0-0.01,0-0.02,0
	c-9.05-1.22-11.66-10.78-18.8-14.47h-0.01c-1.65-3.07-4.54-2.52-7.23-2.52c-36.04-0.03-72.08,0.08-108.12-0.13
	c-5.31-0.05-8.01,2.29-10.65,6.33c-9.54,14.66-19.62,28.98-28.95,43.8c-4.2,6.71-6.41,8.3-11.38,0.35
	c-9.27-14.74-19.62-28.81-29.51-43.17c0,0,0,0,0-0.01c-0.7-0.89-1.4-1.78-2.1-2.67c0-0.01-0.01-0.01-0.01-0.01
	c-0.9-6.43-6.01-4.42-9.61-4.45c-34.88-0.11-69.76-0.08-104.64-0.03c-3.23,0-6.99-1.28-9.26,2.52c0,0,0,0-0.01,0
	c-4.83,3.56-9.06,7.71-12.54,12.59c0,0,0.01,0,0.01,0.01c-0.01,0.01-0.01,0.01-0.02,0.02c-4.85,3.32-8.36,0.7-10.81-3.13
	c-2.56-3.99-5.39-7.47-9.41-9.92c-0.01,0-0.01,0-0.02,0c0,0,0.01-0.01,0.01-0.01l-0.03,0.01c-0.02,0-0.05,0-0.08,0
	c-2.88-3.72-6.97-2.03-10.49-2.06c-30.16-0.16-60.33-0.11-90.49-0.13c0,0.02,0,0.04,0,0.06l-0.19,0.36l0,0
	c-0.03-145.83-0.05-291.6-0.08-437.4c0,0,0,0-0.01,0.01c0-0.01,0-0.01,0.01-0.02C33.02,40.2,41.43,32.08,53.97,28.17z"/>
</svg>
