<?xml version="1.0" encoding="utf-8"?>
<!-- Generator: Adobe Illustrator 24.1.1, SVG Export Plug-In . SVG Version: 6.00 Build 0)  -->
<svg version="1.1" id="katman_1" xmlns="http://www.w3.org/2000/svg" xmlns:xlink="http://www.w3.org/1999/xlink" x="0px" y="0px"
	 viewBox="0 0 648 541" style="enable-background:new 0 0 648 541;" xml:space="preserve">
<path fill="#fff" d="M523.12,324.64c-5.77,15.73-9.01,17.97-25.5,17.97h-99.85h-7.4c-3.41,20.29-6.77,40.11-10.06,59.91
	c-6.7,40.43-13.32,80.85-20.12,121.25c-1.92,11.47-8.67,16.93-20.43,16.95c-16.63,0.07-33.29,0.1-49.92,0.02
	c-12.49-0.07-19.46-7.04-19.7-19.63c-0.07-4.63,0-9.25,0-16.02c-19.77,23.04-43.01,35.51-71.79,35.56
	c-28.96,0.05-52.46-12.05-72.45-35.9c0,6.96,0.07,11.93,0,16.88c-0.19,11.71-7.21,18.97-18.8,19.07c-17.34,0.15-34.68,0.12-52.02,0
	c-10.5-0.07-17.31-5.77-19.04-16.05C25.56,462.09,15.51,399.43,4.62,336.94c-3.65-20.89-4.77-41.79-4.6-62.9
	c0.29-36.09,0.05-72.18,0.1-108.27c0.02-14.47,6.65-21.09,21.07-21.16c20.14-0.07,40.3-0.02,60.44-0.02h8.5v-8.96
	c0-37.97-0.22-75.93,0.24-113.9c0.05-5.38,2.17-11.71,5.53-15.83c6.23-7.62,17.46-7.04,25.01,0.32
	c33.51,32.58,53.28,72.08,57.84,118.65c0.9,9.13,3.48,15.95,10.4,21.63c3.02,2.51,5.38,5.8,9.16,9.91
	c5.8-6.31,11.3-11.45,15.66-17.41c2.09-2.92,2.53-7.35,2.85-11.18c3.82-42.52,20.12-79.54,48.46-111.34
	c3.12-3.48,6.4-6.84,9.74-10.13c5.75-5.6,12.52-7.38,19.99-4.14c7.38,3.21,10.96,9.13,10.96,17.24
	c-0.02,38.45-0.02,76.88-0.02,115.31v9.4h35.43c0.71-2.09,1.29-4.53,2.34-6.77c3.31-7.06,9.01-10.54,16.78-10.54
	c15-0.05,30-0.02,45-0.02h8.09V90.7c-5.63,0-11.18,0.1-16.73-0.02c-10.89-0.29-18.65-7.67-18.85-17.75
	c-0.17-9.94,7.57-18.09,18.39-18.22c23.67-0.32,47.34-0.32,71.01-0.05c11.37,0.12,18.8,8.09,18.51,18.65
	c-0.29,10.13-8.01,17.17-19.09,17.36c-5.31,0.1-10.67,0.02-16.32,0.02v36.09h10.52h35.87c17.24,0,19.99,1.8,26.35,17.78h43.32
	c20.14,0,40.3-0.02,60.47,0.02c13.95,0.02,20.89,6.75,20.89,20.55c0.1,46.42,0.1,92.81,0,139.23c-0.02,13.59-6.67,20.16-20.38,20.21
	c-32.34,0.1-64.68,0.05-97.02,0.05H523.12z M270.14,288.82c0-6.06-0.1-11.18,0.02-16.27c0.24-12.96,7.14-19.9,20.14-19.92
	c70.55-0.05,141.1-0.05,211.65,0c12.81,0.02,19.99,7.26,20.21,20.02c0.07,5.28,0,10.52,0,15.66h89.59V181.22h-89.57
	c0,4.02,0,7.53,0,11.03c0.07,18.46-5.99,24.6-24.23,24.57c-16.88-0.02-33.75,0-50.61,0c-28.13,0-56.26,0.05-84.38-0.02
	c-13.83-0.05-20.72-7.04-20.8-20.75c-0.05-4.85-0.02-9.72-0.02-15.37c-17.31,0-33.87,0.02-50.46,0
	c-14.93-0.02-21.5-6.45-21.55-21.26c-0.05-25.79-0.02-51.56-0.05-77.35v-6.7c-2.58,1.78-3.8,3.87-4.75,6.06
	c-8.28,19.12-12.57,39.06-13.42,59.93c-0.24,5.63-2.36,12.32-6.02,16.41c-10.89,12.23-22.84,23.53-34.58,35
	c-8.38,8.16-18.39,8.06-26.76-0.19c-11.54-11.32-23.28-22.5-34.12-34.46c-3.43-3.8-5.31-9.69-6.23-14.93
	c-2.05-11.47-2.09-23.35-4.68-34.68c-2.63-11.57-7.31-22.62-11.1-33.92c-0.83,0.24-1.66,0.46-2.51,0.68v6.75
	c0,26.23,0.05,52.48-0.02,78.73c-0.05,12.96-7.04,19.87-20.04,19.92c-20.16,0.07-40.33,0.02-60.47,0.02h-9.16
	c-0.15,1.97-0.29,3.09-0.29,4.24c-0.02,39.14-0.02,78.27,0.02,117.41c0,2.09,0.34,4.19,0.68,6.26
	c9.11,54.96,18.22,109.93,27.37,164.89c1.7,10.28,3.58,20.55,5.31,30.49H90.1v-11.03c0-61.17-0.02-122.35,0.05-183.5
	c0-14.1,6.6-20.63,20.65-20.63c28.83-0.05,57.64-0.02,86.48-0.02H270.14z M198.32,504.58c29.91-0.17,54.09-24.62,53.8-54.36
	c-0.29-29.49-24.43-53.36-54.04-53.38c-29.95-0.02-54.09,24.11-54.04,54.01C144.09,480.69,168.39,504.75,198.32,504.58
	 M270.12,394.22c0-20.75-0.22-41.52,0.15-62.27c0.1-5.87-1.66-7.48-7.48-7.45c-43.3,0.22-86.62,0.12-129.92,0.15
	c-2.22,0-4.43,0.32-6.6,0.46v70.89c19.34-22.7,42.57-35.12,71.4-35.21C226.65,360.68,250,372.91,270.12,394.22 M353.72,343.07H306.4
	v161.17h20.46C335.82,450.47,344.73,396.99,353.72,343.07 M378.41,180.25h107.1v-17.27h-107.1V180.25z M306.3,306.25h17.27v-17.02
	H306.3V306.25z M431.77,289.3H414.5v17.05h17.27V289.3z M485.69,289.28h-16.97c-2.61,17.58,0.34,20.41,16.97,16.49V289.28z
	 M377.49,289.28h-16.8v17.12h16.8V289.28z"/>
</svg>
