<?xml version="1.0" encoding="utf-8"?>
<!-- Generator: Adobe Illustrator 24.1.1, SVG Export Plug-In . SVG Version: 6.00 Build 0)  -->
<svg version="1.1" id="katman_1" xmlns="http://www.w3.org/2000/svg" xmlns:xlink="http://www.w3.org/1999/xlink" x="0px" y="0px"
	 viewBox="0 0 1329.09 561.32" style="enable-background:new 0 0 1329.09 561.32;" xml:space="preserve">
<style type="text/css">
	.st0{display:none;}
	.st1{display:inline;}
</style>
<g>
	<path  fill="#fff" d="M1326.89,261.1c-1.16-3.78-2.31-7.57-3.46-11.36c-0.55-1.48-1.14-2.94-1.77-4.39c-4-9.24-8.57-18.63-14.83-26.38
		c-9.65-11.96-21.82-21.24-36.43-27.18c-18.18-7.39-36.6-9.69-55.95-6.09c-3.35,0.62-7.5,3.67-11.02-0.56
		c-3.06-3.69-6.43-7.11-9.62-10.68c-13.51-15.16-27-30.33-40.52-45.48c-6.16-6.9-12.44-13.7-18.57-20.63
		c-9.62-10.87-19.05-21.9-28.86-32.6c-1.49-1.62-4.57-2.51-6.92-2.52c-48.82-0.14-97.65-0.07-146.48-0.19
		c-2.83-0.01-5.93-0.7-8.44-1.99c-34.97-18.02-70.67-34.34-108.74-44.69c-20.94-5.68-42.13-10.47-63.31-15.14
		c-11.65-2.57-23.5-4.23-35.31-5.98c-8.76-1.3-17.58-2.43-26.42-3.03C700,1.5,689.71,1.47,679.44,1.07
		c-0.83-0.03-1.63-0.7-2.44-1.07c-8.65,0-17.31,0.24-25.95,0.51c-0.49,0.01-0.97,0.03-1.46,0.04c-16.15,0.49-32.3,1.6-48.39,3.05
		c-8.8,0.78-17.54,2.01-26.23,3.59c-15.28,2.77-30.61,5.56-45.67,9.35c-20.09,5.05-40.38,9.71-59.88,16.56
		C440.38,43.31,412.25,55.91,385,70.38c-2.48,1.31-5.6,1.97-8.43,1.98c-48.83,0.12-97.66,0.12-146.48,0
		c-3.53-0.01-5.91,1.11-8.1,3.69c-4.8,5.66-9.75,11.2-14.7,16.73c-6.4,7.14-12.9,14.19-19.28,21.34
		c-13.3,14.9-26.56,29.83-39.81,44.77c-7.22,8.15-14.34,16.37-21.59,24.49c-1.56,1.74-2.78,3.17-6.16,2.49
		c-14.45-2.88-28.99-3.75-43.65-0.48c-24.65,5.49-44.54,18.07-58.86,38.89C9.17,237.03,3.69,251.06,1.3,266.12
		c-0.49,3.11-0.86,6.27-1.09,9.47c-0.14,1.95-0.21,3.9-0.21,5.83c0,6.38,0.76,12.65,2.19,18.77c0.9,3.86,2.06,7.66,3.48,11.4
		c0.54,1.47,1.13,2.93,1.76,4.38c3.99,9.23,8.56,18.63,14.82,26.38c9.66,11.96,21.82,21.23,36.44,27.18
		c18.17,7.39,36.6,9.69,55.95,6.09c3.35-0.63,7.49-3.68,11.01,0.56c3.06,3.68,6.43,7.11,9.62,10.68
		c13.52,15.15,27,30.33,40.52,45.48c6.16,6.9,12.44,13.7,18.57,20.63c9.62,10.86,19.05,21.9,28.86,32.59
		c1.49,1.63,4.57,2.52,6.92,2.53c48.83,0.14,97.65,0.07,146.48,0.19c2.83,0.01,5.93,0.7,8.44,1.99
		c34.97,18.02,70.67,34.34,108.75,44.68c20.93,5.69,42.12,10.48,63.31,15.15c11.64,2.57,23.5,4.23,35.3,5.98
		c8.77,1.3,17.58,2.42,26.42,3.03c10.24,0.7,20.54,0.73,30.8,1.14c0.83,0.03,1.63,0.7,2.45,1.07h25c0.31-0.14,0.63-0.33,0.94-0.51
		c0.49-0.28,0.99-0.54,1.5-0.56c10.09-0.41,20.21-0.44,30.29-1.14c9-0.62,17.97-1.77,26.9-3.02c10.2-1.43,20.46-2.76,30.5-4.99
		c22.77-5.05,45.57-10.06,68.08-16.14c38.2-10.3,73.95-26.81,109.08-44.73c2.49-1.28,5.25-1.95,8.05-1.95
		c48.97-0.11,97.95-0.05,146.92-0.19c2.2,0,5.09-0.85,6.49-2.38c9.78-10.71,19.23-21.72,28.82-32.6c3.28-3.72,6.68-7.34,9.98-11.03
		c13.74-15.38,27.46-30.79,41.21-46.17c5.94-6.65,12-13.18,17.85-19.91c3.45-3.97,7.44-1.1,10.61-0.47
		c19.69,3.87,38.42,1.36,56.85-6.25c9.78-4.04,17.46-10.76,25.56-17.16c18.53-14.64,26.19-34.98,31.06-56.91
		c0.49-3.12,0.86-6.28,1.09-9.49c0.15-1.97,0.22-3.92,0.22-5.87C1329.09,273.47,1328.32,267.21,1326.89,261.1z M1296.39,304.27
		c-0.07,0.21-0.15,0.41-0.23,0.61c-2.13,5.65-4.93,10.84-8.24,15.34c-0.04,0.05-0.08,0.11-0.12,0.16c-0.03,0.04-0.06,0.09-0.09,0.13
		c-10.47,14.05-24.46,22.72-41.22,26.63c-16.58,3.87-27.95,3.42-48.75-6.74c-7.44,8.2-14.99,16.47-22.47,24.81
		c-3.63,4.04-7.06,8.27-10.71,12.29c-10.91,11.99-21.94,23.87-32.83,35.88c-12.11,13.33-24.5,26.43-35.95,40.31
		c-3.97,4.81-7.81,5.87-13.43,5.85c-45.67-0.17-91.33-0.13-137-0.01c-2.76,0-5.48,0.67-7.93,1.92
		c-25.56,13.05-51.41,25.46-78.32,35.49c-27.28,10.16-55.32,17.93-83.7,24.15c-15.96,3.5-32.32,5.23-48.56,7.3
		c-9.87,1.26-19.76,2.11-29.67,2.63c-0.06,0.01-0.12,0.01-0.18,0.01c-4.69,0.26-9.39,0.43-14.09,0.54
		c-13.33,0.33-26.67,0.15-39.99-0.32c-22.98-0.8-46.06-1.66-68.66-6.78c-22.6-5.12-45.51-9.18-67.76-15.52
		c-40.06-11.43-78.03-28.31-114.95-47.55c-2.34-1.22-4.94-1.87-7.59-1.88c-47-0.1-94-0.11-141-0.01c-3.72,0.01-5.96-1.21-8.15-4.25
		c-3.18-4.4-7.1-8.27-10.77-12.3c-13.91-15.28-27.89-30.51-41.78-45.82c-11.98-13.22-23.9-26.5-35.8-39.79
		c-5.04-5.64-9.95-11.39-14.84-17c-35.36,18.61-67.3,5.76-84.2-12.97c-11.64-12.9-17.46-26.74-18.83-40.23
		c-1.06-10.36,0.49-20.51,4.03-29.87c0.03-0.07,0.05-0.15,0.08-0.23c2.18-5.71,5.09-11.12,8.6-16.11c0.03-0.04,0.06-0.09,0.09-0.13
		c0.26-0.37,0.53-0.74,0.8-1.11c18.88-25.75,56.45-37.49,89.24-19.51c7.42-8.11,14.92-16.23,22.33-24.44
		c3.74-4.15,7.21-8.56,10.97-12.7c13.89-15.31,27.92-30.49,41.76-45.84c9.94-11.03,19.54-22.37,29.58-33.31
		c1.5-1.64,4.56-2.59,6.9-2.59c46.5-0.15,93-0.06,139.5-0.22c3.47-0.01,7.27-0.81,10.33-2.39c25.22-12.99,50.8-25.21,77.42-35.02
		c26.83-9.9,54.26-17.96,82.2-24.06c12.78-2.79,25.77-4.79,38.76-6.3c13.5-1.56,27.11-2.52,40.69-3.02
		c0.08-0.01,0.15-0.01,0.23-0.01c4.7-0.17,9.4-0.36,14.1-0.54c14.91-0.57,29.84-1.02,44.7-0.27c21.44,1.08,43.04,1.81,64.17,6.66
		c21.48,4.93,43.35,8.41,64.48,14.49c40.93,11.79,79.97,28.55,117.66,48.44c2.51,1.33,5.3,2.03,8.14,2.04
		c46.66,0.12,93.33,0.13,140,0.01c4.2-0.01,6.89,1.05,9.37,4.78c2.98,4.5,7.18,8.19,10.86,12.22
		c13.81,15.16,27.66,30.28,41.43,45.47c11.87,13.1,23.67,26.26,35.45,39.44c5.05,5.65,9.98,11.41,15.13,17.31
		c34.55-18.35,66.24-6.34,84.78,13.24c11.26,11.89,16.78,25.9,18.06,39.71c0.01,0.17,0.03,0.33,0.05,0.5
		C1301.39,284.44,1299.8,294.96,1296.39,304.27z"/>
	<path fill="#fff" d="M1195.36,231.12c-7.36-8.01-14.76-16.02-22.11-24.08c-5.89-6.47-11.76-12.97-17.59-19.5
		c-13.51-15.14-27.01-30.31-40.51-45.48c-8.01-8.99-16.04-17.97-24.01-27.01c-2.6-2.95-5.24-4.76-9.67-4.73
		c-45.83,0.21-91.65,0.17-137.48,0.03c-3.26-0.01-6.47-0.75-9.39-2.2c-8.65-4.31-16.95-9.31-25.59-13.66
		c-28.84-14.55-58.9-26.22-89.96-34.85c-12.29-3.41-24.75-6.31-37.29-8.86c-9.24-1.87-18.51-3.56-27.78-5.14
		c-0.12-0.02-0.24-0.04-0.36-0.06c-21.04-3.58-42.3-6.47-63.58-7.81c-18.18-1.16-36.56-0.32-54.77,0.84
		c-18.17,1.16-36.32,3.3-54.34,5.98c-16.78,2.5-33.45,5.91-50.03,9.59c-24.6,5.46-48.32,13.76-71.72,23.11
		c-19.5,7.79-38.61,16.24-56.69,26.99c-6.95,4.13-14.24,6.47-22.85,6.38c-43.99-0.46-87.98-0.17-131.98-0.29
		c-3.61-0.01-6.27,0.81-8.64,3.61c-6.83,8.04-13.75,16.01-20.82,23.84c-16.73,18.53-33.59,36.93-50.34,55.44
		c-4.09,4.51-7.89,9.28-11.98,13.8c-7.31,8.09-14.74,16.07-22.09,24.08c-39.33-21.6-68.04-8.76-84.46,13.17
		c-7.68,10.27-12.02,21.07-12.85,32.01c-0.02,0.16-0.03,0.32-0.04,0.47c-0.89,13.12,3.26,26.44,12.7,39.32
		c15.13,20.64,43.96,36.1,84.36,13.09c7.45,8.11,14.96,16.23,22.42,24.4c5.9,6.46,11.76,12.97,17.58,19.5
		c13.52,15.14,27.02,30.31,40.52,45.48c8.01,8.99,16.04,17.97,24.01,27.01c2.6,2.95,5.24,4.76,9.67,4.73
		c45.83-0.21,91.65-0.17,137.48-0.03c3.25,0.01,6.47,0.74,9.38,2.2c8.65,4.31,16.95,9.34,25.6,13.65
		c24.04,11.98,48.81,22.28,74.55,29.97c17.31,5.16,34.69,10.24,52.27,14.35c2.1,0.49,4.21,0.97,6.32,1.43
		c7.19,1.57,14.48,2.77,21.8,3.79c0.04,0.01,0.07,0.01,0.11,0.02c9.03,1.27,18.12,2.29,27.16,3.46c12.54,1.62,25.14,3.68,37.74,3.82
		c21.7,0.23,43.46,1.5,65.13-1.69c14.11-2.08,28.44-2.83,42.49-5.22c19.63-3.34,39.38-6.62,58.55-11.83
		c21.38-5.82,42.25-13.56,63.2-20.88c19.76-6.91,38.87-15.66,56.71-26.62c7.36-4.52,14.94-6.81,23.84-6.73
		c43.82,0.4,87.65,0.13,131.48,0.29c3.9,0.01,6.54-1.22,8.97-4.01c9.87-11.31,19.74-22.63,29.79-33.78
		c13.83-15.35,27.86-30.53,41.75-45.84c3.76-4.14,7.27-8.51,11.02-12.67c7.5-8.34,15.09-16.6,22.59-24.84
		c38.75,22.17,67.75,8.99,84.11-12.7c7.58-10.04,11.89-20.69,12.86-31.45c0.02-0.16,0.03-0.32,0.04-0.48
		c1.12-13.59-3.11-27.34-12.83-40.24C1263.2,222.26,1235.09,209.64,1195.36,231.12z M1281.45,290.04c-0.01,0.06-0.03,0.12-0.04,0.19
		c-2.03,9.35-6.92,18.23-14.21,26.04c-15.43,16.56-45.76,22.06-71.83-0.76c-8.09,9.11-16.19,18.22-24.3,27.33
		c-3.41,3.82-6.81,7.66-10.27,11.43c-11.53,12.56-23.17,25.01-34.59,37.66c-13.49,14.95-26.82,30.05-40.16,45.14
		c-2.1,2.38-4.36,3.47-7.71,3.46c-46-0.13-92-0.12-138,0c-2.69,0-5.33,0.64-7.74,1.83c-11.1,5.5-21.8,11.87-33.12,16.86
		c-19.58,8.64-39.52,16.46-59.27,24.71c-2.71,1.13-5.44,2.19-8.19,3.19c-16.9,6.14-34.46,9.96-51.94,13.88
		c-1.63,0.37-3.26,0.73-4.88,1.1c-16.08,3.65-32.68,4.99-49.05,7.36c-25.13,3.65-50.42,4.88-75.75,3.86
		c-15.94-0.65-31.87-2.24-47.73-4.04c-13.74-1.55-27.42-3.64-41-6.25c-11.2-2.14-22.41-4.38-33.49-7.07
		c-4.06-0.99-8.1-2.04-12.12-3.17c-3.96-1.11-7.91-2.27-11.84-3.48c-18.4-5.62-36.45-12.31-53.83-20.76
		c-17.98-8.75-35.92-17.57-53.95-26.21c-2.28-1.09-4.98-1.81-7.48-1.82c-46-0.1-92-0.12-138,0.01c-3.56,0.01-5.89-1.22-8.11-3.73
		c-8.65-9.76-17.41-19.43-26.11-29.16c-13.87-15.5-27.71-31.03-41.58-46.54c-5.95-6.65-11.89-13.3-17.91-19.88
		c-7.82-8.54-15.71-17.01-23.57-25.5c-28.15,23.77-58,15.85-71.98,0.3c-12.31-13.68-16.92-28.98-14.25-43.78
		c0.02-0.15,0.05-0.29,0.08-0.43c1.8-9.48,6.58-18.74,14.24-27.23c13.87-15.38,43.64-23.56,72.15,0.44
		c8.09-9.13,16.19-18.26,24.3-27.38c3.41-3.83,6.83-7.65,10.3-11.42c11.52-12.56,23.17-25,34.59-37.65
		c13.38-14.83,26.59-29.82,39.8-44.79c2.22-2.53,4.6-3.68,8.13-3.67c45.83,0.13,91.66,0.12,137.5,0c2.88-0.01,5.73-0.66,8.32-1.94
		c12.7-6.26,25.16-13.01,37.88-19.24c20.19-9.89,41.01-18.02,62.32-24.73c11.82-3.74,23.79-7.04,35.88-9.97
		c5.54-1.34,11.08-2.73,16.63-4.04c0.06-0.02,0.13-0.04,0.2-0.05c7.41-1.77,14.84-3.42,22.32-4.72c13.72-2.37,27.71-3.18,41.48-5.31
		c23.74-3.67,47.61-3.29,71.45-2.73c13.6,0.32,27.21,2.14,40.74,3.87c15.42,1.97,30.88,3.96,46.09,7.1
		c9.85,2.03,19.62,4.48,29.35,7.08c6.19,1.67,12.37,3.4,18.54,5.13c1.53,0.43,3.07,0.86,4.6,1.29c0.02,0,0.04,0,0.05,0.01
		c10.72,3.02,21.48,6.11,31.66,10.47c20.75,8.88,40.99,18.95,61.42,28.57c5.8,2.74,11.45,5.78,17.29,8.42
		c1.7,0.77,3.82,0.84,5.75,0.84c45.83,0.04,91.66,0,137.5,0.14c2.36,0.01,5.45,0.84,6.97,2.46c7.57,8.04,14.67,16.52,22.04,24.76
		c6.94,7.76,14.06,15.37,21.04,23.11c14.71,16.32,29.33,32.71,44.07,49c7.65,8.46,15.48,16.77,23.22,25.14
		c31.41-24.83,59.57-14.34,72.29,0.08C1280.59,259.52,1284.57,275.35,1281.45,290.04z"/>
	<path fill="#fff" d="M470.58,361.87c1.56-7.51,2.08-15.24,3.45-22.8c0.14-0.79,0.26-1.58,0.36-2.36c1.34-10.36-0.89-20.43-4.06-29.98
		c-3.94-11.9-9.95-23.11-15.04-34.64c-0.49-1.11-0.82-2.28-1.39-3.9c5.09,0,9.62,0.37,14.06-0.08c4.53-0.45,9.08-0.99,13.59-1.71
		c2.44-0.38,4.88-0.82,7.29-1.32c4.66-0.96,9.07-2.41,13.21-4.29c5.1-2.31,9.8-5.28,14.05-8.8c2.93-2.42,5.64-5.11,8.14-8.02
		c1.29-1.52,2.53-3.11,3.71-4.75c1.2-1.67,2.31-3.36,3.35-5.08c2.55-4.21,4.63-8.58,6.18-13.08c1.86-5.36,2.98-10.93,3.3-16.67
		c0.36-6.38-0.27-12.99-1.97-19.8c-2.37-9.46-6.88-17.6-12.99-24.38c-0.89-0.98-1.8-1.91-2.75-2.8
		c-6.57-6.17-14.69-10.15-24.55-11.27c-3.02-0.34-5.9-0.39-8.67-0.16c-9.92,0.81-18.31,5.14-25.7,12.2c-2.09,2-3.87,4.17-5.36,6.51
		c-3.16,4.91-5.06,10.55-5.93,16.87c-1.58,11.52,4.16,27.06,15.22,31.83c6.86,2.96,12.22,1.32,16.96-2.98
		c3.8-3.45,5.09-8.46,3.05-13.52c-1.82-4.5-3.67-9.11-6.34-13.11c-6.01-9,0.59-16.67,7.53-18.56c7.45-2.03,16.5,2.42,20.94,10.17
		c1.29,2.24,2.46,4.52,3.45,6.83c2.79,6.48,4.14,13.27,2.53,20.7c-0.66,3.06-1.44,6.01-2.65,8.75c-1.44,3.32-3.52,6.33-6.77,8.88
		c-0.78,0.61-1.57,1.18-2.36,1.71c-2.4,1.63-4.88,2.93-7.47,3.94c-3.23,1.27-6.63,2.1-10.27,2.57c-8.9,1.16-17.65,3.77-26.56,4.5
		c-12.22,1.01-24.53,0.76-36.8,1.22c-0.7,0.03-1.4,0.05-2.11,0.09c-3.57,0.16-7.17,0.45-10.64,1.23
		c-16.38,3.63-29.55,12.05-40.64,24.96c-11.65,13.54-16.43,28.97-16.59,46.12c-0.12,12.31,3.82,23.77,9.48,34.73
		c2.93,5.67,6.08,10.87,11.38,14.61c8.26,5.81,17.76,7.46,27.46,7.83c1.52,0.06,3.08,0.07,4.64,0.01c3.41-0.14,6.84-0.63,9.91-1.76
		c9.22-3.39,17.42-8.7,22.04-17.91c5.13-10.23,6.41-20.71,1.88-31.68c-2.56-6.21-6.97-10.46-11.88-14.76
		c-3.33-2.92-7.97-4.85-12.86-5.64c-5.93-0.95-12.23-0.22-16.99,2.47c-1.32,0.74-2.53,1.63-3.57,2.68
		c-7.75,7.8-11.94,18.9-8.25,29.45c1,2.9,2.61,5.76,4.9,8.5c1.72,2.06,5.99,2.96,8.96,2.76c3.72-0.26,6.6-2.71,5.54-7.39
		c-0.36-1.59-0.53-3.22-0.76-4.83c-0.46-3.18,0.23-6.23,2.22-8.18c0.57-0.56,1.24-1.02,2.02-1.37c0.88-0.4,1.73-0.69,2.53-0.88
		c5.17-1.27,8.63,1.44,10.19,4.37c0.03,0.06,0.07,0.13,0.1,0.19c2.04,3.97,1.35,7.85,1.2,12.11c-0.22,5.93-5.1,11.04-10.7,14.31
		c-4.59,2.67-9.65,4.12-13.01,3.79c-13.31-1.34-23.03-7.93-26.76-21.45c-0.12-0.42-0.24-0.85-0.37-1.28
		c-1.27-4.32-2.92-8.86-2.37-13.02c1.71-12.84,5.89-24.97,13.71-35.68c4.42-6.08,13.79-11.31,22.05-11.94
		c2.12-0.16,4.17-0.02,6.05,0.5c6.48,1.79,12.98,4.06,19.01,7.06c1.23,0.6,2.44,1.24,3.63,1.91c4.56,2.57,8.79,7.12,11.19,11.8
		c3.53,6.88,5.32,14.66,7.82,22.06c3.68,10.94,4.48,21.91,2.63,33.12c-0.29,1.74-0.64,3.48-1.05,5.23
		c-2.78,11.75-8.33,22-17.02,29.89c-0.27,0.24-0.53,0.48-0.8,0.71c-10.39,9.21-22.1,15.17-34.72,18.56
		c-9.13,2.45-18.75,3.55-28.69,3.57c-6.37,0.01-12.83-0.79-19.09-2c-9.91-1.92-20.21-3.25-29.39-7.1
		c-12.63-5.31-24.32-12.82-36.49-19.24c-18.27-9.64-26.53-25.77-30.28-43.87c-0.6-2.86-1.08-5.76-1.47-8.7
		c-2.25-16.93-0.51-34.18,7.53-50.08c4.46-8.82,9.11-17.35,17.94-22.8c0.31,0.61,0.62,1.22,0.92,1.83
		c4.03,8.1,7.72,16.43,15.7,21.56c2.12,1.37,4.25,2.73,6.4,4c8.19,4.83,16.76,8.37,27.28,6.37c13.85-2.64,25.12-20.29,20.54-33.61
		c-3.23-9.4-9.47-15.5-17.37-19.36c-3.25-1.59-6.77-2.8-10.48-3.7c-7.92-1.93-16.27-2.06-25.13-3.07c0.32-1.66,0.61-3.33,0.89-5.02
		c1.27-7.47,2.34-15.14,4.58-22.46c3.73-12.25,9.25-23.91,20.71-31.09c8.35-5.24,17.32-9.98,27.43-9.65
		c12.19,0.39,22.79,3.66,30.58,11.8c2.87,2.99,5.36,6.63,7.41,11.03c0.49,1.04,0.92,2.08,1.3,3.12c0.39,1.08,0.73,2.16,1.01,3.24
		c3.13,12.01-0.79,23.58-10.97,32.13c-2.16,1.82-4.9,2.87-7.83,3.23c-8.67,1.07-18.99-3.9-20.93-12.97
		c-1.58-7.38,0.47-13.45,4.28-19.41c2.17-3.38,3.08-6.76,0.12-10.39c-0.57-0.7-1.17-1.29-1.79-1.78c-5.58-4.39-12.88-0.57-14.7,5.18
		c-2.5,7.89-4.94,16.12-5.29,24.29c-0.25,5.93,0.95,11.28,3.59,15.84c2.68,4.65,6.86,8.5,12.52,11.35
		c4.91,2.47,10.04,4.68,15.28,5.65c3.51,0.65,7.07,0.75,10.65-0.02c9.6-2.06,18.24-7.13,24.19-15.63
		c7.81-11.14,12.17-23.22,9.17-36.93c-0.49-2.25-1.01-4.49-1.61-6.71c-1.6-5.97-3.73-11.74-7.3-16.77
		c-1.36-1.91-2.93-3.72-4.76-5.39c-7.45-6.8-15.4-12.67-25.06-15.88c-1.54-0.52-3.13-0.96-4.77-1.33
		c-10.11-2.29-20.12-3.44-30.19-1.04c-0.7,0.17-1.4,0.35-2.09,0.54c-11.47,3.17-21.2,9.53-29.65,17.43c-1.94,1.8-3.8,3.7-5.61,5.65
		c-10.84,11.73-18.66,25.7-22.43,41.48c-1.71,7.15-3.41,14.34-1.41,21.92c0.73,2.76,1.44,6.34-2.46,8.66
		c-11.43,6.78-20.09,16.49-28.36,26.69c-0.6,0.75-1.21,1.5-1.81,2.25c-11.52,14.38-18.27,30.18-19.73,47.26
		c-0.57,6.74-0.32,13.68,0.78,20.81c0.22,1.39,0.45,2.77,0.71,4.14c4.57,24.49,15.65,46.1,33.91,63.8
		c13.83,13.41,30.31,21.98,48.68,27.59c21.61,6.59,43.39,8.41,65.69,5.05c14.57-2.2,28.49-6.55,41.91-12.38
		c0.52-0.22,1.04-0.45,1.56-0.68c7-3.11,13.43-7.1,19.45-11.66c4.55-3.44,8.87-7.21,13.03-11.18c2.61-2.49,5.08-5.08,7.32-7.8
		c4.67-5.64,8.42-11.84,10.65-18.91C469.83,365.08,470.24,363.5,470.58,361.87z M322.23,246.71c0.87,0.79,1.57,1.71,2.07,2.68
		c1.28,2.49,1.17,5.34-1.12,7.31c-0.92,0.79-2.63,1.06-4.37,0.98c-1.3-0.07-2.62-0.33-3.62-0.74c-6.74-2.7-9.47-8.91-11.91-15.68
		C310.4,241.13,316.85,241.81,322.23,246.71z"/>
	<path fill="#fff" d="M896.55,332.12c3.62-2.05,7.55-3.56,11.31-5.37c0.07-0.04,0.15-0.07,0.22-0.11c14.59-7.06,27.38-16.53,39.66-27.19
		c11.8-10.27,20.06-22.03,22.99-37.23c0.99-5.16,1.55-11.13-0.09-15.91c-2.38-6.96-8.05-11.01-14.2-12.56
		c-4.19-1.06-8.59-0.97-12.34,0.15c-0.53,0.16-1.06,0.32-1.59,0.5c-7.17,2.31-14.03,5.7-20.87,9.13c-1.52,0.76-3.04,1.52-4.56,2.27
		c-1.11,0.55-2.22,1.1-3.33,1.63c-3.93,1.88-7.51,4.49-11.26,6.76c1.39-4.36,2.84-8.67,4.32-12.95c3.08-8.93,6.3-17.69,9.49-26.43
		c1.56-4.24,3.11-8.48,4.63-12.73c0.58-1.62,1.21-3.23,1.86-4.84c3.47-8.61,7.34-17.17,5.22-27.12c-0.48-2.26-1.02-4.45-1.69-6.56
		c-1.81-5.79-4.59-10.98-9.79-15.4c-1.57-1.34-3.16-2.57-4.77-3.69c-15.86-11.15-33.37-12.32-51.99-6.83
		c-0.1,0.03-0.2,0.06-0.31,0.09c-6.03,1.8-13.11,4.57-16.54,9.21c-8.02,10.84-10.17,23.43-4.11,36.57c1.68,3.65,4.41,6.79,7.7,8.9
		c3.88,2.49,8.55,3.54,13.23,2.29c3.05-0.82,6.11-2.62,8.96-5.64c3.69-3.91,4.24-9,1.69-13.27c-0.43-0.74-0.96-1.46-1.59-2.14
		c-2.11-2.29-4.22-4.68-5.77-7.35c-2.98-5.12-1.74-10.05,2.93-12.37c1.69-0.85,3.7-1.21,5.6-1.46c6.95-0.92,14.03-0.2,19.17,4.33
		c0.24,0.21,0.48,0.44,0.72,0.67c4.59,4.55,5.09,11.23,2.72,17.6c-0.87,2.35-1.73,4.7-2.58,7.05c-2.83,7.79-5.64,15.58-9.01,23.12
		c-2.05,4.59-5.25,9.36-9.23,12.26c-0.21,0.15-0.42,0.3-0.63,0.44c-5.45,3.8-11.61,5.73-18.03,6.67c-3.54,0.52-7.16,0.73-10.78,0.79
		c-4.36,0.07-8.73-0.01-13.1-0.09c-8.36-0.15-16.72-0.33-25,0.43c-8.94,0.81-18.37,2.9-26.3,6.94c-3.92,2-7.62,4.22-11.06,6.7
		c-11.82,8.51-20.45,20.02-23.46,35.68c-0.14,0.74-0.28,1.49-0.41,2.23c-1.17,6.51-1.96,13.12-2.2,19.71
		c-0.11,2.99,0.5,6.01,1.02,9.03c0.35,2.03,0.67,4.06,0.71,6.09c0.17,9.06,4.68,16.44,9.28,23.45c3.44,5.25,8.37,9.82,13.41,13.68
		c6.54,5,13.76,7.32,21.51,7.68c3.44,0.17,6.99-0.05,10.62-0.58c6.44-0.94,11.95-3.11,16.6-6.7c2.38-1.84,4.53-4.05,6.47-6.66
		c0.97-1.3,1.86-2.62,2.68-3.96c3.48-5.71,5.68-11.9,6.58-18.92c0.85-6.56-0.77-13.68-4.23-19.58c-0.93-1.59-2-3.09-3.19-4.47
		c-2.02-2.34-4.38-4.32-7.04-5.77c-2.74-1.5-5.53-2.77-8.38-3.73c-0.71-0.24-1.42-0.46-2.13-0.66c-2.6-0.74-5.27-1.21-8.03-1.37
		c-6.69-0.39-12.86,0.95-18.34,5.5c-1.42,1.18-2.64,2.54-3.64,4.02c-5.3,7.72-5.22,18.92-1.21,26.75
		c3.29,6.44,8.54,10.25,14.24,9.29c3.15-0.53,6.02-1.39,8.47-2.92c2.84-1.74,5.11-4.36,6.62-8.35c0.19-0.5,0.34-0.99,0.46-1.47
		c0.66-2.65,0.32-5.02-0.38-7.66c-0.45-1.68-1.04-3.47-1.61-5.51c3.15,0.76,6.09,0.65,7.73,2.07c0.05,0.04,0.1,0.09,0.15,0.13
		c0.88,0.8,1.62,1.83,2.23,2.95c0.73,1.3,1.3,2.73,1.76,4.09c2.71,7.95,1.49,15.84-4.7,21.24c-5.4,4.71-11.79,6.24-18.44,5.6
		c-2.61-0.24-5.27-0.83-7.92-1.68c-4.15-1.33-8.3-2.6-10.72-6.97c-10.14-18.29-13.2-36.9-2.98-56.19c1.51-2.86,3.16-6.04,5.62-7.92
		c1.54-1.18,3.12-2.22,4.74-3.13c9.79-5.55,20.85-6.53,32.13-6.07c0.99,0.04,1.99,0.1,2.98,0.19c4.48,0.37,8.95,1.1,13.44,1.51
		c0.57,0.06,1.15,0.11,1.72,0.15c5.91,0.43,11.84,0.77,17.81,1.11c3.81,0.2,7.63,0.41,11.49,0.63c-0.41,1.45-0.57,2.25-0.86,3.01
		c-3.83,10.01-7.68,20.01-11.52,30.02c-5.14,13.39-10.28,26.79-15.4,40.19c-0.96,2.51-1.92,5.03-2.88,7.54
		c-4.63,12.14-9.23,24.29-13.84,36.44c-3.13,8.27-6.26,16.54-9.4,24.81c-2.62,6.91-5.25,13.83-7.88,20.74
		c-1.82,4.78-0.94,6.47,4.13,6.53c8.16,0.1,16.33-0.15,24.49,0.1c4.48,0.13,7.02-1.69,8.57-5.76c1.3-3.39,2.6-6.79,3.91-10.18
		c4.22-10.93,8.49-21.84,12.77-32.74c1.97-5.02,3.94-10.06,6.35-14.87c0.63-1.25,2.9-2.23,4.42-2.24c0.8-0.01,2.01,2.25,2.35,3.65
		c0.89,3.65,1.66,7.36,2.03,11.09c0.58,5.66,1.6,11.14,3.14,16.41c3.04,10.43,8.06,20.03,15.47,28.64c1.63,1.89,3.58,4.02,5.81,4.77
		c7.22,2.46,12.56-2.12,16.58-6.76c5.99-6.91,11.92-13.92,16.96-21.56c2.89-4.38,5.5-8.97,7.64-13.87c1.26-2.86,2.24-4.63,2.75-5.84
		c0.72-1.68,0.55-2.29-1.01-3.23c-1.17-0.7-3.11-1.59-6.03-3.24c-2.98-1.69-4.71-0.95-6.34,1.98c-1.39,2.49-2.77,5.02-4.31,7.42
		c-1.12,1.74-2.31,3.41-3.64,4.96c-1.87,2.17-5.17,3.99-7.98,4.24c-3.17,0.27-3.53-3.18-4.46-5.97
		c-5.62-16.88-4.93-34.66-7.62-51.94C893.91,334.98,895.31,332.83,896.55,332.12z M881.12,314.41c-0.46,0.09-0.98-0.11-2.95-0.38
		c6.85-9.34,13.31-18.39,19.83-27.2c2.96-4.01,5.93-7.96,8.96-11.88c1.97-2.54,4.24-4.52,6.75-5.95c0.01,0,0.01,0,0.01,0
		c4.54-2.64,9.88-3.5,15.69-2.76c0.44,0.06,0.87,0.15,1.28,0.28c5.37,1.72,7.79,9.52,4.1,14.7c-3.55,4.97-7.48,9.35-11.74,13.17
		C911.41,304.85,897.24,311.22,881.12,314.41z"/>
	<path fill="#fff" d="M708.46,239.76c-5.85-0.18-11.92,1.76-17.64,3.53c-16.93,5.25-28.19,17.99-38.45,31.29
		c-8.16,10.59-14.76,22.38-22.17,33.56c-0.74,1.12-2.27,1.71-3.43,2.54c-0.65-1.83-0.59-2.65-0.32-3.4
		c6.07-16.64,10.09-33.58,7.51-51.47c-0.83-5.77-0.66-11.92-6.89-15.41c-8.86-4.96-21.07-2.82-27.75,2.64
		c-8.51,6.96-16.47,14.73-23.9,22.85c-6.28,6.87-11.6,14.65-17.09,22.2c-3.13,4.3-5.77,8.95-8.63,13.46
		c-0.92-0.36-0.74-0.29-1.66-0.64c2.72-15.97,6.51-31.83,4.01-48.24c-0.76-4.97-2.39-7.68-7.35-7.07
		c-4.77,0.58-9.37,2.51-14.05,3.83c-11.82,3.34-20.88,11.16-29.18,19.48c-9.66,9.68-16.85,21.38-22.07,34.1
		c-2.55,6.22-4.16,12.64-1.17,19.33c1.65,3.71,3.99,4.56,7.07,1.99c1.38-1.15,2.68-2.53,3.6-4.06
		c7.42-12.34,14.66-24.78,22.14-37.08c1.69-2.78,3.84-5.43,6.28-7.56c1.19-1.04,3.55-0.75,5.38-1.07c0.15,2.28,1.12,4.91,0.31,6.78
		c-5.85,13.69-11.89,27.31-18.2,40.8c-9.72,20.79-19.82,41.41-29.53,62.2c-3.58,7.67-7.08,15.46-9.64,23.5
		c-2.75,8.64,4.79,20.19,13.7,22.45c7.98,2.02,17.3-2.23,21.98-10.67c5.79-10.44,12.28-20.49,18.48-30.69
		c14.54-23.9,29.01-47.85,43.68-71.67c8.49-13.78,17.39-27.31,25.91-41.07c2.19-3.53,5.31-5.08,8.55-3.31
		c3.39,1.84,5.18,5.5,3.61,9.73c-4.38,11.77-8.61,23.6-13.25,35.27c-11.61,29.14-23.53,58.15-35.04,87.33
		c-2.06,5.23-3.48,10.95-3.87,16.53c-0.43,6.15,3.69,9.45,9.87,9.46c1.83,0,3.69,0.21,5.49-0.04c6.58-0.9,12.85-2.34,16.28-9.09
		c1.85-3.64,4.17-7.03,6.23-10.57c9.41-16.11,18.85-32.21,28.21-48.35c9.02-15.58,18.03-31.17,26.9-46.84
		c8.63-15.24,18.32-29.59,32.94-39.82c1.7-1.19,4.07-1.43,6.13-2.11c0.58,1.99,1.53,3.95,1.68,5.97c0.7,9.3-4.51,17.06-7.76,25.05
		c-12.21,29.98-25.6,59.47-38.14,89.32c-3.89,9.26-5.29,18.9,0.82,28.29c3.96,6.09,14.25,11.62,22.56,5.23
		c13.64-10.5,26.9-21.44,37.58-34.97c5.53-7.01,9.68-15.15,14.06-23c0.77-1.38,0.21-4.42-0.9-5.65c-1.07-1.18-4.3-2-5.44-1.25
		c-4.75,3.16-9.61,6.48-13.41,10.66c-5.03,5.55-9.02,12.03-13.67,17.95c-0.79,1-2.66,1.15-4.03,1.69c-0.27-1.53-1.15-3.26-0.71-4.55
		c1.7-4.93,3.61-9.81,5.82-14.53c13.54-28.95,27.35-57.77,40.71-86.79c5.16-11.22,6.27-23.14,2.23-35.04
		C720.54,245.89,716.09,239.99,708.46,239.76z"/>
	<path fill="#fff" d="M1109.48,228.7c-2.55-0.3-5.08-0.4-7.54-0.17c-4.42,0.41-8.64,1.85-12.46,4.99c-6.91,5.65-9.84,5.88-15.77,0.98
		c-1.11-0.92-2.26-1.68-3.45-2.32c-4.24-2.25-8.91-2.82-13.61-2.6c-12.21,0.56-22.62,6.52-32.21,13.32
		c-11.41,8.08-21.39,17.85-30.25,28.83c-10.11,12.53-19.45,25.47-27.08,39.7c-2.5,4.67-4.79,9.41-6.9,14.22
		c-2.57,5.82-4.87,11.76-6.93,17.77c-2.08,6-3.92,12.08-5.59,18.23c-3.08,11.35-4.71,22.96-3.49,34.52
		c0.4,3.78,1.11,7.55,2.17,11.31c1.69,6.01,4.34,11.52,8.56,15.51c3,2.84,6.8,4.92,11.62,5.87c8.67,1.7,16.96-0.59,24.99-3.86
		c0.15-0.06,0.31-0.13,0.46-0.2c9.38-3.91,17.21-10.13,24.7-16.81c2.39-2.14,3.97-2.49,4.93-0.61c0.29,0.57,0.52,1.34,0.7,2.32
		c0.62,3.35,1.44,6.69,1.85,10.07c0.82,6.92,4.84,11.88,9.84,11.37c9.11-0.92,17.5-4.44,23.42-11.18
		c8.08-9.2,15.18-19.31,22.25-29.35c2.57-3.65,4.41-8.05,5.57-12.38c0.94-3.53,0.34-7.57-3.42-9.77c-3.72-2.18-6.42,0.06-8.81,2.62
		c-0.65,0.7-1.25,1.45-1.81,2.23c-5.87,8.13-11.61,16.14-18.35,25.52c-2.12-3.75-4.29-6.34-5.09-9.29
		c-1.35-4.98-4.98-10.58-1.02-15.28c9.24-10.96,14.96-23.82,21.34-36.39c5.76-11.33,10.5-22.92,13.78-34.88
		c3.34-12.11,5.2-24.61,5.12-37.62c-0.03-3.75,0.94-7.06,6.66-7.91c3.54-0.52,6.81-1.99,9.77-3.99c0.28-0.18,0.56-0.37,0.83-0.57
		c3.29-2.35,9.43-1.91,9.66-7.88c0.15-3.83,0.51-7.75-0.17-11.46C1113.41,231.67,1111.14,228.9,1109.48,228.7z M1051.35,297.71
		c-1.85,4.82-3.86,9.56-6.01,14.22c-5.22,11.35-11.25,22.25-17.84,32.84c-6.23,10.04-12.95,19.79-19.93,29.36
		c-6.43,8.83-14.97,16.14-22.7,23.99c-1.44,1.46-3.65,2.14-5.47,3.25c-4.04,2.45-8.33,1.28-8.34-5.18
		c-0.01-2.77,0.18-5.52,0.55-8.22c1-7.64,3.34-15.04,6.26-22.21c3.17-7.8,6.52-15.51,10.13-23.1c1.54-3.26,3.13-6.49,4.79-9.68
		c3.69-7.19,7.66-14.23,12-21.06c1.42-2.26,2.88-4.48,4.39-6.69c0.36-0.53,0.73-1.06,1.09-1.59c4.1-5.91,8.48-11.63,12.97-17.26
		c5.43-6.82,11.04-13.51,16.56-20.24c2.63-3.21,6.37-5.77,10.06-7.79c6.89-3.77,10.35-1.44,10.35,6.42l1.42,0.43
		C1058.24,276.05,1055.42,287.12,1051.35,297.71z"/>
	<path fill="#fff" d="M67.97,304.28c12.5,15.06,30.81,19.87,51.43,7.72c-17.64-17.58-35.31-35.18-53.16-52.98
		C53.63,275.09,59.66,294.27,67.97,304.28z"/>
	<path fill="#fff" d="M1209.76,248.67c17.78,17.82,35.38,35.46,52.97,53.09c10.2-14.72,8.9-32.37-1.15-44.95
		C1249.57,241.77,1230.77,235.93,1209.76,248.67z"/>
	<path fill="#fff" d="M76.43,248.3c17.62,17.64,35.26,35.3,52.82,52.88c10.44-16.22,7.81-34.24-2.37-44.91
		C112.47,241.17,98.19,235.98,76.43,248.3z"/>
	<path fill="#fff" d="M1208.74,310.34c11.67,9.25,27.48,12.58,44.38,1.57c-17.55-17.6-35.15-35.26-52.72-52.89
		C1189.21,276.81,1191.19,296.42,1208.74,310.34z"/>
</g>
<g class="st0">
	<path class="st1" d="M1290.86,261.44c-1.16-3.78-2.31-7.57-3.46-11.36c-0.55-1.48-1.14-2.94-1.77-4.39
		c-4-9.24-8.57-18.63-14.83-26.38c-9.65-11.96-21.82-21.24-36.43-27.18c-18.18-7.39-36.6-9.69-55.95-6.09
		c-3.35,0.62-7.5,3.67-11.02-0.56c-3.06-3.69-6.43-7.11-9.62-10.68c-13.51-15.16-27-30.33-40.52-45.48
		c-6.16-6.9-12.44-13.7-18.57-20.63c-9.62-10.87-19.05-21.9-28.86-32.6c-1.49-1.62-4.57-2.51-6.92-2.52
		c-48.82-0.14-97.65-0.07-146.48-0.19c-2.83-0.01-5.93-0.7-8.44-1.99c-34.97-18.02-70.67-34.34-108.74-44.69
		c-20.94-5.68-42.13-10.47-63.31-15.14c-11.65-2.57-23.5-4.23-35.31-5.98c-8.76-1.3-17.58-2.43-26.42-3.03
		c-10.24-0.71-20.53-0.74-30.8-1.14c-0.83-0.03-1.63-0.7-2.44-1.07h-25c-0.32,0.14-0.63,0.33-0.95,0.51
		c-0.49,0.28-0.99,0.54-1.49,0.56c-10.1,0.4-20.22,0.44-30.3,1.13c-8.99,0.63-17.97,1.77-26.9,3.03c-10.2,1.43-20.46,2.75-30.5,4.98
		c-22.76,5.06-45.57,10.07-68.07,16.14C419.56,37,383.81,53.5,348.67,71.43c-2.49,1.27-5.25,1.94-8.04,1.95
		c-48.98,0.11-97.95,0.05-146.93,0.18c-2.2,0.01-5.09,0.86-6.48,2.39c-9.78,10.71-19.24,21.72-28.83,32.6
		c-3.28,3.72-6.67,7.33-9.98,11.03c-13.74,15.38-27.46,30.78-41.2,46.16c-5.94,6.65-12.01,13.19-17.86,19.92
		c-3.44,3.97-7.44,1.09-10.6,0.47c-19.7-3.87-38.43-1.37-56.85,6.25c-9.78,4.04-17.47,10.76-25.57,17.16
		c-18.52,14.65-26.19,34.99-31.06,56.92l-0.21,0.96c0,0.01,0,0.01-0.01,0.02c-0.53,2.31-1.08,4.62-1.08,6.99v15.45
		c0,2.29,0.34,4.57,1.01,6.76c0.39,1.3,0.79,2.6,1.18,3.89c1.16,3.8,2.32,7.6,3.48,11.4c0.35,1.18,0.71,2.35,1.07,3.53
		c7,23.08,23.08,38.94,42.94,50.63c20.31,11.95,42.74,15.09,66.16,10.41c3.13-0.63,6.93-2.95,10.38,1.2
		c9.16,11.03,18.72,21.74,28.29,32.43c12.9,14.4,25.96,28.66,38.94,42.99c3.56,3.92,7.09,7.86,10.59,11.82
		c6.65,7.54,13.16,15.22,20.02,22.56c1.18,1.27,3.83,1.64,5.8,1.64c47.66,0.09,95.32,0.14,142.98-0.02
		c5.63-0.01,10.59,1.02,15.56,3.72c26.39,14.34,53.89,26.39,82.22,36.09c20.79,7.11,42.36,12.02,63.73,17.33
		c31.54,7.84,63.64,12.62,96.03,14.75c7.22,0.48,14.46,0.65,21.71,0.65h0.03c8.63,0,17.28-0.24,25.91-0.51
		c0.49-0.28,0.99-0.54,1.5-0.56c10.09-0.41,20.21-0.44,30.29-1.14c9-0.62,17.97-1.77,26.9-3.02c10.2-1.43,20.46-2.76,30.5-4.99
		c22.77-5.05,45.57-10.06,68.08-16.14c38.2-10.3,73.95-26.81,109.08-44.73c2.49-1.28,5.25-1.95,8.05-1.95
		c48.97-0.11,97.95-0.05,146.92-0.19c2.2,0,5.09-0.85,6.49-2.38c9.78-10.71,19.23-21.72,28.82-32.6c3.28-3.72,6.68-7.34,9.98-11.03
		c13.74-15.38,27.46-30.79,41.21-46.17c5.94-6.65,12-13.18,17.85-19.91c3.45-3.97,7.44-1.1,10.61-0.47
		c19.69,3.87,38.42,1.36,56.85-6.25c9.78-4.04,17.46-10.76,25.56-17.16c18.53-14.64,26.19-34.98,31.06-56.91
		c0.49-3.12,0.86-6.28,1.09-9.49c0.15-1.97,0.22-3.92,0.22-5.87C1293.06,273.81,1292.29,267.55,1290.86,261.44z M1260.36,304.61
		c-0.07,0.21-0.15,0.41-0.23,0.61c-2.15,5.49-4.98,10.69-8.36,15.5c-0.03,0.04-0.06,0.09-0.09,0.13c-0.26,0.37-0.53,0.74-0.8,1.11
		c-18.89,25.75-56.46,37.49-89.24,19.51c-7.42,8.11-14.93,16.23-22.33,24.44c-3.75,4.15-7.21,8.56-10.97,12.7
		c-13.89,15.31-27.93,30.48-41.77,45.84c-9.94,11.03-19.54,22.37-29.57,33.31c-1.5,1.63-4.57,2.58-6.91,2.59
		c-46.5,0.15-93,0.06-139.5,0.21c-3.46,0.02-7.27,0.82-10.33,2.4c-25.22,12.99-50.8,25.21-77.42,35.02
		c-26.83,9.89-54.26,17.96-82.2,24.06c-12.77,2.79-25.77,4.79-38.76,6.29c-13.51,1.57-27.13,2.53-40.74,3.03
		c-0.06,0.01-0.12,0.01-0.18,0.01c-4.69,0.17-9.39,0.36-14.09,0.54c-14.91,0.57-29.84,1.02-44.7,0.27
		c-21.45-1.09-43.05-1.81-64.18-6.66c-21.47-4.93-43.34-8.41-64.47-14.5c-40.93-11.79-79.98-28.54-117.66-48.44
		c-2.51-1.32-5.31-2.03-8.15-2.04c-46.66-0.11-93.33-0.12-139.99-0.01c-4.21,0.01-6.9-1.04-9.38-4.78
		c-2.98-4.49-7.18-8.18-10.85-12.22c-13.82-15.15-27.67-30.27-41.44-45.46c-11.87-13.1-23.66-26.26-35.44-39.44
		c-5.06-5.65-9.99-11.41-15.14-17.31c-34.55,18.35-66.24,6.34-84.78-13.24c-11.5-12.14-17.01-26.49-18.14-40.59
		c-0.84-10.43,0.72-20.72,4.03-29.87c0.03-0.07,0.05-0.15,0.08-0.23c2.16-5.88,5.04-11.29,8.48-15.95c0.04-0.05,0.08-0.11,0.12-0.16
		c0.03-0.04,0.06-0.09,0.09-0.13c10.46-14.05,24.46-22.72,41.22-26.63c16.58-3.88,27.94-3.42,48.74,6.74
		c7.44-8.21,14.99-16.48,22.48-24.81c3.63-4.04,7.05-8.27,10.71-12.29c10.91-11.99,21.93-23.88,32.83-35.88
		c12.1-13.33,24.5-26.43,35.95-40.31c3.97-4.81,7.81-5.87,13.42-5.85c45.67,0.17,91.34,0.12,137,0.01c2.76-0.01,5.48-0.67,7.94-1.93
		c25.55-13.04,51.4-25.46,78.31-35.48c27.28-10.16,55.32-17.93,83.71-24.15c15.95-3.5,32.32-5.23,48.56-7.31
		c9.85-1.25,19.73-2.1,29.61-2.62c0.08-0.01,0.15-0.01,0.23-0.01c4.7-0.26,9.4-0.43,14.1-0.54c13.32-0.33,26.66-0.15,39.98,0.32
		c22.98,0.8,46.06,1.66,68.67,6.78c22.6,5.12,45.5,9.17,67.75,15.52c40.06,11.42,78.03,28.31,114.95,47.55
		c2.35,1.22,4.95,1.87,7.59,1.87c47,0.11,94,0.12,141,0.01c3.72-0.01,5.96,1.22,8.16,4.26c3.17,4.4,7.09,8.26,10.76,12.29
		c13.92,15.29,27.89,30.52,41.78,45.83c11.99,13.22,23.9,26.49,35.8,39.79c5.04,5.63,9.95,11.39,14.84,17
		c35.36-18.61,67.3-5.76,84.21,12.96c11.38,12.61,17.2,26.14,18.74,39.36c0.01,0.17,0.03,0.33,0.05,0.5
		C1265.58,284.7,1264,295.07,1260.36,304.61z"/>
	<path class="st1" d="M1290.86,261.44c-1.16-3.78-2.31-7.57-3.46-11.36c-0.55-1.48-1.14-2.94-1.77-4.39
		c-4-9.24-8.57-18.63-14.83-26.38c-9.65-11.96-21.82-21.24-36.43-27.18c-18.18-7.39-36.6-9.69-55.95-6.09
		c-3.35,0.62-7.5,3.67-11.02-0.56c-3.06-3.69-6.43-7.11-9.62-10.68c-13.51-15.16-27-30.33-40.52-45.48
		c-6.16-6.9-12.44-13.7-18.57-20.63c-9.62-10.87-19.05-21.9-28.86-32.6c-1.49-1.62-4.57-2.51-6.92-2.52
		c-48.82-0.14-97.65-0.07-146.48-0.19c-2.83-0.01-5.93-0.7-8.44-1.99c-34.97-18.02-70.67-34.34-108.74-44.69
		c-20.94-5.68-42.13-10.47-63.31-15.14c-11.65-2.57-23.5-4.23-35.31-5.98c-8.76-1.3-17.58-2.43-26.42-3.03
		c-10.24-0.71-20.53-0.74-30.8-1.14c-0.83-0.03-1.63-0.7-2.44-1.07h-25c-0.32,0.14-0.63,0.33-0.95,0.51
		c-0.49,0.28-0.99,0.54-1.49,0.56c-10.1,0.4-20.22,0.44-30.3,1.13c-8.99,0.63-17.97,1.77-26.9,3.03c-10.2,1.43-20.46,2.75-30.5,4.98
		c-22.76,5.06-45.57,10.07-68.07,16.14C419.56,37,383.81,53.5,348.67,71.43c-2.49,1.27-5.25,1.94-8.04,1.95
		c-48.98,0.11-97.95,0.05-146.93,0.18c-2.2,0.01-5.09,0.86-6.48,2.39c-9.78,10.71-19.24,21.72-28.83,32.6
		c-3.28,3.72-6.67,7.33-9.98,11.03c-13.74,15.38-27.46,30.78-41.2,46.16c-5.94,6.65-12.01,13.19-17.86,19.92
		c-3.44,3.97-7.44,1.09-10.6,0.47c-19.7-3.87-38.43-1.37-56.85,6.25c-9.78,4.04-17.47,10.76-25.57,17.16
		c-18.52,14.65-26.19,34.99-31.06,56.92l-0.21,0.96c0,0.01,0,0.01-0.01,0.02c-0.53,2.31-1.08,4.62-1.08,6.99v15.45
		c0,2.29,0.34,4.57,1.01,6.76c0.39,1.3,0.79,2.6,1.18,3.89c1.16,3.8,2.32,7.6,3.48,11.4c0.35,1.18,0.71,2.35,1.07,3.53
		c7,23.08,23.08,38.94,42.94,50.63c20.31,11.95,42.74,15.09,66.16,10.41c3.13-0.63,6.93-2.95,10.38,1.2
		c9.16,11.03,18.72,21.74,28.29,32.43c12.9,14.4,25.96,28.66,38.94,42.99c3.56,3.92,7.09,7.86,10.59,11.82
		c6.65,7.54,13.16,15.22,20.02,22.56c1.18,1.27,3.83,1.64,5.8,1.64c47.66,0.09,95.32,0.14,142.98-0.02
		c5.63-0.01,10.59,1.02,15.56,3.72c26.39,14.34,53.89,26.39,82.22,36.09c20.79,7.11,42.36,12.02,63.73,17.33
		c31.54,7.84,63.64,12.62,96.03,14.75c7.22,0.48,14.46,0.65,21.71,0.65h0.03c8.63,0,17.28-0.24,25.91-0.51
		c0.49-0.28,0.99-0.54,1.5-0.56c10.09-0.41,20.21-0.44,30.29-1.14c9-0.62,17.97-1.77,26.9-3.02c10.2-1.43,20.46-2.76,30.5-4.99
		c22.77-5.05,45.57-10.06,68.08-16.14c38.2-10.3,73.95-26.81,109.08-44.73c2.49-1.28,5.25-1.95,8.05-1.95
		c48.97-0.11,97.95-0.05,146.92-0.19c2.2,0,5.09-0.85,6.49-2.38c9.78-10.71,19.23-21.72,28.82-32.6c3.28-3.72,6.68-7.34,9.98-11.03
		c13.74-15.38,27.46-30.79,41.21-46.17c5.94-6.65,12-13.18,17.85-19.91c3.45-3.97,7.44-1.1,10.61-0.47
		c19.69,3.87,38.42,1.36,56.85-6.25c9.78-4.04,17.46-10.76,25.56-17.16c18.53-14.64,26.19-34.98,31.06-56.91
		c0.49-3.12,0.86-6.28,1.09-9.49c0.15-1.97,0.22-3.92,0.22-5.87C1293.06,273.81,1292.29,267.55,1290.86,261.44z M1260.36,304.61
		c-0.07,0.21-0.15,0.41-0.23,0.61c-2.15,5.49-4.98,10.69-8.36,15.5c-0.03,0.04-0.06,0.09-0.09,0.13c-0.26,0.37-0.53,0.74-0.8,1.11
		c-18.89,25.75-56.46,37.49-89.24,19.51c-7.42,8.11-14.93,16.23-22.33,24.44c-3.75,4.15-7.21,8.56-10.97,12.7
		c-13.89,15.31-27.93,30.48-41.77,45.84c-9.94,11.03-19.54,22.37-29.57,33.31c-1.5,1.63-4.57,2.58-6.91,2.59
		c-46.5,0.15-93,0.06-139.5,0.21c-3.46,0.02-7.27,0.82-10.33,2.4c-25.22,12.99-50.8,25.21-77.42,35.02
		c-26.83,9.89-54.26,17.96-82.2,24.06c-12.77,2.79-25.77,4.79-38.76,6.29c-13.51,1.57-27.13,2.53-40.74,3.03
		c-0.06,0.01-0.12,0.01-0.18,0.01c-4.69,0.17-9.39,0.36-14.09,0.54c-14.91,0.57-29.84,1.02-44.7,0.27
		c-21.45-1.09-43.05-1.81-64.18-6.66c-21.47-4.93-43.34-8.41-64.47-14.5c-40.93-11.79-79.98-28.54-117.66-48.44
		c-2.51-1.32-5.31-2.03-8.15-2.04c-46.66-0.11-93.33-0.12-139.99-0.01c-4.21,0.01-6.9-1.04-9.38-4.78
		c-2.98-4.49-7.18-8.18-10.85-12.22c-13.82-15.15-27.67-30.27-41.44-45.46c-11.87-13.1-23.66-26.26-35.44-39.44
		c-5.06-5.65-9.99-11.41-15.14-17.31c-34.55,18.35-66.24,6.34-84.78-13.24c-11.5-12.14-17.01-26.49-18.14-40.59
		c-0.84-10.43,0.72-20.72,4.03-29.87c0.03-0.07,0.05-0.15,0.08-0.23c2.16-5.88,5.04-11.29,8.48-15.95c0.04-0.05,0.08-0.11,0.12-0.16
		c0.03-0.04,0.06-0.09,0.09-0.13c10.46-14.05,24.46-22.72,41.22-26.63c16.58-3.88,27.94-3.42,48.74,6.74
		c7.44-8.21,14.99-16.48,22.48-24.81c3.63-4.04,7.05-8.27,10.71-12.29c10.91-11.99,21.93-23.88,32.83-35.88
		c12.1-13.33,24.5-26.43,35.95-40.31c3.97-4.81,7.81-5.87,13.42-5.85c45.67,0.17,91.34,0.12,137,0.01c2.76-0.01,5.48-0.67,7.94-1.93
		c25.55-13.04,51.4-25.46,78.31-35.48c27.28-10.16,55.32-17.93,83.71-24.15c15.95-3.5,32.32-5.23,48.56-7.31
		c9.85-1.25,19.73-2.1,29.61-2.62c0.08-0.01,0.15-0.01,0.23-0.01c4.7-0.26,9.4-0.43,14.1-0.54c13.32-0.33,26.66-0.15,39.98,0.32
		c22.98,0.8,46.06,1.66,68.67,6.78c22.6,5.12,45.5,9.17,67.75,15.52c40.06,11.42,78.03,28.31,114.95,47.55
		c2.35,1.22,4.95,1.87,7.59,1.87c47,0.11,94,0.12,141,0.01c3.72-0.01,5.96,1.22,8.16,4.26c3.17,4.4,7.09,8.26,10.76,12.29
		c13.92,15.29,27.89,30.52,41.78,45.83c11.99,13.22,23.9,26.49,35.8,39.79c5.04,5.63,9.95,11.39,14.84,17
		c35.36-18.61,67.3-5.76,84.21,12.96c11.38,12.61,17.2,26.14,18.74,39.36c0.01,0.17,0.03,0.33,0.05,0.5
		C1265.58,284.7,1264,295.07,1260.36,304.61z"/>
	<path class="st1" d="M1243.91,245.54c-15.13-20.63-43.95-36.09-84.36-13.09c-7.45-8.1-14.96-16.22-22.41-24.39
		c-5.9-6.47-11.76-12.97-17.59-19.5c-13.52-15.15-27.01-30.32-40.51-45.48c-8.02-9-16.05-17.98-24.01-27.01
		c-2.6-2.95-5.24-4.76-9.68-4.74c-45.82,0.21-91.65,0.17-137.48,0.04c-3.25-0.01-6.47-0.75-9.38-2.2
		c-8.65-4.31-16.94-9.35-25.6-13.66c-24.04-11.97-48.8-22.28-74.55-29.96c-17.42-5.2-34.91-10.31-52.61-14.43
		c-1.98-0.46-3.98-0.91-5.97-1.35c-7.32-1.61-14.73-2.81-22.17-3.85c-8.95-1.25-17.95-2.26-26.9-3.42
		c-12.55-1.62-25.15-3.68-37.75-3.82c-21.7-0.24-43.46-1.5-65.12,1.69c-14.12,2.08-28.45,2.82-42.5,5.21
		c-19.63,3.34-39.37,6.62-58.55,11.84c-21.37,5.82-42.25,13.55-63.19,20.88c-19.77,6.91-38.88,15.65-56.72,26.62
		c-7.36,4.52-14.94,6.81-23.84,6.73c-43.82-0.4-87.65-0.13-131.48-0.29c-3.9-0.01-6.53,1.22-8.97,4.01
		c-9.87,11.31-19.73,22.63-29.78,33.78c-13.84,15.35-27.86,30.53-41.76,45.83c-3.76,4.15-7.27,8.52-11.01,12.68
		c-7.51,8.33-15.09,16.6-22.6,24.84c-38.75-22.17-67.75-8.99-84.11,12.69C5.74,255.24,1.42,265.9,0.45,276.66
		c-0.02,0.16-0.03,0.32-0.04,0.47c-1.11,13.59,3.11,27.34,12.83,40.24c16.61,22.03,44.72,34.65,84.46,13.17
		c7.35,8.01,14.75,16.02,22.1,24.08c5.9,6.46,11.76,12.97,17.59,19.5c13.52,15.14,27.01,30.31,40.51,45.47
		c8.01,9,16.04,17.98,24.01,27.02c2.6,2.95,5.24,4.75,9.67,4.73c45.83-0.21,91.66-0.17,137.48-0.03c3.26,0.01,6.48,0.74,9.39,2.2
		c8.65,4.31,16.96,9.31,25.59,13.66c28.84,14.55,58.91,26.22,89.96,34.85c12.18,3.38,24.53,6.25,36.95,8.78
		c9.35,1.91,18.73,3.62,28.12,5.22c0.04,0.01,0.07,0.01,0.11,0.02c21.12,3.6,42.47,6.49,63.83,7.85
		c18.18,1.15,36.56,0.32,54.78-0.84c18.17-1.16,36.32-3.3,54.33-5.98c16.78-2.5,33.46-5.91,50.03-9.59
		c24.6-5.46,48.32-13.77,71.73-23.12c19.49-7.79,38.6-16.24,56.68-26.98c6.96-4.13,14.24-6.47,22.85-6.38
		c43.99,0.46,87.99,0.17,131.98,0.29c3.61,0.01,6.27-0.81,8.64-3.61c6.83-8.04,13.75-16.01,20.82-23.84
		c16.73-18.53,33.59-36.94,50.35-55.44c4.09-4.51,7.89-9.29,11.97-13.81c7.31-8.08,14.74-16.07,22.1-24.07
		c39.33,21.6,68.04,8.76,84.45-13.18c7.68-10.26,12.02-21.05,12.85-31.99c0.02-0.16,0.03-0.32,0.04-0.48
		C1257.5,271.75,1253.35,258.42,1243.91,245.54z M521.2,503.31c-9.75-2.01-19.42-4.43-29.05-7.01c-6.3-1.69-12.57-3.45-18.84-5.21
		c-1.71-0.48-3.41-0.95-5.12-1.44c-10.57-2.96-21.16-6.03-31.19-10.32c-20.75-8.88-40.99-18.95-61.42-28.58
		c-5.8-2.73-11.45-5.78-17.29-8.41c-1.7-0.77-3.82-0.84-5.74-0.84c-45.84-0.05-91.67,0-137.5-0.14c-2.37-0.01-5.46-0.85-6.98-2.46
		c-7.56-8.04-14.66-16.53-22.03-24.76c-6.95-7.76-14.07-15.37-21.04-23.11c-14.71-16.32-29.34-32.72-44.08-49.01
		c-7.65-8.46-15.47-16.76-23.22-25.14c-31.41,24.83-59.56,14.34-72.29-0.08c-12.66-14.35-16.74-29.81-13.99-44.22
		c0.02-0.15,0.05-0.29,0.08-0.43c1.92-9.62,6.88-18.75,14.35-26.76c15.44-16.57,45.76-22.06,71.83,0.75
		c8.1-9.1,16.19-18.22,24.3-27.32c3.41-3.83,6.81-7.66,10.28-11.44c11.52-12.56,23.17-25,34.59-37.65
		c13.49-14.95,26.81-30.05,40.15-45.14c2.11-2.39,4.37-3.47,7.72-3.46c45.99,0.12,91.99,0.11,137.99,0
		c2.69-0.01,5.33-0.64,7.74-1.83c11.1-5.5,21.81-11.87,33.12-16.87c19.58-8.64,39.52-16.46,59.27-24.7
		c2.71-1.13,5.44-2.19,8.19-3.19c17.08-6.2,34.84-10.05,52.51-14.01c0.06-0.02,0.13-0.04,0.2-0.05c1.37-0.31,2.74-0.62,4.11-0.93
		c16.08-3.65,32.69-4.98,49.06-7.36c25.12-3.64,50.41-4.88,75.74-3.85c15.94,0.64,31.87,2.23,47.73,4.03
		c13.74,1.56,27.42,3.65,41,6.25c11.3,2.17,22.61,4.43,33.79,7.15c3.96,0.97,7.91,2,11.83,3.1c3.78,1.06,7.55,2.17,11.31,3.32
		c0.02,0,0.04,0,0.05,0.01c18.57,5.66,36.78,12.39,54.3,20.91c17.98,8.74,35.92,17.57,53.96,26.21c2.27,1.09,4.97,1.81,7.48,1.81
		c46,0.11,92,0.13,137.99-0.01c3.57-0.01,5.89,1.23,8.11,3.73c8.65,9.77,17.42,19.44,26.12,29.16
		c13.86,15.51,27.71,31.04,41.58,46.54c5.94,6.65,11.88,13.31,17.9,19.89c7.82,8.54,15.72,17,23.57,25.49
		c28.15-23.76,58-15.84,71.99-0.29c12.57,13.97,17.1,29.64,14.06,44.74c-0.01,0.06-0.03,0.12-0.04,0.19
		c-1.9,9.23-6.64,18.24-14.1,26.51c-13.86,15.38-43.64,23.56-72.15-0.44c-8.09,9.12-16.18,18.26-24.3,27.38
		c-3.4,3.83-6.83,7.65-10.29,11.42c-11.53,12.55-23.18,25-34.6,37.65c-13.37,14.83-26.58,29.81-39.79,44.79
		c-2.23,2.53-4.6,3.68-8.14,3.67c-45.83-0.13-91.66-0.12-137.49,0c-2.89,0-5.74,0.66-8.32,1.93c-12.7,6.27-25.16,13.02-37.88,19.25
		c-20.19,9.88-41.01,18.01-62.33,24.73c-11.82,3.73-23.79,7.04-35.88,9.97c-5.35,1.29-10.7,2.63-16.06,3.91
		c-7.66,1.83-15.34,3.55-23.09,4.89c-13.72,2.38-27.71,3.19-41.48,5.32c-23.73,3.66-47.61,3.29-71.44,2.73
		c-13.61-0.32-27.22-2.15-40.75-3.87C551.87,508.44,536.41,506.45,521.2,503.31z"/>
	<path class="st1" d="M1066.62,233.01c-0.22-1.39-0.45-2.77-0.71-4.14c-4.57-24.49-15.65-46.1-33.9-63.8
		c-13.84-13.41-30.31-21.99-48.69-27.59c-21.61-6.59-43.38-8.41-65.69-5.05c-14.56,2.19-28.47,6.54-41.9,12.38
		c-0.53,0.22-1.05,0.45-1.57,0.68c-7.01,3.11-13.43,7.1-19.46,11.65c-4.54,3.44-8.86,7.21-13.02,11.18
		c-2.62,2.49-5.08,5.08-7.32,7.81c-4.67,5.64-8.42,11.84-10.65,18.91c-0.49,1.54-0.9,3.12-1.24,4.75
		c-1.56,7.51-2.08,15.23-3.45,22.79c-0.14,0.79-0.26,1.58-0.36,2.37c-1.33,10.36,0.9,20.43,4.06,29.98
		c3.94,11.9,9.95,23.11,15.04,34.63c0.49,1.11,0.82,2.29,1.39,3.9c-5.09,0-9.61-0.36-14.06,0.09c-4.54,0.45-9.08,0.99-13.59,1.71
		c-2.44,0.38-4.87,0.82-7.29,1.32c-4.66,0.97-9.07,2.42-13.21,4.29c-5.1,2.31-9.8,5.28-14.05,8.8c-2.92,2.42-5.63,5.1-8.12,8.02
		c-1.31,1.52-2.55,3.11-3.73,4.75c-1.19,1.67-2.31,3.36-3.35,5.07c-2.55,4.22-4.63,8.59-6.18,13.09
		c-1.85,5.37-2.97,10.93-3.29,16.67c-0.37,6.38,0.26,12.99,1.97,19.8c2.36,9.46,6.87,17.6,12.99,24.37c0.88,0.98,1.79,1.91,2.74,2.8
		c6.57,6.17,14.69,10.15,24.55,11.27c3.02,0.34,5.9,0.39,8.67,0.16c9.92-0.8,18.32-5.14,25.7-12.19c2.09-2,3.87-4.17,5.36-6.51
		c3.16-4.91,5.06-10.55,5.93-16.87c1.58-11.52-4.16-27.06-15.22-31.83c-6.86-2.96-12.22-1.32-16.96,2.98
		c-3.8,3.45-5.09,8.46-3.04,13.52c1.81,4.49,3.67,9.1,6.34,13.11c6.01,9-0.6,16.66-7.54,18.56c-7.44,2.03-16.5-2.42-20.94-10.17
		c-1.28-2.25-2.46-4.52-3.45-6.84c-2.78-6.48-4.14-13.28-2.53-20.7c0.66-3.05,1.44-6,2.65-8.74c1.44-3.32,3.52-6.33,6.77-8.88
		c0.79-0.62,1.58-1.19,2.38-1.74c2.4-1.61,4.87-2.9,7.45-3.92c3.22-1.27,6.62-2.09,10.27-2.57c8.9-1.16,17.65-3.76,26.56-4.5
		c12.22-1,24.53-0.76,36.8-1.21c0.7-0.03,1.4-0.05,2.1-0.08c3.59-0.18,7.19-0.47,10.66-1.24c16.37-3.64,29.54-12.05,40.64-24.96
		c11.64-13.55,16.42-28.97,16.58-46.12c0.12-12.31-3.82-23.77-9.48-34.74c-2.93-5.67-6.07-10.87-11.38-14.6
		c-8.26-5.81-17.76-7.46-27.46-7.84c-1.52-0.06-3.07-0.07-4.63-0.01c-3.41,0.14-6.85,0.64-9.92,1.77
		c-9.21,3.39-17.42,8.7-22.03,17.91c-5.13,10.23-6.42,20.71-1.89,31.68c2.56,6.2,6.97,10.46,11.88,14.76
		c3.34,2.92,7.98,4.85,12.88,5.64c0.01,0,0.01,0,0.01,0c5.93,0.94,12.22,0.21,16.97-2.48c1.32-0.74,2.52-1.63,3.56-2.68
		c7.75-7.79,11.93-18.89,8.26-29.44c-1.01-2.9-2.62-5.77-4.91-8.51c-1.72-2.05-5.98-2.96-8.96-2.75c-3.72,0.26-6.6,2.7-5.53,7.39
		c0.36,1.58,0.53,3.22,0.76,4.83c0.45,3.18-0.24,6.22-2.23,8.17c-0.57,0.56-1.24,1.02-2.02,1.38c-0.89,0.4-1.74,0.7-2.54,0.89
		c-5.16,1.26-8.61-1.46-10.18-4.38c-0.03-0.06-0.06-0.12-0.09-0.18c-2.04-3.98-1.36-7.86-1.2-12.12c0.21-5.93,5.1-11.04,10.69-14.31
		c4.59-2.67,9.65-4.12,13.01-3.79c13.32,1.33,23.03,7.93,26.76,21.45c0.12,0.42,0.24,0.85,0.37,1.28c1.27,4.32,2.92,8.85,2.37,13.01
		c-1.71,12.85-5.89,24.98-13.7,35.69c-4.43,6.07-13.81,11.32-22.06,11.94c-2.12,0.15-4.17,0.01-6.04-0.51
		c-6.49-1.79-12.98-4.05-19.01-7.05c-1.24-0.6-2.45-1.24-3.64-1.91c-4.56-2.58-8.78-7.13-11.18-11.8
		c-3.53-6.88-5.32-14.66-7.82-22.07c-3.69-10.93-4.49-21.9-2.64-33.11c0.29-1.74,0.64-3.48,1.05-5.23
		c2.78-11.75,8.33-22,17.02-29.89c0.26-0.24,0.53-0.48,0.8-0.7c10.39-9.22,22.1-15.18,34.73-18.56c9.13-2.46,18.74-3.57,28.68-3.59
		c6.37-0.01,12.83,0.79,19.09,2.01c9.91,1.91,20.21,3.24,29.39,7.1c12.63,5.31,24.33,12.82,36.5,19.24
		c18.25,9.64,26.52,25.75,30.28,43.86c0.59,2.86,1.08,5.77,1.47,8.71c2.24,16.93,0.5,34.17-7.54,50.08
		c-4.45,8.81-9.11,17.35-17.93,22.8c-0.31-0.61-0.62-1.22-0.92-1.84c-4.05-8.1-7.73-16.43-15.71-21.56
		c-2.12-1.36-4.24-2.72-6.39-3.99c-8.19-4.82-16.77-8.37-27.28-6.37c-13.85,2.63-25.12,20.28-20.55,33.61
		c3.23,9.39,9.47,15.5,17.38,19.36c3.24,1.58,6.77,2.79,10.48,3.7c7.91,1.93,16.26,2.06,25.12,3.07c-0.32,1.66-0.61,3.33-0.89,5.02
		c-1.27,7.47-2.34,15.14-4.57,22.46c-3.73,12.25-9.26,23.91-20.72,31.09c-8.35,5.24-17.31,9.98-27.43,9.65
		c-12.18-0.39-22.78-3.66-30.58-11.8c-2.87-2.99-5.36-6.63-7.41-11.03c-0.49-1.04-0.92-2.09-1.29-3.13
		c-0.4-1.08-0.73-2.16-1.01-3.23c-3.13-12,0.78-23.58,10.97-32.13c2.15-1.82,4.9-2.86,7.82-3.23c8.66-1.07,18.99,3.89,20.93,12.97
		c1.58,7.38-0.47,13.44-4.28,19.41c-2.16,3.38-3.08,6.75-0.12,10.39c0.57,0.7,1.17,1.29,1.8,1.78c5.59,4.37,12.87,0.57,14.7-5.19
		c2.49-7.89,4.94-16.11,5.28-24.28c0.25-5.93-0.95-11.28-3.59-15.84c-2.68-4.65-6.86-8.5-12.52-11.35
		c-4.91-2.47-10.03-4.69-15.27-5.66c-3.51-0.65-7.07-0.74-10.66,0.03c-9.59,2.06-18.23,7.13-24.19,15.63
		c-7.81,11.14-12.17,23.21-9.16,36.93c0.49,2.24,1.01,4.49,1.61,6.7c1.59,5.98,3.72,11.75,7.3,16.78c1.36,1.91,2.92,3.71,4.75,5.38
		c7.45,6.81,15.4,12.68,25.07,15.89c1.54,0.51,3.13,0.96,4.76,1.33c10.11,2.29,20.12,3.43,30.19,1.03c0.71-0.17,1.42-0.35,2.12-0.55
		c11.47-3.17,21.19-9.52,29.63-17.42c1.93-1.81,3.8-3.7,5.6-5.65c10.84-11.73,18.66-25.7,22.43-41.47
		c1.71-7.15,3.41-14.34,1.41-21.92c-0.72-2.76-1.44-6.34,2.46-8.66c11.43-6.79,20.09-16.5,28.35-26.69c0.61-0.75,1.22-1.5,1.82-2.25
		c11.53-14.39,18.28-30.19,19.73-47.27C1067.98,247.07,1067.73,240.14,1066.62,233.01z M970.83,314.95
		c-0.87-0.8-1.58-1.72-2.07-2.69c-1.28-2.49-1.17-5.33,1.11-7.3c0.92-0.79,2.63-1.07,4.37-0.98c1.3,0.07,2.61,0.33,3.62,0.74
		c6.75,2.7,9.47,8.91,11.91,15.68C982.66,320.52,976.2,319.85,970.83,314.95z"/>
	<path class="st1" d="M549.65,255.63c-0.35-2.03-0.66-4.06-0.7-6.09c-0.17-9.07-4.68-16.44-9.28-23.46
		c-3.45-5.25-8.37-9.81-13.41-13.67c-6.54-5-13.76-7.32-21.51-7.68c-3.44-0.18-6.99,0.04-10.63,0.57
		c-6.44,0.95-11.95,3.11-16.6,6.71c-2.37,1.84-4.52,4.05-6.46,6.66c-0.96,1.29-1.85,2.6-2.67,3.93c-3.49,5.72-5.69,11.92-6.6,18.94
		c-0.85,6.57,0.77,13.69,4.23,19.59c0.93,1.59,2,3.09,3.19,4.46c2.01,2.35,4.38,4.33,7.04,5.78c2.74,1.5,5.52,2.76,8.37,3.72h0.02
		c0.71,0.25,1.4,0.47,2.12,0.67c2.6,0.73,5.27,1.21,8.04,1.37c6.68,0.38,12.86-0.95,18.33-5.5c1.42-1.18,2.63-2.54,3.64-4.02
		c5.3-7.73,5.22-18.92,1.22-26.76c-3.3-6.44-8.55-10.25-14.25-9.29c-3.15,0.54-6.02,1.4-8.47,2.92c-2.83,1.75-5.11,4.37-6.61,8.36
		c-0.19,0.5-0.34,0.99-0.45,1.47c-0.68,2.65-0.34,5.02,0.36,7.67c0.45,1.68,1.04,3.46,1.61,5.5c-3.14-0.76-6.09-0.66-7.73-2.07
		c-0.05-0.04-0.1-0.08-0.14-0.13c-0.88-0.79-1.62-1.82-2.24-2.95c-0.72-1.3-1.29-2.73-1.76-4.09c-2.7-7.95-1.48-15.84,4.71-21.25
		c5.39-4.7,11.78-6.23,18.43-5.59c2.61,0.24,5.27,0.83,7.92,1.68c4.15,1.33,8.3,2.6,10.73,6.97c10.14,18.29,13.19,36.9,2.98,56.19
		c-1.52,2.86-3.16,6.04-5.62,7.92c-1.54,1.18-3.12,2.21-4.74,3.13c-9.8,5.54-20.86,6.53-32.14,6.07c-0.99-0.04-1.98-0.1-2.97-0.19
		h-0.01c-4.48-0.37-8.95-1.1-13.44-1.52c-0.57-0.06-1.15-0.11-1.72-0.15c-5.91-0.43-11.83-0.77-17.8-1.1
		c-3.81-0.21-7.63-0.41-11.49-0.64c0.41-1.44,0.57-2.24,0.86-3c3.83-10.01,7.67-20.01,11.51-30.02c5.14-13.4,10.28-26.79,15.4-40.2
		c0.96-2.51,1.92-5.03,2.88-7.54c4.63-12.14,9.23-24.29,13.84-36.44c3.13-8.27,6.27-16.54,9.4-24.81
		c2.62-6.91,5.25-13.82,7.88-20.73c1.83-4.78,0.94-6.47-4.12-6.53c-8.17-0.1-16.34,0.15-24.5-0.1c-4.48-0.14-7.01,1.69-8.57,5.76
		c-1.3,3.39-2.6,6.78-3.91,10.17c-4.21,10.93-8.48,21.84-12.77,32.75c-1.97,5.02-3.94,10.06-6.35,14.87
		c-0.62,1.24-2.89,2.23-4.41,2.24c-0.81,0-2.01-2.25-2.36-3.66c-0.89-3.64-1.65-7.35-2.03-11.08c-0.58-5.66-1.6-11.14-3.14-16.41
		c-3.04-10.43-8.06-20.03-15.47-28.64c-1.62-1.89-3.57-4.02-5.8-4.78c-7.23-2.45-12.57,2.13-16.58,6.76
		c-6,6.92-11.92,13.93-16.96,21.57c-2.9,4.38-5.5,8.96-7.65,13.86c-1.26,2.86-2.23,4.63-2.74,5.84c-0.72,1.68-0.55,2.3,1.01,3.24
		c1.16,0.7,3.1,1.58,6.02,3.24c2.99,1.68,4.72,0.95,6.35-1.99c1.38-2.49,2.77-5.02,4.31-7.42c1.11-1.74,2.3-3.41,3.63-4.95
		c1.87-2.17,5.17-3.99,7.98-4.24c3.18-0.28,3.54,3.18,4.47,5.96c5.62,16.89,4.92,34.66,7.61,51.95c0.2,1.25-1.2,3.4-2.44,4.1
		c-3.63,2.06-7.55,3.58-11.32,5.39c-0.07,0.03-0.13,0.06-0.2,0.09c-14.6,7.07-27.39,16.53-39.66,27.2
		c-11.81,10.26-20.07,22.03-23,37.23c-0.99,5.15-1.55,11.13,0.09,15.91c2.38,6.96,8.05,11.01,14.2,12.56
		c4.19,1.06,8.59,0.97,12.34-0.15c0.54-0.16,1.07-0.33,1.6-0.5c7.17-2.31,14.03-5.71,20.86-9.14c1.51-0.75,3.03-1.51,4.55-2.25
		c1.11-0.56,2.22-1.11,3.34-1.64c3.93-1.88,7.52-4.49,11.26-6.77c-1.39,4.37-2.83,8.69-4.31,12.97c-3.08,8.92-6.31,17.68-9.5,26.42
		c-1.56,4.24-3.1,8.48-4.62,12.72c-0.58,1.62-1.22,3.23-1.86,4.84c-3.48,8.62-7.35,17.19-5.23,27.13c0.48,2.26,1.02,4.46,1.7,6.57
		c1.81,5.78,4.59,10.98,9.79,15.39c1.57,1.34,3.16,2.57,4.77,3.69c15.86,11.15,33.36,12.32,51.98,6.83c0.1-0.03,0.2-0.06,0.31-0.09
		c6.03-1.8,13.11-4.57,16.55-9.21c8.01-10.84,10.17-23.43,4.1-36.57c-1.69-3.65-4.41-6.8-7.7-8.91c-3.88-2.49-8.55-3.54-13.23-2.28
		c-3.05,0.82-6.11,2.62-8.96,5.64c-3.68,3.91-4.24,9-1.69,13.27c0.44,0.74,0.97,1.46,1.6,2.14c2.1,2.29,4.21,4.68,5.76,7.35
		c2.98,5.11,1.75,10.04-2.92,12.37c-1.7,0.84-3.7,1.21-5.61,1.46c-6.95,0.91-14.04,0.2-19.18-4.34c-0.24-0.21-0.48-0.43-0.71-0.66
		c-4.59-4.55-5.09-11.24-2.72-17.6c0.87-2.34,1.73-4.69,2.58-7.04c2.83-7.79,5.64-15.59,9.01-23.14c2.05-4.59,5.25-9.35,9.23-12.25
		c0.21-0.15,0.42-0.3,0.63-0.44c5.45-3.8,11.61-5.73,18.03-6.67c3.54-0.52,7.16-0.73,10.78-0.79c4.36-0.07,8.74,0.01,13.11,0.09
		c8.36,0.15,16.72,0.33,24.99-0.43c8.94-0.81,18.37-2.91,26.3-6.95c3.92-1.99,7.62-4.21,11.06-6.69
		c11.83-8.51,20.45-20.02,23.46-35.68c0.14-0.74,0.28-1.49,0.41-2.23c1.17-6.51,1.96-13.12,2.2-19.71
		C550.78,261.67,550.17,258.65,549.65,255.63z M363.64,295.41c-0.44-0.06-0.86-0.15-1.27-0.28c-5.38-1.71-7.8-9.51-4.1-14.69
		c3.55-4.97,7.47-9.35,11.73-13.17c11.63-10.46,25.8-16.83,41.93-20.02c0.46-0.09,0.98,0.11,2.95,0.37
		c-6.85,9.35-13.3,18.4-19.82,27.21c-2.96,4.01-5.93,7.96-8.96,11.88c-1.96,2.54-4.23,4.52-6.74,5.95
		C374.81,295.29,369.45,296.16,363.64,295.41z"/>
	<path class="st1" d="M743.35,260.09c-2.85,4.5-5.5,9.15-8.63,13.46c-5.49,7.56-10.81,15.33-17.09,22.2
		c-7.43,8.12-15.39,15.89-23.9,22.85c-6.68,5.47-18.88,7.6-27.75,2.64c-6.23-3.49-6.06-9.64-6.89-15.41
		c-2.58-17.89,1.44-34.83,7.51-51.47c0.27-0.75,0.33-1.57-0.32-3.4c-1.16,0.83-2.69,1.43-3.43,2.54
		c-7.41,11.18-14.01,22.97-22.17,33.56c-10.26,13.3-21.52,26.04-38.45,31.29c-5.73,1.78-11.79,3.71-17.64,3.53
		c-7.63-0.23-12.09-6.13-14.42-12.99c-4.03-11.9-2.93-23.82,2.23-35.04c13.36-29.03,27.17-57.85,40.71-86.79
		c2.21-4.72,4.12-9.61,5.82-14.53c0.44-1.28-0.44-3.02-0.71-4.55c-1.37,0.54-3.24,0.69-4.03,1.69c-4.65,5.91-8.64,12.4-13.67,17.95
		c-3.8,4.19-8.66,7.5-13.41,10.66c-1.13,0.75-4.37-0.07-5.44-1.25c-1.11-1.22-1.66-4.27-0.9-5.65c4.38-7.85,8.52-15.99,14.06-23
		c10.68-13.53,23.94-24.46,37.58-34.97c8.3-6.39,18.59-0.87,22.56,5.23c6.11,9.39,4.71,19.03,0.82,28.29
		c-12.54,29.85-25.93,59.34-38.14,89.32c-3.25,7.99-8.46,15.75-7.76,25.05c0.15,2.02,1.1,3.98,1.68,5.97
		c2.06-0.68,4.42-0.92,6.13-2.11c14.62-10.23,24.31-24.58,32.94-39.82c8.87-15.67,17.88-31.26,26.9-46.84
		c9.35-16.15,18.79-32.24,28.21-48.35c2.06-3.53,4.38-6.93,6.23-10.57c3.43-6.75,9.69-8.2,16.28-9.09c1.8-0.25,3.66-0.04,5.49-0.04
		c6.18,0.01,10.3,3.31,9.87,9.46c-0.39,5.58-1.81,11.3-3.87,16.53c-11.51,29.18-23.43,58.19-35.04,87.33
		c-4.65,11.66-8.88,23.49-13.25,35.26c-1.57,4.23,0.22,7.89,3.61,9.73c3.24,1.77,6.37,0.22,8.55-3.31
		c8.53-13.76,17.43-27.29,25.91-41.07c14.67-23.82,29.14-47.77,43.68-71.67c6.21-10.2,12.7-20.25,18.48-30.69
		c4.68-8.45,14-12.69,21.98-10.67c8.92,2.26,16.45,13.8,13.7,22.45c-2.56,8.05-6.06,15.84-9.64,23.5
		c-9.72,20.79-19.81,41.41-29.53,62.2c-6.31,13.49-12.35,27.11-18.2,40.8c-0.8,1.87,0.17,4.5,0.31,6.78
		c1.83-0.31,4.18-0.03,5.38-1.07c2.44-2.13,4.59-4.78,6.28-7.56c7.48-12.3,14.72-24.74,22.14-37.08c0.92-1.53,2.23-2.91,3.6-4.06
		c3.08-2.57,5.41-1.72,7.07,1.99c2.99,6.7,1.38,13.12-1.17,19.33c-5.22,12.72-12.41,24.42-22.07,34.1
		c-8.29,8.31-17.36,16.13-29.18,19.48c-4.68,1.32-9.28,3.25-14.05,3.83c-4.96,0.6-6.59-2.1-7.35-7.07
		c-2.51-16.42,1.28-32.27,4.01-48.24C744.09,260.38,744.27,260.45,743.35,260.09z"/>
	<path class="st1" d="M348.85,165.49c-0.4-3.78-1.11-7.56-2.17-11.32c-1.69-6-4.33-11.5-8.55-15.5c-3-2.84-6.8-4.92-11.63-5.87
		c-8.66-1.7-16.95,0.58-24.99,3.86c-0.14,0.06-0.29,0.12-0.43,0.18c-9.39,3.92-17.23,10.13-24.73,16.83
		c-2.39,2.15-3.97,2.49-4.92,0.6c-0.3-0.57-0.53-1.33-0.71-2.31c-0.62-3.36-1.44-6.69-1.84-10.08c-0.83-6.91-4.85-11.87-9.84-11.37
		c-9.12,0.92-17.51,4.45-23.42,11.18c-8.09,9.21-15.19,19.32-22.26,29.36c-2.57,3.64-4.41,8.05-5.57,12.38
		c-0.94,3.52-0.34,7.56,3.42,9.77c3.72,2.17,6.42-0.06,8.81-2.62c0.65-0.71,1.25-1.46,1.81-2.23c5.87-8.13,11.61-16.14,18.36-25.53
		c2.11,3.75,4.28,6.34,5.08,9.3c1.35,4.97,4.99,10.58,1.02,15.28c-9.24,10.96-14.96,23.82-21.34,36.39
		c-5.76,11.33-10.5,22.92-13.79,34.88c-3.33,12.11-5.18,24.6-5.1,37.61c0.02,3.75-0.95,7.07-6.67,7.91c-3.54,0.53-6.81,2-9.77,3.99
		c-0.28,0.18-0.56,0.38-0.83,0.57c-3.29,2.35-9.42,1.92-9.66,7.89c-0.15,3.83-0.51,7.75,0.17,11.46c0.35,1.89,2.61,4.66,4.27,4.86
		c2.55,0.3,5.08,0.4,7.54,0.17c4.42-0.41,8.63-1.85,12.46-4.99c6.91-5.66,9.84-5.88,15.77-0.98c1.11,0.92,2.27,1.68,3.46,2.31
		c4.24,2.26,8.92,2.82,13.61,2.61c12.2-0.57,22.62-6.53,32.21-13.32c11.4-8.08,21.39-17.85,30.24-28.83
		c10.11-12.54,19.45-25.47,27.08-39.7c2.5-4.67,4.8-9.41,6.91-14.23c2.57-5.83,4.86-11.75,6.92-17.76c2.08-6,3.92-12.08,5.59-18.23
		C348.44,188.65,350.08,177.05,348.85,165.49z M253.26,295.52c-2.63,3.21-6.38,5.76-10.07,7.79c-6.89,3.77-10.35,1.44-10.35-6.42
		l-1.42-0.43c3.39-10.85,6.21-21.92,10.28-32.51c1.85-4.83,3.86-9.57,6.02-14.23c5.21-11.35,11.24-22.25,17.83-32.83
		c6.23-10.04,12.95-19.79,19.93-29.36c6.43-8.83,14.97-16.15,22.71-23.99c1.43-1.46,3.65-2.15,5.46-3.25
		c4.05-2.45,8.33-1.28,8.35,5.18c0.01,2.77-0.19,5.52-0.55,8.22c-1.01,7.64-3.34,15.03-6.27,22.21c-3.17,7.8-6.52,15.51-10.13,23.1
		c-1.54,3.25-3.13,6.48-4.78,9.68c-3.69,7.19-7.67,14.22-12,21.05c-1.42,2.26-2.88,4.49-4.39,6.7c-0.36,0.53-0.73,1.06-1.1,1.59
		c-4.1,5.9-8.47,11.62-12.96,17.26C264.39,282.1,258.78,288.79,253.26,295.52z"/>
	<path class="st1" d="M1226.81,302.64c-17.86-17.8-35.53-35.4-53.16-52.98c20.63-12.16,38.93-7.34,51.43,7.72
		C1233.39,267.38,1239.43,286.57,1226.81,302.64z"/>
	<path class="st1" d="M83.3,312.99c-21.01,12.74-39.81,6.9-51.82-8.14c-10.05-12.58-11.35-30.23-1.15-44.95
		C47.92,277.53,65.52,295.17,83.3,312.99z"/>
	<path class="st1" d="M1216.63,313.36c-21.77,12.32-36.04,7.12-50.45-7.97c-10.19-10.67-12.82-28.69-2.37-44.91
		C1181.37,278.06,1199.01,295.72,1216.63,313.36z"/>
	<path class="st1" d="M92.66,302.64c-17.57-17.63-35.18-35.29-52.72-52.89c16.89-11.01,32.71-7.68,44.38,1.57
		C101.87,265.24,103.85,284.85,92.66,302.64z"/>
</g>
</svg>

