<?xml version="1.0" encoding="utf-8"?>
<!-- Generator: Adobe Illustrator 24.1.1, SVG Export Plug-In . SVG Version: 6.00 Build 0)  -->
<svg version="1.1" id="katman_1" xmlns="http://www.w3.org/2000/svg" xmlns:xlink="http://www.w3.org/1999/xlink" x="0px" y="0px"
	 viewBox="0 0 640 398" style="enable-background:new 0 0 0 398; color: white;" xml:space="preserve">
<g>
	<path fill="white" stroke="white" d="M137.46,135.47v30.85c10.98-4,19.44-7.05,27.84-10.1C167.47,130.38,164.18,127.98,137.46,135.47z M165.76,156.05
		c-0.15,0.05-0.31,0.11-0.46,0.17c-0.01,0.15-0.03,0.3-0.04,0.46c0.03-0.04,0.06-0.07,0.09-0.11v-0.01
		c0.15-0.18,0.29-0.34,0.43-0.52C165.77,156.04,165.77,156.04,165.76,156.05z M208.02,106.8c-0.45-0.56-0.9-1.11-1.37-1.65
		c-0.22-0.27-0.46-0.54-0.69-0.8c-0.01-0.02-0.02-0.04-0.05-0.06c-0.33-0.38-0.66-0.77-1.01-1.14c-0.01-0.02-0.03-0.04-0.05-0.05
		c-0.19-0.22-0.39-0.43-0.59-0.65c-0.02-0.03-0.04-0.05-0.07-0.08c-0.39-0.42-0.79-0.84-1.19-1.25c-0.11-0.12-0.23-0.24-0.35-0.36
		c-0.21-0.22-0.42-0.43-0.64-0.64c-0.56-0.57-1.12-1.12-1.7-1.65c-0.32-0.31-0.65-0.62-0.98-0.91c-0.24-0.22-0.48-0.44-0.73-0.66
		c-0.14-0.13-0.28-0.25-0.42-0.37c-0.38-0.34-0.76-0.67-1.15-1c-1.45-1.23-2.93-2.41-4.46-3.54c-1.43-1.05-2.89-2.07-4.38-3.04
		c-0.5-0.33-1.01-0.66-1.52-0.96c-0.55-0.36-1.1-0.7-1.66-1.02c-0.14-0.09-0.28-0.17-0.42-0.25c-0.05-0.04-0.1-0.06-0.15-0.08
		c-0.45-0.27-0.91-0.54-1.37-0.79c-0.11-0.07-0.21-0.13-0.32-0.18c-0.48-0.28-0.96-0.54-1.45-0.8c-0.08-0.04-0.16-0.08-0.24-0.13
		c-0.7-0.37-1.41-0.74-2.13-1.09c-0.8-0.4-1.6-0.79-2.41-1.16c-1.62-0.75-3.26-1.46-4.92-2.12c-1.66-0.66-3.34-1.28-5.03-1.86
		c-0.82-0.28-1.64-0.54-2.46-0.8c-0.15-0.05-0.29-0.09-0.43-0.13c-0.66-0.2-1.31-0.4-1.97-0.58c-0.17-0.05-0.34-0.1-0.5-0.14
		c-0.69-0.2-1.38-0.38-2.07-0.55c-0.21-0.07-0.42-0.12-0.64-0.17c-0.76-0.19-1.53-0.38-2.3-0.55c-1.76-0.4-3.54-0.76-5.32-1.07
		c-1.76-0.31-3.54-0.57-5.32-0.79c-0.65-0.08-1.3-0.16-1.94-0.22c-0.35-0.04-0.69-0.07-1.03-0.1c-0.15-0.02-0.3-0.03-0.44-0.04
		c-0.51-0.05-1.01-0.1-1.51-0.13c-0.89-0.08-1.77-0.14-2.65-0.18c-0.39-0.02-0.77-0.04-1.17-0.05c-0.78-0.03-1.56-0.06-2.34-0.08
		c-1.76-0.05-3.53-0.04-5.29,0.01c-0.38,0.01-0.77,0.02-1.15,0.04c0,0-0.01-0.01-0.02,0c-0.54,0.02-1.08,0.04-1.62,0.07
		c-1.7,0.08-3.39,0.2-5.08,0.38c-0.81,0.07-1.62,0.16-2.43,0.26c-1.88,0.22-3.75,0.5-5.6,0.83c-0.69,0.12-1.38,0.25-2.06,0.39
		c-1.05,0.19-2.09,0.41-3.13,0.65c-0.87,0.2-1.73,0.41-2.6,0.63c-0.86,0.22-1.72,0.45-2.57,0.69c-0.86,0.24-1.71,0.49-2.56,0.75
		c-1.69,0.52-3.37,1.09-5.03,1.71c-1.67,0.62-3.31,1.28-4.93,1.98c-1.62,0.7-3.22,1.44-4.79,2.24c-1.58,0.78-3.13,1.62-4.65,2.5
		c-0.76,0.44-1.52,0.89-2.27,1.35c-0.75,0.46-1.49,0.94-2.22,1.42c-0.74,0.48-1.46,0.98-2.18,1.48c-0.72,0.51-1.44,1.03-2.14,1.55
		c-0.7,0.53-1.4,1.07-2.09,1.62s-1.37,1.11-2.04,1.68c-0.67,0.57-1.33,1.16-1.99,1.75c-0.65,0.59-1.29,1.2-1.93,1.82
		c-0.63,0.61-1.26,1.24-1.88,1.88c-0.61,0.63-1.22,1.28-1.82,1.93c0.01,0.01,0,0.01,0,0.01c-1.2,1.31-2.35,2.67-3.46,4.08
		c-0.13,0.17-0.26,0.34-0.39,0.51c-0.91,1.21-1.8,2.54-2.6,3.95c-0.18,0.31-0.35,0.61-0.52,0.92c-0.17,0.3-0.33,0.61-0.48,0.92
		c-0.1,0.2-0.2,0.4-0.31,0.6c-0.1,0.22-0.21,0.44-0.31,0.66c-0.1,0.22-0.2,0.43-0.29,0.65c-0.1,0.21-0.19,0.43-0.28,0.64
		c-0.08,0.19-0.15,0.37-0.23,0.55c-0.11,0.25-0.2,0.51-0.3,0.76c-0.16,0.43-0.31,0.85-0.45,1.28c-0.08,0.22-0.15,0.44-0.22,0.66
		c-0.07,0.22-0.14,0.44-0.2,0.66c-0.02,0.05-0.04,0.1-0.05,0.15c-0.05,0.19-0.1,0.37-0.15,0.56c-0.06,0.22-0.12,0.45-0.17,0.67
		c-0.06,0.22-0.11,0.44-0.16,0.66l-0.03,0.15c-0.09,0.42-0.17,0.84-0.24,1.26c-0.05,0.31-0.1,0.62-0.14,0.94
		c-0.16,1.3-0.22,2.58-0.15,3.82c0.18,3.42,3.36,8.4,8.24,13.85c0.53,0.61,1.1,1.23,1.69,1.85c0.4,0.42,0.81,0.85,1.23,1.27
		c0.39,0.4,0.79,0.8,1.19,1.2c1.22,1.21,2.5,2.43,3.84,3.64c0.36,0.32,0.72,0.65,1.08,0.97c0.27,0.25,0.55,0.49,0.83,0.74
		c0.45,0.4,0.92,0.8,1.38,1.19c2,1.71,4.08,3.4,6.2,5.03c0.53,0.41,1.06,0.81,1.6,1.22c1.07,0.8,2.15,1.59,3.23,2.36
		c0.61,0.43,1.22,0.86,1.83,1.28c0.57,0.39,1.15,0.78,1.72,1.16c8.61,5.7,17.13,9.95,23.31,10.8h0.01c-0.75-1.17-1.5-2.33-2.24-3.48
		c-0.51-0.79-1.02-1.58-1.52-2.37c-0.51-0.79-1.01-1.57-1.51-2.35c-1.21-1.87-2.4-3.73-3.57-5.56c-1.4-2.18-2.78-4.32-4.15-6.45
		c-6.6-10.28-12.88-20.08-19.27-30.06c-0.33-0.53-0.66-1.05-1-1.58c-0.01,0-0.01-0.01-0.01-0.01c3.84-2.25,7.74-4.53,12.08-7.05
		c0.97-0.57,1.95-1.14,2.96-1.73c1.52-0.88,3.1-1.8,4.74-2.76c0.55-0.32,1.11-0.65,1.68-0.98c0.57-0.32,1.14-0.65,1.72-0.99
		c-1.12,8.37-1.87,13.91-2.52,19c3.16,0.65,6.32,1.07,9.49,1.32c0.77,0.06,1.55,0.12,2.32,0.17h0.05c0.77,0.04,1.55,0.08,2.32,0.11
		h0.05c0.77,0.03,1.54,0.05,2.31,0.06c1.27,0.02,2.54,0.02,3.82,0.01c0.43,0,0.87-0.01,1.31-0.02c2-0.03,4-0.09,5.99-0.17
		c2-0.08,3.99-0.18,5.98-0.27c1.1-0.05,2.2-0.11,3.3-0.16c0.24-0.01,0.48-0.02,0.72-0.03c4.75-0.2,9.48-0.34,14.16-0.19
		c0.34,0.01,0.69,0.02,1.04,0.04c0.35,0.02,0.69,0.04,1.04,0.05c0.7,0.04,1.39,0.08,2.08,0.13c0.65,0.05,1.3,0.1,1.95,0.17
		c0.08,0,0.16,0.01,0.24,0.02c0.65,0.06,1.31,0.13,1.96,0.22c0.46,0.06,0.92,0.12,1.38,0.19c0.45,0.06,0.91,0.13,1.37,0.21
		c0.91,0.14,1.81,0.31,2.72,0.5c0.46,0.1,0.91,0.2,1.36,0.3c0.46,0.1,0.91,0.21,1.36,0.33c0.9,0.22,1.8,0.48,2.7,0.76
		c0.45,0.14,0.9,0.28,1.34,0.43c1.3,0.42,2.59,0.91,3.88,1.46c0.2,0.08,0.39,0.16,0.59,0.25v-0.01c-0.61-6.07-1.41-14.04-2.42-24.21
		c0.95,0.53,1.87,1.05,2.76,1.56c0.3,0.17,0.59,0.34,0.88,0.5c0.92,0.51,1.82,1.02,2.7,1.52c0.79,0.45,1.58,0.89,2.35,1.33
		c4.14,2.33,8.05,4.53,12.32,6.94c1.02,0.56,2.05,1.14,3.11,1.74l-0.01,0.01c-3.6,4.43-7.1,8.72-10.52,12.94
		c-2.28,2.82-4.54,5.59-6.78,8.35c-2.24,2.75-4.45,5.48-6.67,8.2c-0.01,0.01-0.02,0.02-0.02,0.03c-0.93,1.16-1.87,2.31-2.8,3.46
		c0.04-0.01,0.07-0.03,0.11-0.04c0,0.01,0,0.01,0,0.02l-0.01,0.01c-0.34,1.52-0.68,3.04-1.03,4.57c-1.04,4.58-2.09,9.16-3.12,13.73
		c1.42,1.19,2.85,2.37,4.28,3.56c13.37-12.32,26.49-24.91,40.17-36.83C218.94,129.94,217.98,119.17,208.02,106.8z M286.93,156.26
		c-0.01,0-0.02-0.01-0.03-0.01c0.1,0.13,0.21,0.26,0.31,0.39c0.06,0.06,0.11,0.13,0.16,0.19v-0.45
		C287.22,156.34,287.08,156.3,286.93,156.26z M287.37,133.32v23.06c8.72,2.45,17.5,4.9,27.9,7.83v-30.89H287.37z M400.98,113.01
		c-0.26-0.49-0.55-0.99-0.87-1.48c-0.23-0.37-0.48-0.74-0.74-1.12c-0.26-0.37-0.53-0.75-0.82-1.13c0-0.01,0-0.01,0-0.01
		c-1.53-2.02-3.42-4.1-5.66-6.28c-0.25-0.24-0.5-0.48-0.75-0.72c-0.51-0.48-1.03-0.97-1.57-1.46c-0.01,0.01-0.01,0.01-0.01,0
		c-0.82-0.73-1.68-1.48-2.58-2.25c-0.59-0.52-1.19-1.02-1.81-1.54c-1.46-1.2-2.92-2.36-4.39-3.46c-0.73-0.55-1.46-1.1-2.19-1.63
		c-1.46-1.08-2.93-2.1-4.4-3.08h-0.01c-0.71-0.48-1.43-0.94-2.15-1.41c-1.5-0.95-3.01-1.87-4.52-2.74
		c-19.71-11.35-40.27-15.38-61.15-12.05c-1.18,0.18-2.36,0.39-3.54,0.63c-0.59,0.12-1.18,0.24-1.78,0.37
		c-0.88,0.19-1.77,0.4-2.66,0.62c-0.88,0.22-1.76,0.45-2.65,0.7c-0.6,0.17-1.2,0.34-1.79,0.51c-1.18,0.35-2.36,0.72-3.55,1.13h-0.01
		c-4.74,1.59-9.49,3.56-14.24,5.92c-0.01,0-0.01,0-0.01,0c-1.04,0.51-2.08,1.04-3.11,1.59c-2.6,1.38-5.2,2.87-7.8,4.48
		c-0.52,0.31-1.04,0.63-1.56,0.96c-1.28,0.81-2.52,1.62-3.7,2.41c-1.78,1.18-3.46,2.34-5.03,3.48c-1.05,0.76-2.05,1.51-3.01,2.26
		c-0.48,0.37-0.95,0.75-1.41,1.12h-0.01c-0.81,0.67-1.59,1.32-2.32,1.96c-0.38,0.33-0.74,0.65-1.09,0.97
		c-0.35,0.32-0.7,0.65-1.03,0.97c-0.34,0.32-0.66,0.64-0.98,0.96c-0.95,0.95-1.83,1.9-2.62,2.85c-0.3,0.35-0.58,0.71-0.86,1.06
		c-0.55,0.71-1.05,1.42-1.51,2.12c-0.23,0.35-0.45,0.7-0.65,1.06c-0.21,0.35-0.41,0.7-0.59,1.06c-0.19,0.35-0.36,0.7-0.52,1.05
		c-0.33,0.71-0.61,1.42-0.85,2.13c-1,3.01-1.21,6.06-0.62,9.24c0.05,0.27,0.1,0.55,0.17,0.82c0.08,0.36,0.18,0.73,0.28,1.1
		c0.1,0.36,0.21,0.71,0.32,1.07c0.13,0.39,0.27,0.79,0.42,1.19c0.11,0.27,0.22,0.55,0.34,0.83c0.04,0.1,0.08,0.2,0.12,0.3
		c0.39,0.92,0.84,1.85,1.36,2.79c0.01,0,0.01,0,0,0.01c0.35,0.62,0.72,1.26,1.11,1.9c0.2,0.32,0.4,0.65,0.61,0.97
		c0.21,0.33,0.43,0.66,0.65,1c0.89,1.32,1.88,2.67,2.99,4.05c0.01,0,0.01,0,0,0.01c0.54,0.7,1.12,1.4,1.73,2.1c0.01,0,0.01,0,0,0.01
		c2.71,3.21,5.94,6.61,9.7,10.25c1,0.97,2.02,1.92,3.06,2.85c1.14,1.04,2.3,2.07,3.47,3.08c0.66,0.57,1.33,1.15,2.01,1.71
		c1.35,1.14,2.71,2.26,4.08,3.37c5.6,4.53,11.34,8.89,16.9,13.45c0.6-0.66,1.22-1.34,1.83-2.02c0.31-0.34,0.61-0.68,0.92-1.02
		c0.31-0.34,0.62-0.68,0.93-1.03c-0.69-2.81-1.38-5.62-2.05-8.42c-0.68-2.81-1.35-5.61-2.02-8.41c0.01,0,0.02,0.01,0.03,0.01
		c0.03,0.01,0.05,0.01,0.08,0.02c-0.95-1.16-1.9-2.33-2.85-3.49c-1.1-1.36-2.22-2.72-3.34-4.09c-1.11-1.36-2.23-2.73-3.35-4.1
		c-1.83-2.23-3.67-4.48-5.54-6.75c-0.99-1.22-2-2.45-3.02-3.7c-2.91-3.55-5.87-7.17-8.93-10.9c1.05-0.61,2.08-1.2,3.09-1.79
		c1.52-0.88,2.99-1.73,4.45-2.57c3.9-2.25,7.68-4.43,11.78-6.81c0.38-0.22,0.77-0.44,1.16-0.67c1.16-0.68,2.35-1.38,3.58-2.09
		c0,0.01,0,0.01,0,0.02c-0.24,2.54-0.47,4.9-0.67,7.1v0.01c-0.11,1.1-0.21,2.15-0.3,3.17c0,0,0,0,0,0.01
		c-0.1,1.01-0.19,1.98-0.28,2.91c-0.18,1.9-0.34,3.63-0.49,5.18c-0.07,0.74-0.14,1.44-0.2,2.09c-0.06,0.66-0.11,1.27-0.16,1.84
		h38.18v33.97h0.01v0.01c1.51,0.73,2.94,1.33,4.32,1.8c0.75,0.26,1.48,0.48,2.2,0.68c0.71,0.19,1.41,0.35,2.08,0.47
		c1.6,0.29,3.09,0.4,4.49,0.35c0.21-0.01,0.42-0.02,0.63-0.03c0.2-0.02,0.41-0.03,0.61-0.05c0.8-0.09,1.58-0.22,2.33-0.4
		c0.19-0.04,0.38-0.09,0.56-0.15c0.25-0.07,0.5-0.15,0.74-0.23c0.27-0.09,0.54-0.19,0.8-0.29c0.28-0.1,0.55-0.22,0.82-0.34
		c0.24-0.11,0.48-0.22,0.72-0.34c0.36-0.18,0.71-0.37,1.06-0.58c0.22-0.12,0.43-0.25,0.64-0.39c0.4-0.25,0.78-0.51,1.16-0.79
		c0.23-0.16,0.46-0.33,0.68-0.51c0.29-0.23,0.58-0.46,0.86-0.7c0.28-0.24,0.56-0.49,0.83-0.74c0.41-0.38,0.82-0.77,1.21-1.17
		c4.64-4.72,8.39-11.01,12.92-15.82c-0.85-11.57-1.7-23.15-2.64-36.37c7.8,4.26,14.48,7.9,23.71,12.91
		c-7.29,8.52-13.89,16.24-20.53,23.98l0.01,0.01c-1.57,3.56-3.14,7.12-4.7,10.68c-0.98,2.23-1.96,4.46-2.94,6.68
		c-1.27,2.89-2.54,5.79-3.8,8.68l-0.01,0.01c0.5,0.47,0.99,0.95,1.49,1.44c0.17,0.16,0.34,0.32,0.5,0.48
		c0.33,0.32,0.66,0.64,0.99,0.96c3.86-2.07,7.72-4.13,11.58-6.19c3.82-2.03,7.65-4.07,11.47-6.1c-0.11,0.14-0.23,0.27-0.34,0.41
		h0.02c0.02-0.01,0.03-0.01,0.05-0.01c0.08-0.1,0.16-0.19,0.23-0.29c0.03-0.03,0.06-0.07,0.09-0.1c0.02-0.02,0.04-0.04,0.05-0.06
		c-0.03,0.02-0.06,0.03-0.09,0.05v-0.01c0,0,0.01,0,0.01-0.01c4.15-4.95,8.09-10.07,12.39-14.85c0.63-0.71,1.27-1.4,1.92-2.09
		c0.88-0.93,1.72-1.85,2.54-2.74c0.54-0.6,1.06-1.19,1.55-1.78c0.99-1.16,1.92-2.28,2.78-3.38v-0.01c0.42-0.55,0.83-1.09,1.22-1.62
		c0.2-0.27,0.39-0.54,0.57-0.81c0.37-0.53,0.72-1.05,1.06-1.56c0.17-0.26,0.33-0.52,0.49-0.78c0.31-0.51,0.61-1.01,0.89-1.51
		C404.15,125.36,404.43,119.35,400.98,113.01z M478.79,193.1c-0.23,0.2-0.47,0.41-0.7,0.62c0.01,0,0.03,0.01,0.04,0.01
		c0.23-0.21,0.46-0.41,0.69-0.62L478.79,193.1z M538.84,190.78c2.27,4.81,3.9,8.18,5.78,12.1h-46.24c1.98-1.81,3.95-3.62,5.93-5.42
		c-2.62-7.02-5.26-14.04-7.9-21.06c1.23-2.56,2.47-4.66,3.71-6.3c0.56-0.75,1.13-1.4,1.7-1.96c1.13-1.12,2.26-1.88,3.4-2.29
		c0.34-0.13,0.69-0.22,1.04-0.28c0.17-0.03,0.34-0.05,0.52-0.07c0.57-0.05,1.14-0.02,1.72,0.1c0.4,0.08,0.8,0.2,1.2,0.37
		c0.01,0,0.01,0,0.01,0c0.27,0.1,0.53,0.23,0.8,0.38c1.08,0.57,2.16,1.43,3.25,2.57c0.13,0.12,0.25,0.25,0.36,0.39
		c0.25,0.26,0.49,0.53,0.73,0.82c1.33,1.6,2.67,3.59,4.01,5.96v0.01c-3.08,6.95-6.17,13.9-10.36,23.34h27.53
		c-5.52-7.87-10.07-14.32-14.64-20.81c0.58,0.19,1.17,0.44,1.76,0.74c0,0,0,0.01,0.01,0.01c0.2,0.1,0.4,0.2,0.6,0.31
		c0.61,0.32,1.23,0.69,1.85,1.08c1.45,0.92,2.94,1.98,4.43,3.04c0.63,0.45,1.27,0.9,1.9,1.35h0.01c1.05,0.73,2.1,1.42,3.13,2.03
		c0.2,0.12,0.41,0.24,0.62,0.35c0.46,0.25,0.91,0.48,1.36,0.69c0.22,0.1,0.45,0.2,0.68,0.29c0.28,0.11,0.55,0.21,0.82,0.3
		c0.27,0.08,0.54,0.15,0.8,0.22h0.01c0.38,0.09,0.75,0.14,1.11,0.17c0.36,0.02,0.71,0.02,1.06-0.02c0.02,0,0.04,0,0.06-0.01
		c0.2-0.02,0.39-0.06,0.59-0.1c0.2-0.05,0.4-0.12,0.6-0.19c0.2-0.08,0.4-0.17,0.59-0.28c0.44-0.25,0.87-0.58,1.28-1
		c0.26-0.26,0.51-0.56,0.75-0.91c0.33-0.45,0.64-0.97,0.93-1.57c0.17-0.35,0.34-0.72,0.5-1.12c0.4-1.01,0.77-2.18,1.09-3.53
		c0.07-0.27,0.13-0.55,0.19-0.84c0.11-0.5,0.21-1.02,0.31-1.57c0.04-0.21,0.07-0.41,0.11-0.63c0.1-0.63,0.2-1.3,0.3-2
		c0.09-0.72,0.18-1.48,0.27-2.27c0.02-0.23,0.05-0.46,0.07-0.7c0.01-0.13,0.04-0.26,0.08-0.39c0.06-0.2,0.16-0.39,0.29-0.57
		c0.12-0.18,0.27-0.36,0.44-0.54c0.81-0.85,2.11-1.64,3.36-2.47c0.27-0.18,0.54-0.35,0.8-0.53c0.25-0.18,0.5-0.36,0.74-0.54
		c0.32-0.25,0.62-0.5,0.89-0.76l0.01-0.01c1.86-1.8,3.72-3.62,5.57-5.43c1.84-1.81,3.68-3.62,5.51-5.43
		c2.46-2.43,4.92-4.85,7.38-7.26c1.23-1.21,2.47-2.42,3.71-3.62c2.47-2.4,4.96-4.79,7.46-7.16c1.46-1.38,2.65-2.76,3.61-4.14
		c0.38-0.56,0.73-1.11,1.03-1.66c3.66-6.64,2.01-13.39-2.53-20.62c-0.19-0.3-0.38-0.61-0.58-0.91c-0.51-0.77-1.03-1.53-1.57-2.27
		c0,0,0,0,0-0.01c-0.8-1.12-1.63-2.22-2.51-3.28c0,0,0,0,0-0.01c-0.86-1.07-1.76-2.11-2.69-3.12v-0.01c-0.81-0.89-1.64-1.75-2.5-2.6
		c-0.85-0.85-1.72-1.68-2.62-2.48c-0.84-0.75-1.7-1.49-2.57-2.21c-0.87-0.73-1.76-1.42-2.67-2.1c-0.6-0.45-1.21-0.9-1.83-1.34
		c-3.46-2.45-7.13-4.65-10.97-6.6h-0.01c-0.52-0.26-1.05-0.52-1.58-0.78c-0.79-0.38-1.59-0.75-2.39-1.12
		c-0.81-0.36-1.62-0.71-2.44-1.05c-0.87-0.36-1.75-0.71-2.64-1.05c-0.88-0.34-1.78-0.66-2.67-0.98c-0.9-0.32-1.81-0.62-2.72-0.91
		c-1.82-0.58-3.66-1.11-5.52-1.6c-0.93-0.24-1.86-0.47-2.8-0.69c-1.31-0.3-2.63-0.58-3.96-0.84c-0.57-0.11-1.14-0.22-1.71-0.32
		c-0.95-0.17-1.91-0.33-2.87-0.47c-1.96-0.3-3.93-0.55-5.91-0.74c-0.89-0.09-1.77-0.17-2.66-0.23c-10.32-0.79-20.78-0.2-30.83,1.76
		c-0.96,0.18-1.91,0.38-2.85,0.59c-3.33,0.74-6.6,1.64-9.8,2.68c-0.91,0.3-1.82,0.61-2.73,0.93c-3.15,1.13-6.23,2.42-9.22,3.85
		c-1.27,0.61-2.53,1.25-3.77,1.93c-0.42,0.23-0.83,0.45-1.24,0.68c-0.69,0.39-1.37,0.79-2.05,1.19
		c-10.17,6.08-18.82,14.16-25.02,24.24c-1.34,2.18-2.28,5.29-2.73,8.54c-0.08,0.58-0.15,1.16-0.2,1.74c-0.18,2.1-0.16,4.21,0.1,6.12
		c0.03,0.22,0.06,0.44,0.1,0.66c0.14,0.86,0.33,1.67,0.58,2.41c0.04,0.14,0.09,0.27,0.14,0.4c0.34,0.95,0.79,1.79,1.33,2.45
		c1.41,1.72,2.85,3.42,4.34,5.09c2.96,3.35,6.06,6.6,9.25,9.76c3.98,3.96,8.1,7.79,12.29,11.55c1.68,1.49,3.37,2.99,5.06,4.48
		c1.7,1.49,3.39,2.96,5.09,4.44c0.85,0.73,1.7,1.47,2.55,2.2c0.36,0.31,0.8,0.55,1.29,0.72c0.33,0.11,0.68,0.19,1.05,0.25
		c0.11,0.02,0.23,0.04,0.35,0.05c0.14,0.01,0.3,0.03,0.45,0.04c1.27,0.09,2.77,0,4.47-0.14c0.33-0.03,0.67-0.06,1.02-0.09
		c2.43-0.21,5.19-0.49,8.23-0.49h0.04c-1.47,1.07-2.93,2.15-4.48,3.28c-0.01,0-0.02,0-0.02,0.01c-0.27,0.2-0.54,0.4-0.82,0.6
		c-0.82,0.61-1.67,1.24-2.56,1.89c-0.3,0.22-0.6,0.44-0.91,0.67c-0.92,0.67-1.89,1.38-2.92,2.14c-0.4,0.29-0.8,0.58-1.21,0.88
		c-0.81,0.61-1.67,1.23-2.56,1.89c-0.45,0.32-0.91,0.66-1.38,1.01h-0.01c-0.77,0.56-1.58,1.16-2.42,1.78c0,0.01-0.01,0.01-0.01,0.01
		h21.86c-2.72,2.43-5.44,4.87-8.17,7.3l19.47,9.77h-30.52c4.83-4.32,7.65-6.82,10.32-9.16c-4.35-1.09-8.66-3.04-13.03-3.14
		c-23.27-0.43-46.52-0.43-69.81-0.56c5.7-14.75-5.15-28.41-20.71-26.08c-3.78,4.62-7.58,9.27-11.72,14.29
		c3.23,5.38,6.54,10.92,9.83,16.47c-4.35-0.68-12.46-2.35-12.59-1.91c-4.94,18.93-20.48,11.96-30.89,10.92
		c-17.44-1.8-39.21,11.01-51.63-12.55c-0.6-1.11-4.55-0.58-6.95-0.58c-19.22-0.05-38.52-1.06-57.68,0.27
		c-17.02,1.16-37.77-9.03-49.22,13.34c-23.37-7.19-51.65,15.21-71.87-11.91c-1.07-1.46-4.43-1.63-6.73-1.63
		c-28.11-0.09-56.2-0.04-85.09-0.04v208.43c6.66-0.36,11.91-0.65,19.25-1.06V244.41h602.57v153.78h18.16V190.78H538.84z
		 M540.24,110.66c1.89-0.21,3.75-0.43,5.64-0.65c7.07,4.04,14.12,8.09,21.55,12.3c-11.79,17.87-22.54,34.17-36,54.58
		C538.47,152.65,559.93,135.12,540.24,110.66z M471.13,153.4c-5.79-7.82-13.61-18.33-22.59-30.44c7.58-4.4,14.48-8.42,22.59-13.12
		V153.4z M363.6,247.24h-35.81c0,22.38-0.42,43.85,0.09,65.31c0.56,23.34,1.24,46.73,3.47,69.95c0.55,5.64,7.41,10.68,11.35,16.01
		c4.55-5.26,12.64-10.22,13.13-15.84c3.46-39.39,5.4-78.91,7.72-118.4C363.89,258.6,363.6,252.88,363.6,247.24z M551.28,247.1
		h-35.42c0,28.57-0.39,54.94,0.12,81.28c0.36,18.58,1.01,37.25,3.53,55.58c0.73,5.35,8.29,9.75,12.69,14.57
		c3.95-4.57,10.9-8.88,11.38-13.82c3.32-33.95,5.5-68.05,7.58-102.11C551.89,270.88,551.28,259.08,551.28,247.1z M139.91,247.44
		c0,31.04-0.36,60.94,0.14,90.85c0.27,15.52,1.17,31.16,3.64,46.44c0.84,5.09,7.48,9.25,11.45,13.83
		c4.31-4.24,12.03-8.19,12.45-12.79c4.11-45.79,7.02-91.7,10.34-138.33H139.91z M124.8,247.8H87.44
		c3.07,45.81,5.59,89.98,9.54,134.02c0.51,5.82,8.3,11,12.76,16.45c4.09-5.14,8.62-10,12.15-15.5c1.84-2.88,2.79-6.83,2.79-10.27
		C124.87,331.24,124.8,290,124.8,247.8z M311.78,246.98h-35.96c2.71,45.01,4.72,88.01,8.43,130.87c0.6,7.12,8.57,13.64,13.15,20.42
		c4.79-6.71,13.53-13.32,13.73-20.17C312.41,334.63,311.78,291.09,311.78,246.98z M500.53,247.39h-31.24
		c0,37.26-0.31,72.52,0.2,107.77c0.17,10.71,1.57,21.7,4.53,31.94c1.28,4.48,7.48,9.52,12.15,10.37c2.98,0.53,8.16-5.62,10.68-9.76
		c2.37-3.9,3.49-9.13,3.51-13.78C500.63,332.14,500.53,290.32,500.53,247.39z M539.9,30.82c-0.6-16.74-14.7-30.34-31.5-30.51
		c-17.41-0.17-32.28,14.55-32.11,31.79c0.17,17.39,15.04,31.72,32.5,31.38C526.15,63.12,540.53,48.03,539.9,30.82z M163.76,31.16
		c-0.48-16.71-14.48-30.54-31.21-30.8c-17.58-0.3-32.21,13.97-32.26,31.45c-0.07,17.26,14.7,31.84,32.06,31.67
		C149.79,63.29,164.27,48.4,163.76,31.16z M319.65,0.31c-16.76,0.24-30.87,14.04-31.38,30.7c-0.53,17.19,13.97,32.23,31.36,32.47
		c17.33,0.24,32.27-14.36,32.32-31.57C351.98,14.67,337.04,0.04,319.65,0.31z M112.93,132.25c-7.94,0.53-16.63-0.63-15.27,11.5
		c1.16,10.66,3.82,19.93,17.72,20.05c11.94,0.12,14.09-6.44,12.93-16.34C130.15,135.59,124.36,131.48,112.93,132.25z M137.54,172.95
		v26.74h26.95C166.04,175.37,162.04,171.31,137.54,172.95z M288.32,199.06h27.34v-25.57C291.49,170.36,285.85,175.98,288.32,199.06z
		 M326.41,173.51v26.32h25.61C355.75,176.97,349.22,170.27,326.41,173.51z M99.71,199.73h26.66v-26.39
		C103.1,171.02,97.83,176.32,99.71,199.73z"/>
	<path fill="#fff" d="M478.76,193.09c-2.86,2.54-5.72,5.09-10.99,9.78h76.86c-1.89-3.92-3.49-7.26-5.79-12.08H640v207.39h-18.19V244.42H19.25
		v153.54c-7.34,0.41-12.59,0.7-19.23,1.07V190.6c28.86,0,56.98-0.02,85.06,0.07c2.3,0,5.67,0.17,6.76,1.6
		c20.19,27.12,48.48,4.72,71.84,11.91c11.45-22.37,32.21-12.16,49.23-13.34c19.15-1.31,38.45-0.31,57.68-0.27
		c2.4,0,6.37-0.53,6.95,0.58c12.42,23.56,34.19,10.75,51.63,12.54c10.41,1.04,25.98,8.02,30.92-10.92c0.1-0.41,8.21,1.23,12.59,1.91
		c10.73,13.92,14.94-3.61,22.57-4.67c23.29,0.15,46.56,0.12,69.83,0.56c4.36,0.1,8.69,2.06,13.05,3.15
		C478.15,193.72,478.76,193.09,478.76,193.09"/>
	<path fill="#fff" d="M587.53,111.34c-0.19-0.29-0.38-0.59-0.58-0.89c-0.51-0.77-1.03-1.54-1.57-2.29c0,0,0,0,0-0.01
		c-0.81-1.12-1.64-2.21-2.51-3.28c0,0,0,0,0-0.01c-0.87-1.06-1.77-2.1-2.69-3.12v-0.01c-0.81-0.89-1.64-1.75-2.5-2.6
		c-0.85-0.85-1.72-1.67-2.62-2.48c-0.84-0.75-1.7-1.49-2.57-2.21c-0.87-0.72-1.77-1.42-2.67-2.1c-0.6-0.45-1.21-0.9-1.83-1.34
		c-3.46-2.45-7.13-4.65-10.97-6.6h-0.01c-0.52-0.26-1.05-0.52-1.58-0.78c-0.79-0.38-1.59-0.75-2.39-1.12
		c-0.81-0.36-1.62-0.71-2.44-1.05c-0.87-0.36-1.75-0.71-2.64-1.05c-0.88-0.34-1.78-0.66-2.67-0.98c-0.9-0.31-1.81-0.62-2.72-0.91
		c-1.82-0.58-3.66-1.11-5.52-1.6c-0.93-0.24-1.86-0.47-2.8-0.69c-1.31-0.3-2.63-0.58-3.96-0.84c-0.57-0.11-1.14-0.22-1.71-0.32
		c-0.95-0.17-1.91-0.33-2.87-0.47c-1.96-0.3-3.93-0.55-5.91-0.74c-0.89-0.09-1.77-0.17-2.66-0.23c-10.32-0.79-20.78-0.2-30.83,1.76
		c-0.96,0.18-1.91,0.38-2.85,0.59c-3.33,0.74-6.6,1.64-9.8,2.68c-0.91,0.3-1.82,0.61-2.73,0.93c-3.15,1.13-6.23,2.42-9.22,3.85
		c-1.27,0.62-2.53,1.26-3.77,1.93c-0.42,0.23-0.83,0.45-1.24,0.68c-0.69,0.39-1.37,0.79-2.05,1.19c-10.16,6.1-18.81,14.18-25,24.26
		c-1.33,2.17-2.28,5.27-2.75,8.52c-0.08,0.58-0.15,1.16-0.2,1.74c-0.18,2.1-0.16,4.21,0.1,6.12c0.03,0.22,0.06,0.44,0.1,0.66
		c0.14,0.86,0.33,1.67,0.58,2.41c0.04,0.14,0.09,0.27,0.14,0.4c0.34,0.95,0.79,1.79,1.33,2.45c1.41,1.72,2.85,3.42,4.34,5.09
		c2.96,3.35,6.06,6.6,9.25,9.76c3.98,3.95,8.1,7.78,12.29,11.55c1.68,1.49,3.37,2.99,5.06,4.48c1.7,1.49,3.39,2.96,5.09,4.44
		c0.84,0.74,1.69,1.47,2.54,2.21c0.36,0.32,0.8,0.55,1.3,0.71c0.33,0.11,0.68,0.19,1.05,0.25c0.11,0.02,0.23,0.04,0.35,0.05
		c0.14,0.01,0.3,0.03,0.45,0.04c1.27,0.09,2.77,0,4.47-0.14c0.33-0.03,0.67-0.06,1.02-0.09c2.43-0.23,5.22-0.51,8.26-0.51
		c-0.01,0.01-0.02,0.01-0.03,0.02c-1.46,1.08-2.91,2.15-4.44,3.28c-0.01,0-0.02,0-0.02,0.01c-0.27,0.2-0.54,0.4-0.82,0.6
		c-0.83,0.6-1.67,1.23-2.56,1.89c-0.3,0.22-0.6,0.44-0.91,0.67c-0.92,0.67-1.89,1.38-2.92,2.14c-0.4,0.29-0.8,0.58-1.21,0.88
		c-0.82,0.6-1.67,1.23-2.56,1.89c-0.45,0.32-0.91,0.66-1.38,1.01h-0.01c-0.77,0.56-1.58,1.16-2.42,1.78h21.85l9.42-9.4
		c1.23-2.56,2.47-4.66,3.71-6.3c0.56-0.75,1.13-1.4,1.7-1.96c1.13-1.12,2.26-1.88,3.4-2.29c0.34-0.13,0.69-0.22,1.04-0.28
		c0.17-0.03,0.34-0.05,0.52-0.07c0.57-0.05,1.14-0.02,1.72,0.1c0.4,0.08,0.8,0.2,1.2,0.37c0.01,0,0.01,0,0.01,0
		c0.27,0.1,0.53,0.23,0.8,0.38c1.08,0.57,2.16,1.43,3.25,2.57c0.13,0.12,0.25,0.25,0.36,0.39c0.25,0.26,0.49,0.53,0.73,0.82
		c1.33,1.6,2.67,3.59,4.01,5.96v0.01c0.76,0.92,1.62,1.76,2.52,2.53h0.01c0.57,0.2,1.16,0.45,1.76,0.74c0,0,0,0.01,0.01,0.01
		c0.2,0.1,0.4,0.2,0.6,0.31c0.61,0.32,1.23,0.69,1.85,1.08c1.45,0.92,2.94,1.98,4.43,3.04c0.63,0.45,1.27,0.9,1.9,1.35h0.01
		c1.05,0.73,2.1,1.42,3.13,2.03c0.2,0.12,0.41,0.24,0.62,0.35c0.46,0.25,0.91,0.48,1.36,0.69c0.22,0.1,0.45,0.2,0.68,0.29
		c0.28,0.11,0.55,0.21,0.82,0.3c0.27,0.08,0.54,0.15,0.8,0.22h0.01c0.38,0.09,0.75,0.14,1.11,0.17c0.18,0.01,0.36,0.01,0.53,0.01
		c0.18,0,0.36-0.01,0.53-0.03c0.02,0,0.04,0,0.06-0.01c0.2-0.02,0.39-0.06,0.59-0.1c0.2-0.05,0.4-0.12,0.6-0.19
		c0.2-0.08,0.4-0.17,0.59-0.28c0.44-0.25,0.87-0.58,1.28-1c0.26-0.26,0.51-0.56,0.75-0.91c0.33-0.45,0.64-0.97,0.93-1.57
		c0.17-0.35,0.34-0.72,0.5-1.12c0.4-1.01,0.77-2.18,1.09-3.53c0.07-0.27,0.13-0.55,0.19-0.84c0.11-0.5,0.21-1.02,0.31-1.57
		c0.04-0.21,0.07-0.41,0.11-0.63c0.1-0.63,0.2-1.3,0.3-2c0.09-0.72,0.18-1.48,0.27-2.27c0.02-0.22,0.04-0.46,0.06-0.69
		c0.01-0.14,0.04-0.27,0.09-0.4c0.06-0.2,0.16-0.39,0.29-0.57c0.12-0.18,0.27-0.36,0.44-0.54c0.81-0.85,2.11-1.64,3.36-2.47
		c0.27-0.18,0.54-0.35,0.8-0.53c0.25-0.18,0.5-0.36,0.74-0.54c0.32-0.25,0.62-0.5,0.89-0.76l0.01-0.01c1.86-1.8,3.72-3.62,5.57-5.43
		c1.84-1.81,3.68-3.62,5.51-5.43c2.46-2.43,4.92-4.85,7.38-7.26c1.23-1.21,2.47-2.42,3.71-3.62c2.47-2.4,4.96-4.79,7.46-7.16
		c1.46-1.38,2.65-2.76,3.61-4.14c0.38-0.55,0.72-1.11,1.03-1.66C593.72,125.32,592.07,118.57,587.53,111.34z M471.13,153.4
		c-5.79-7.82-13.61-18.33-22.59-30.44c7.58-4.4,14.48-8.42,22.59-13.12V153.4z M531.43,176.89c7.04-24.24,28.5-41.77,8.81-66.23
		c1.89-0.21,3.75-0.43,5.64-0.65c7.07,4.04,14.12,8.09,21.55,12.3C555.64,140.18,544.89,156.48,531.43,176.89z"/>
	<path fill="#fff" d="M374.47,163.95h0.01c-0.01,0.02-0.03,0.03-0.03,0.03C374.46,163.97,374.47,163.96,374.47,163.95z"/>
	<path fill="#fff" d="M400.24,132.39c-0.28,0.5-0.58,1-0.89,1.51c-0.16,0.26-0.32,0.52-0.49,0.78c-0.33,0.52-0.68,1.04-1.06,1.56
		c-0.18,0.27-0.37,0.54-0.57,0.81c-0.38,0.54-0.79,1.08-1.22,1.62c0.01,0.01,0,0.01,0,0.01c-0.85,1.1-1.77,2.23-2.78,3.38
		c-0.49,0.59-1.01,1.18-1.55,1.78c-0.8,0.9-1.64,1.81-2.53,2.75c-0.65,0.68-1.29,1.38-1.93,2.08c-4.3,4.78-8.24,9.9-12.39,14.85
		c0.03-0.01,0.07-0.03,0.1-0.05c0,0-0.01,0.01-0.02,0.02c-0.01,0.02-0.03,0.04-0.05,0.06c-0.11,0.12-0.3,0.32-0.37,0.4h-0.01
		c0.11-0.14,0.22-0.27,0.33-0.41h0.01v-0.01l-0.01,0.01c-3.82,2.03-7.65,4.07-11.47,6.1c-3.86,2.07-7.72,4.13-11.58,6.2
		c-0.33-0.32-0.66-0.64-0.99-0.97c-0.16-0.16-0.33-0.32-0.5-0.48c-0.49-0.49-0.98-0.97-1.48-1.45l-0.01-0.01
		c1.27-2.89,2.54-5.78,3.81-8.67c0.98-2.22,1.96-4.45,2.94-6.68c1.56-3.55,3.12-7.11,4.68-10.68l0.01-0.01
		c6.64-7.74,13.24-15.46,20.53-23.98c-9.23-5.01-15.91-8.65-23.71-12.91c0.94,13.22,1.79,24.8,2.64,36.37
		c-4.53,4.81-8.28,11.1-12.92,15.82c-0.39,0.4-0.8,0.79-1.21,1.17c-0.27,0.25-0.55,0.5-0.83,0.74c-0.28,0.24-0.57,0.47-0.86,0.7
		c-4.87,3.82-10.89,5.61-19.52,2.6c-1.38-0.47-2.81-1.07-4.32-1.8v-33.97h-38.21c0.11-1.15,0.24-2.46,0.38-3.94
		c0.15-1.55,0.31-3.28,0.49-5.18c0.09-0.93,0.18-1.9,0.28-2.91c0-0.01,0-0.01,0-0.01c0.1-1.02,0.2-2.08,0.3-3.17
		c0.01-0.01,0-0.01,0-0.01c0.22-2.2,0.44-4.57,0.68-7.11c0,0-0.01,0-0.01,0.01c-1.64,0.95-3.21,1.86-4.74,2.74
		c-4.1,2.38-7.88,4.56-11.78,6.81c-1.46,0.85-2.93,1.7-4.45,2.57c-1.01,0.59-2.04,1.18-3.09,1.79c3.06,3.73,6.02,7.35,8.93,10.9
		c1.75,2.14,3.47,4.23,5.18,6.32c2.27,2.77,4.51,5.51,6.73,8.23c1.12,1.37,2.24,2.73,3.34,4.09c0.97,1.17,1.92,2.33,2.88,3.5
		c0.15,0.18,0.29,0.36,0.44,0.54l-0.16-0.16l-0.39-0.41l-0.05-0.05l2.04,8.45l2.03,8.43c-0.6,0.68-1.22,1.36-1.83,2.04
		s-1.23,1.36-1.83,2.02c-5.56-4.56-11.3-8.92-16.9-13.45c-4.35-3.52-8.61-7.15-12.61-11.03c-16.24-15.73-22.75-26.95-19.19-37.62
		c0.95-2.84,2.61-5.65,4.98-8.48c0.79-0.95,1.67-1.9,2.62-2.85c0.63-0.64,1.3-1.28,2.01-1.93c0.35-0.32,0.71-0.64,1.09-0.97
		c0.73-0.64,1.51-1.29,2.32-1.96c0,0,0,0.01,0.01,0c3.65-2.96,8.04-6.02,13.15-9.26c4.16-2.63,8.31-4.98,12.47-7.04
		c0,0,0.01,0.01,0.01,0c4.75-2.34,9.5-4.32,14.24-5.92h0.01c1.18-0.4,2.37-0.77,3.55-1.13c0.59-0.17,1.19-0.34,1.79-0.51
		c1.77-0.49,3.54-0.93,5.31-1.32c0.6-0.13,1.19-0.25,1.78-0.37c1.18-0.23,2.37-0.44,3.54-0.63c20.88-3.33,41.44,0.7,61.15,12.05
		c5.96,3.44,11.84,7.54,17.63,12.32c2.53,2.08,4.78,4.07,6.75,5.97c2.24,2.18,4.13,4.26,5.66,6.28c0,0-0.01,0.01,0,0.01
		c0.57,0.76,1.09,1.51,1.56,2.25c0.31,0.5,0.6,0.99,0.87,1.48C404.43,119.35,404.15,125.36,400.24,132.39z"/>
	<path fill="#fff" d="M165.29,156.63c8.84-10.87,17.68-21.74,27.29-33.56c-8.5-4.79-15.18-8.57-24.12-13.61c1.02,10.17,1.82,18.14,2.42,24.21
		c-24.41-10.61-50.8-0.56-76.83-5.88c0.65-5.08,1.4-10.63,2.52-19.01c-9.32,5.45-16.34,9.52-23.17,13.54
		c10.78,16.83,21.21,33.08,33.27,51.87c-18.18-2.49-56.73-34.41-57.41-46.59c-0.36-6.9,3.24-15.33,7.7-20.95
		c35.72-45.26,114.97-44.8,151.07,0.15c9.95,12.37,10.92,23.15-1.84,34.26c-13.68,11.94-26.81,24.53-40.17,36.83
		c-1.43-1.19-2.86-2.37-4.29-3.56c1.38-6.1,2.78-12.2,4.16-18.31L165.29,156.63z"/>
	<path fill="#fff" d="M327.79,247.24h35.81c0,5.64,0.29,11.36-0.05,17.02c-2.32,39.49-4.26,79.01-7.73,118.41c-0.48,5.62-8.57,10.58-13.12,15.84
		c-3.95-5.33-10.8-10.36-11.36-16.01c-2.23-23.22-2.91-46.61-3.46-69.95C327.38,291.09,327.79,269.62,327.79,247.24"/>
	<path fill="#fff" d="M515.86,247.09h35.42c0,12.01,0.61,23.8-0.12,35.52c-2.08,34.07-4.26,68.14-7.58,102.11c-0.48,4.92-7.43,9.23-11.38,13.83
		c-4.41-4.84-11.96-9.25-12.69-14.6c-2.52-18.33-3.17-36.98-3.54-55.55C515.47,302.05,515.86,275.68,515.86,247.09"/>
	<path fill="#fff" d="M177.93,247.43c-3.32,46.64-6.22,92.55-10.34,138.34c-0.41,4.6-8.14,8.55-12.45,12.81c-3.97-4.6-10.61-8.77-11.45-13.85
		c-2.47-15.28-3.37-30.92-3.63-46.44c-0.51-29.88-0.14-59.78-0.14-90.85H177.93z"/>
	<path fill="#fff" d="M124.81,247.8c0,42.21,0.05,83.44-0.12,124.7c0,3.44-0.94,7.41-2.79,10.27c-3.56,5.5-8.06,10.36-12.16,15.5
		c-4.46-5.45-12.25-10.63-12.76-16.44c-3.95-44.05-6.47-88.19-9.54-134.03H124.81z"/>
	<path fill="#fff" d="M275.84,246.97h35.93c0,44.14,0.63,87.66-0.63,131.12c-0.22,6.85-8.96,13.46-13.75,20.19
		c-4.55-6.8-12.52-13.29-13.12-20.44C280.56,334.99,278.52,291.98,275.84,246.97"/>
	<path fill="#fff" d="M469.3,247.4h31.24c0,42.93,0.1,84.75-0.17,126.54c-0.02,4.65-1.14,9.86-3.51,13.75c-2.52,4.16-7.72,10.32-10.68,9.78
		c-4.67-0.85-10.87-5.88-12.16-10.36c-2.95-10.24-4.36-21.24-4.53-31.94C468.98,319.92,469.3,284.66,469.3,247.4"/>
	<path fill="#fff" d="M508.78,63.48c-17.46,0.34-32.3-14-32.47-31.38c-0.2-17.24,14.7-31.96,32.08-31.79c16.83,0.15,30.9,13.78,31.53,30.51
		C540.55,48.04,526.16,63.12,508.78,63.48"/>
	<path fill="#fff" d="M132.36,63.47C115,63.64,100.23,49.09,100.3,31.82c0.05-17.48,14.67-31.74,32.25-31.45c16.73,0.24,30.73,14.07,31.21,30.78
		C164.25,48.41,149.79,63.3,132.36,63.47"/>
	<path fill="#fff" d="M351.94,31.92c-0.03,17.19-14.99,31.79-32.3,31.58c-17.38-0.27-31.91-15.28-31.36-32.5c0.51-16.64,14.63-30.44,31.36-30.68
		C337.02,0.05,351.97,14.68,351.94,31.92"/>
	<path fill="#fff" d="M128.3,147.45c1.16,9.9-0.99,16.47-12.91,16.34c-13.92-0.12-16.56-9.37-17.75-20.02c-1.33-12.13,7.34-10.99,15.3-11.53
		C124.36,131.47,130.17,135.59,128.3,147.45"/>
	<path fill="#fff" d="M165.9,156.01c-8.6,3.1-17.19,6.22-28.45,10.29v-30.82c26.9-7.53,30.07-5.06,27.82,21.16L165.9,156.01z"/>
	<path fill="#fff" d="M395.25,190.02c-7.63,1.07-11.84,18.6-22.59,4.67c-3.29-5.52-6.61-11.07-9.83-16.44c4.26-5.21,8.18-9.98,12.08-14.77
		c0.02-0.02-0.46,0.51-0.46,0.51C390.07,161.57,400.96,175.25,395.25,190.02"/>
	<path fill="#fff" d="M287.39,156.82v-23.51h27.87v30.9c-10.63-2.98-19.54-5.47-28.47-7.99C286.78,156.19,287.39,156.82,287.39,156.82"/>
	<path d="M137.55,172.94c24.48-1.62,28.48,2.45,26.95,26.73h-26.95V172.94z"/>
	<path d="M315.66,173.49v25.57h-27.34C285.85,175.98,291.49,170.37,315.66,173.49"/>
	<path d="M352.03,199.84h-25.62V173.5C349.2,170.28,355.76,176.98,352.03,199.84"/>
	<path d="M99.71,199.73c-1.89-23.41,3.39-28.72,26.66-26.39v26.39H99.71z"/>
	<path d="M487,185.81l9.42-9.42c2.64,7.02,5.25,14.04,7.89,21.07c-1.98,1.82-3.97,3.63-5.96,5.47c-6.51-3.29-13.05-6.56-19.59-9.83
		l-0.63,0.63C481.09,191.09,484.05,188.45,487,185.81"/>
	<path d="M518.85,176.1c0.77,0.92,1.62,1.77,2.52,2.52c4.58,6.49,9.13,12.95,14.65,20.82h-27.53
		C512.7,190,515.78,183.05,518.85,176.1"/>
</g>
</svg>
