<?xml version="1.0" encoding="utf-8"?>
<!-- Generator: Adobe Illustrator 24.1.1, SVG Export Plug-In . SVG Version: 6.00 Build 0)  -->
<svg version="1.1" id="katman_1" xmlns="http://www.w3.org/2000/svg" xmlns:xlink="http://www.w3.org/1999/xlink" x="0px" y="0px"
	 viewBox="0 0 648 628" style="enable-background:new 0 0 648 628;" xml:space="preserve">
<style type="text/css">
	.st0{fill:#FFFFFF;}
	.st1{fill:none;stroke:#FFFFFF;stroke-miterlimit:10;}
</style>
<path  class="st0" d="M323.18,628.02c88.52,0,177.03,0.03,265.55,0c37.42-0.03,58.91-21.59,59.09-59.31
	c0.13-25.34,0.03-50.73,0.03-76.06c0-143.73-0.11-287.47,0.13-431.18c0.05-17.13-3.05-32.47-15.37-45.11
	c-13.66-13.98-30.84-16.73-49.28-16.7C456.55-0.23,329.73-0.29,202.92-0.29c-46.74,0-93.52-0.16-140.26,0.05
	C21.5-0.07,0.04,21.55,0.04,62.36c-0.03,168.08-0.03,336.19,0,504.27c0,39.74,21.91,61.39,62.06,61.39
	C149.12,628.05,236.16,628.02,323.18,628.02"/>
<path fill="#011636" d="M323.2,628.02c-87.05,0-174.07,0.03-261.09,0c-40.14,0-62.06-21.65-62.09-61.39c-0.03-168.08-0.03-336.19,0-504.27
	c0-40.81,21.49-62.43,62.65-62.59c46.74-0.21,93.52-0.05,140.26-0.05c126.79,0,253.61,0.05,380.42-0.05
	c18.41-0.03,35.63,2.73,49.26,16.7C644.95,29,648.03,44.35,648,61.48c-0.24,143.71-0.13,287.44-0.13,431.18
	c0,25.34,0.11,50.73-0.03,76.06c-0.21,37.71-21.68,59.28-59.09,59.31C500.23,628.05,411.71,628.02,323.2,628.02 M563.84,613.35
	c44.21,9.33,72.88-7.08,72.43-54.39c-1.6-165.65-0.59-331.3-0.64-496.95c0-33.49-15.82-49.34-49.31-49.34
	c-174.58-0.05-349.21-0.05-523.78,0c-33.89,0-50.03,16.28-50.08,50.43c-0.08,65.64-0.03,131.31,0.03,196.97
	c0,5.27,0.43,10.53,0.69,17.08c7.54,0,13.42-0.03,19.32,0c73.12,0.24,146.22,0.45,219.32,0.77c19.94,0.08,24.72,4.92,24.83,24.53
	c0.11,14.06,0.03,28.12,0.03,45.92c11.28-12.29,20.02-21.03,27.79-30.52c9.92-12.13,22.02-17.93,37.71-17.13
	c10.42,0.51,20.87,0.08,31.32,0.08h70.18c-24.29-28.04-46.45-54.01-69.06-79.59c-9.73-11.01-14.54-23.2-14.03-38
	c0.59-16.89,0.94-33.86-0.08-50.73c-0.99-16.7,6.39-28.38,20.31-34.98c46.29-21.94,93.35-22.48,138.98,1.07
	c8.98,4.62,18.17,17.59,19.19,27.56c7,68.82,5.53,71.39-40.04,124.92c-13.6,15.98-27.31,31.86-42.68,49.79
	c22.37,0,41.72-0.11,61.04,0.03c17.43,0.08,21.38,3.72,21.54,20.71c0.24,25.36,0.27,50.73,0,76.09
	c-0.19,16.52-3.66,19.94-20.55,19.99c-59.68,0.13-119.39-0.05-179.09,0.11c-13.92,0.03-24.86-4.97-33.65-15.88
	c-8.29-10.26-17.35-19.86-26.06-29.75c-0.43,31.62-1.82,61.55-31.62,82.4c20.95,1.98,40.06,1.95,59.2,1.98
	c25.71,0.03,29.35,3.66,29.37,29.19c0,39.8-0.16,79.59,0.29,119.39c0.05,3.47,4.14,6.92,6.36,10.37c2.06-3.26,4.7-6.31,5.99-9.84
	c0.96-2.65,0.21-5.91,0.21-8.87c0-39.8,0.21-79.59-0.13-119.39c-0.13-13.6,5.43-20.77,19.16-20.77
	c58.66-0.08,117.38-0.05,176.07-0.03c13.52,0,19.75,6.47,19.54,20.34c-0.43,28.84-0.11,57.7-0.11,86.54V613.35z M11.7,469.91
	c0,38.09-1.5,74.33,0.61,110.35c1.07,18.71,15.23,32.9,33.65,35.36c21.76,2.89,44.18,0.67,67.3,0.67c0-7.83-0.03-15.26,0-22.66
	c0.05-12.08,6.23-18.76,18.2-18.9c28.36-0.27,56.71-0.27,85.04,0.03c10.53,0.11,16.65,5.93,17.02,16.73
	c0.29,8.29,0.05,16.6,0.05,25.44h88.49c0-44.95-0.43-88.68,0.27-132.38c0.21-12.24-4.04-14.91-15.45-14.86
	c-84.54,0.43-169.07,0.21-253.63,0.21H11.7z M549.01,471.24H364.62v145.07h184.39V471.24z M426.71,408.62
	c29.77,0,59.57-0.27,89.37,0.13c9.49,0.13,13.26-2.78,13.04-12.75c-0.56-24.29-0.56-48.64,0-72.96c0.21-9.94-3.5-12.86-12.99-12.8
	c-59.09,0.29-118.18-0.29-177.28,0.64c-8.31,0.13-17.83,5.43-24.53,11.01c-9.81,8.2-17.35,19.06-26.3,28.36
	c-5.61,5.83-5.77,10.58-0.21,16.54c8.45,9.09,16.78,18.33,24.37,28.12c7.7,9.92,17.16,14.03,29.59,13.84
	C370.07,408.33,398.4,408.62,426.71,408.62 M127.93,454.92c31.32,0,60.13,0.77,88.86-0.27c18.5-0.67,45.57-30.33,45.81-48.96
	c0.4-34.29-0.13-68.58,0.27-102.87c0.11-9.38-3.63-12.03-12.37-11.95c-36.78,0.29-73.55,0.37-110.33-0.05
	c-10.08-0.13-12.72,3.82-12.4,13.28c0.61,18.87,0.16,37.76,0.16,56.66V454.92z M112.97,292.9H11.86v161.75h101.11V292.9z
	 M449.72,291.16c13.76-15.82,24-30.9,37.34-42.36c36.11-31.03,47.89-69.52,42.01-115.64c-1.47-11.49-4.12-20.55-14.46-25.52
	c-42.92-20.55-86.14-20.37-129.11-0.16c-9.73,4.57-14.3,12.75-13.84,24.19c0.67,17.88-0.24,35.81,0.37,53.69
	c0.21,6.71,0.72,15.05,4.6,19.78C399.79,233.54,423.98,261.12,449.72,291.16"/>
<path fill="#011636" d="M563.84,613.34v-49.87c0-28.86-0.32-57.73,0.11-86.57c0.21-13.87-6.01-20.34-19.54-20.34
	c-58.69-0.03-117.41-0.03-176.07,0.03c-13.74,0.03-19.3,7.16-19.16,20.77c0.37,39.8,0.13,79.59,0.13,119.39
	c0,2.99,0.75,6.25-0.21,8.87c-1.28,3.55-3.93,6.57-5.99,9.84c-2.22-3.45-6.31-6.9-6.33-10.37c-0.48-39.8-0.32-79.59-0.32-119.39
	c-0.03-25.52-3.64-29.13-29.37-29.19c-19.14-0.03-38.25,0-59.2-1.98c29.83-20.85,31.19-50.75,31.62-82.4
	c8.71,9.89,17.77,19.48,26.06,29.75c8.79,10.9,19.72,15.9,33.65,15.88c59.71-0.16,119.41,0.03,179.09-0.11
	c16.89-0.03,20.37-3.47,20.55-19.96c0.27-25.39,0.24-50.75,0.03-76.12c-0.19-16.97-4.14-20.63-21.57-20.71
	c-19.32-0.11-38.67-0.03-61.04-0.03c15.37-17.93,29.11-33.81,42.68-49.79c45.57-53.53,47.04-56.07,40.04-124.92
	c-1.02-9.97-10.21-22.93-19.19-27.56c-45.62-23.55-92.69-23.01-138.98-1.07c-13.92,6.6-21.3,18.28-20.31,35.01
	c1.02,16.84,0.67,33.81,0.08,50.73c-0.51,14.78,4.3,26.97,14.03,37.98c22.61,25.58,44.77,51.56,69.06,79.59h-70.18
	c-10.45,0-20.9,0.45-31.32-0.08c-15.69-0.8-27.8,5.02-37.71,17.13c-7.78,9.51-16.52,18.23-27.79,30.52c0-17.8,0.08-31.86-0.03-45.92
	c-0.11-19.62-4.89-24.45-24.83-24.51c-73.1-0.35-146.19-0.56-219.32-0.8c-5.88-0.03-11.79,0-19.32,0
	c-0.27-6.52-0.69-11.81-0.69-17.08c-0.05-65.64-0.11-131.33-0.03-196.97c0.05-34.13,16.2-50.43,50.08-50.43
	c174.58-0.05,349.21-0.05,523.78,0c33.49,0,49.31,15.85,49.31,49.34c0.05,165.65-0.96,331.3,0.64,496.95
	C636.72,606.26,608.04,622.67,563.84,613.34 M569.5,443.34c4.28-13.66-3.61-13.23-11.55-13.2c-72,0.05-144,0.03-216.03,0.08
	c-3.13,0-6.28,0.67-9.43,1.04c-0.43,1.36-0.83,2.7-1.26,4.06c6.23,2.67,12.45,7.62,18.71,7.67
	C422.88,443.52,495.84,443.34,569.5,443.34"/>
<path class="st0" d="M11.69,469.92h41.56c84.56,0,169.1,0.19,253.63-0.21c11.41-0.08,15.66,2.59,15.45,14.83
	c-0.69,43.72-0.27,87.42-0.27,132.4h-88.49c0-8.87,0.24-17.16-0.05-25.47c-0.37-10.77-6.49-16.6-17-16.7
	c-28.36-0.29-56.71-0.29-85.07-0.03c-11.97,0.11-18.15,6.79-18.2,18.87c-0.03,7.43,0,14.83,0,22.69c-23.09,0-45.54,2.22-67.3-0.69
	c-18.41-2.43-32.58-16.65-33.65-35.33C10.2,544.22,11.69,507.98,11.69,469.92"/>
<path class="st0" d="M549,616.31H364.62V471.24H549V616.31z M513.27,547.95c11.36,0.11,19.99-8.2,20.02-19.32
	c0.03-10.72-8.95-19.62-19.83-19.62c-10.61-0.03-20.23,9.17-20.37,19.4C492.96,538.73,502.39,547.84,513.27,547.95"/>
<path class="st0" d="M426.7,408.62c-28.3,0-56.63-0.29-84.91,0.13c-12.45,0.19-21.92-3.93-29.59-13.84
	c-7.59-9.78-15.93-19.03-24.4-28.12c-5.53-5.96-5.37-10.72,0.24-16.54c8.93-9.3,16.46-20.15,26.27-28.36
	c6.71-5.59,16.22-10.88,24.53-11.01c59.09-0.94,118.18-0.35,177.28-0.64c9.49-0.05,13.2,2.86,12.99,12.8
	c-0.56,24.32-0.56,48.67,0,72.96c0.21,9.97-3.55,12.88-13.04,12.75C486.27,408.36,456.5,408.62,426.7,408.62"/>
<path class="st0" d="M127.94,454.93v-94.16c0-18.9,0.43-37.79-0.16-56.66c-0.32-9.46,2.3-13.42,12.4-13.31
	c36.75,0.43,73.55,0.35,110.33,0.05c8.74-0.05,12.48,2.59,12.37,11.95c-0.4,34.29,0.13,68.61-0.29,102.9
	c-0.24,18.63-27.29,48.29-45.81,48.96C188.08,455.67,159.27,454.93,127.94,454.93"/>
<rect x="11.87" y="292.91" class="st0" width="101.11" height="161.75"/>
<path class="st0" d="M449.73,291.18c-25.74-30.07-49.93-57.62-73.12-86.03c-3.88-4.73-4.36-13.07-4.6-19.78
	c-0.59-17.88,0.32-35.81-0.37-53.69c-0.43-11.47,4.14-19.62,13.87-24.21c42.95-20.21,86.17-20.37,129.09,0.19
	c10.37,4.94,12.99,14.03,14.46,25.52c5.91,46.13-5.91,84.62-41.99,115.65C473.72,260.25,463.46,275.33,449.73,291.18 M450.13,101.61
	c-16.38,4.44-32.53,7.32-47.44,13.28c-12.72,5.1-12.8,14.22-0.72,20.07c31.8,15.42,64.25,15.45,96.06-0.03
	c12.29-5.96,12.32-14.54-0.59-19.83C482.62,108.98,466.48,106.1,450.13,101.61 M427.6,162.68c0,19.96,0.99,39.26-0.32,58.37
	c-1.1,16.28,7.46,26.03,19.16,37.76c0-31.67,0.03-60.78-0.05-89.88c0-1.9-0.69-3.8-1.2-6.25H427.6z M394.8,151.42
	c-3.93,42.36-5,48.4,17.42,64.49c0-15.42-0.8-30.31,0.24-45.03C413.46,157.2,407.04,152.2,394.8,151.42"/>
<path fill="#011636" d="M569.5,443.34c-73.66,0-146.62,0.19-219.56-0.35c-6.25-0.05-12.48-5-18.71-7.67c0.43-1.36,0.83-2.7,1.26-4.06
	c3.15-0.37,6.31-1.04,9.43-1.04c72.03-0.05,144.03-0.03,216.03-0.08C565.89,430.11,573.78,429.68,569.5,443.34"/>
<path d="M513.27,547.95c-10.88-0.11-20.31-9.22-20.18-19.54c0.13-10.24,9.75-19.43,20.37-19.4c10.88,0,19.86,8.9,19.83,19.62
	C533.26,539.74,524.63,548.05,513.27,547.95"/>
<path fill="#011636" d="M450.13,101.61c16.33,4.49,32.47,7.38,47.31,13.47c12.91,5.32,12.86,13.87,0.59,19.86c-31.8,15.47-64.28,15.45-96.08,0.03
	c-12.05-5.88-11.97-14.99,0.75-20.07C417.61,108.93,433.75,106.05,450.13,101.61"/>
<path d="M427.6,162.67h17.59c0.51,2.46,1.2,4.36,1.2,6.25c0.08,29.11,0.05,58.21,0.05,89.88c-11.71-11.73-20.26-21.49-19.16-37.76
	C428.59,201.93,427.6,182.66,427.6,162.67"/>
<path d="M394.8,151.42c12.24,0.78,18.65,5.77,17.67,19.46c-1.04,14.73-0.24,29.61-0.24,45.03
	C389.8,199.83,390.87,193.79,394.8,151.42"/>
<path class="st1" d="M593.05,628.03H54.96c-30.36,0-54.95-24.59-54.95-54.95V54.59c0-30.33,24.59-54.95,54.95-54.95h538.08
	c30.36,0,54.95,24.62,54.95,54.95v518.49C647.99,603.45,623.41,628.03,593.05,628.03z"/>
</svg>
