<?xml version="1.0" encoding="utf-8"?>
<!-- Generator: Adobe Illustrator 24.1.1, SVG Export Plug-In . SVG Version: 6.00 Build 0)  -->
<svg version="1.1" id="katman_1" xmlns="http://www.w3.org/2000/svg" xmlns:xlink="http://www.w3.org/1999/xlink" x="0px" y="0px"
	 viewBox="0 0 648 445" style="enable-background:new 0 0 648 445;" xml:space="preserve">
<style type="text/css">
	.st0{display:none;}
	.st1{display:inline;}
	.st2{fill:#FFFFFF;}
</style>
<g class="st0">
	<path fill="#fff" class="st1" d="M457.02,572.74c1.48,3.53,4.95,5.86,8.78,5.86h103.89c5.24,0,9.51-4.26,9.51-9.51V465.2
		c0-3.83-2.33-7.3-5.86-8.78c-3.56-1.46-7.64-0.66-10.37,2.05L459.07,562.39C456.36,565.1,455.56,569.18,457.02,572.74z
		 M560.18,488.16v71.43h-71.43L560.18,488.16z"/>
	<path fill="#fff" class="st1" d="M642.04,304.08c-3.56-1.48-7.64-0.66-10.35,2.05l-28.47,28.47V141.02c0-5.24-4.24-9.51-9.51-9.51h-73.02
		L547.2,105l25.56-25.56c5.47-5.47,8.48-12.74,8.48-20.5c0-7.75-3.01-15.02-8.48-20.5L543.21,8.91c-5.47-5.47-12.77-8.48-20.5-8.48
		c-7.73,0-15.02,3.01-20.5,8.48l-25.56,25.56l-30.89,30.89l-66.16,66.16H84.56V37.48c0-5.24-4.26-9.51-9.51-9.51
		c-41.24,0-74.78,33.56-74.78,74.78v403.73c0,0.71,0.09,1.39,0.23,2.05c1.32,17.49,8.89,33.74,21.52,46.07
		c13.52,13.2,31.37,20.45,50.27,20.45h290.47l-54.72,54.72c-2.71,2.71-3.53,6.82-2.05,10.35c1.46,3.56,4.92,5.88,8.78,5.88h323.64
		c5.24,0,9.51-4.26,9.51-9.51V312.85C647.92,309,645.59,305.53,642.04,304.08z M515.67,22.36c3.88-3.9,10.21-3.9,14.09,0
		l29.55,29.55c3.9,3.88,3.9,10.21,0,14.09l-18.83,18.83l-43.66-43.64L515.67,22.36z M483.39,54.64l43.64,43.64l-17.44,17.44
		l-43.64-43.64L483.39,54.64z M628.9,419.66h-17.53c-5.24,0-9.51,4.26-9.51,9.51c0,5.24,4.26,9.51,9.51,9.51h17.53v28.63h-17.53
		c-5.24,0-9.51,4.26-9.51,9.51c0,5.27,4.26,9.51,9.51,9.51h17.53v28.66h-17.53c-5.24,0-9.51,4.24-9.51,9.51
		c0,5.24,4.26,9.51,9.51,9.51h17.53v28.63h-17.53c-5.24,0-9.51,4.26-9.51,9.51c0,5.24,4.26,9.51,9.51,9.51h17.53v45.35H337.73
		l96-96.03c3.72-3.72,3.72-9.73,0-13.45c-0.43-0.41-0.89-0.8-1.37-1.12c-3.69-2.53-8.78-2.17-12.06,1.12l-38.53,38.53H72.29
		c-28.84,0-52.05-22.5-52.96-51.3c0.05-1.8,0.21-3.58,0.41-5.36c0,0,0-0.02,0.02-0.02c0.09-0.84,0.23-1.69,0.36-2.51
		c0.02-0.11,0.05-0.21,0.05-0.3c0.14-0.73,0.3-1.48,0.46-2.21c0.05-0.21,0.09-0.41,0.14-0.62c0.16-0.62,0.3-1.25,0.48-1.87
		c0.09-0.32,0.18-0.66,0.27-0.98c0.14-0.48,0.3-0.96,0.43-1.44c0.16-0.48,0.32-0.96,0.5-1.44c0.09-0.32,0.21-0.66,0.34-0.98
		c0.23-0.62,0.48-1.23,0.73-1.85c0.07-0.18,0.14-0.36,0.21-0.52c0.34-0.78,0.66-1.53,1.03-2.26c0.02-0.05,0.05-0.07,0.05-0.09
		c7.43-15.39,21.73-26.86,38.89-30.41c0.05-0.02,0.09-0.02,0.14-0.05c0.8-0.16,1.6-0.3,2.39-0.41c0.14-0.02,0.27-0.07,0.41-0.07
		c0.71-0.11,1.44-0.21,2.17-0.3c0.21-0.02,0.41-0.05,0.62-0.07c0.71-0.07,1.41-0.11,2.12-0.16c0.25-0.02,0.46-0.05,0.68-0.05
		c0.93-0.05,1.87-0.09,2.83-0.09c5.24,0,9.48-4.24,9.48-9.48v-68.94c0-5.24-4.24-9.51-9.48-9.51c-5.27,0-9.51,4.26-9.51,9.51v60.03
		c-16.05,2.03-30.96,9.19-42.7,20.66c-1.25,1.21-2.42,2.46-3.56,3.74V102.75c0-27.52,20.02-50.43,46.26-54.97v93.24v193.26
		c0,5.24,4.24,9.51,9.51,9.51c5.24,0,9.48-4.26,9.48-9.51V150.53h276.06l-52.55,52.55c-3.72,3.72-3.72,9.73,0,13.45
		c3.72,3.69,9.73,3.69,13.45,0l68.78-68.78l62.22-62.22l43.64,43.64l-5.11,5.13c-0.02,0-0.02,0-0.02,0L299.34,325.98l-43.66-43.66
		l37.8-37.78c3.69-3.72,3.69-9.73,0-13.45c-3.72-3.72-9.76-3.72-13.45,0l-44.5,44.5c-0.25,0.25-0.46,0.5-0.68,0.75
		c-0.07,0.09-0.11,0.18-0.18,0.27c-0.14,0.18-0.27,0.36-0.39,0.55c-0.07,0.09-0.14,0.21-0.21,0.32c-0.11,0.18-0.21,0.36-0.3,0.55
		c-0.07,0.11-0.11,0.23-0.18,0.36c-0.07,0.18-0.16,0.36-0.23,0.57c-0.02,0.07-0.05,0.11-0.07,0.18l-18.53,52.48l-12.63,35.77
		c-0.16,0.48-0.27,0.96-0.36,1.44h-31.62c-5.24,0-9.51,4.26-9.51,9.51c0,5.24,4.26,9.51,9.51,9.51h263.25
		c5.24,0,9.51-4.26,9.51-9.51c0-5.24-4.26-9.51-9.51-9.51H244.53l57.98-20.45c0.05-0.02,0.09-0.05,0.14-0.07
		c0.23-0.09,0.43-0.18,0.66-0.27c0.09-0.05,0.18-0.09,0.25-0.11c0.23-0.11,0.46-0.25,0.68-0.39c0.07-0.05,0.14-0.09,0.21-0.11
		c0.23-0.16,0.46-0.32,0.66-0.48c0.07-0.05,0.11-0.09,0.18-0.14c0.25-0.21,0.52-0.43,0.75-0.68l195.63-195.61h82.53v203.08
		L448.23,489.58c-3.72,3.72-3.72,9.73,0,13.45c0.23,0.23,0.48,0.43,0.73,0.66c1.73,1.41,3.85,2.12,6,2.12c2.12,0,4.26-0.71,6-2.12
		c0.25-0.23,0.48-0.43,0.73-0.66L628.9,335.79V419.66z M281.94,335.47l-27.22,9.62l-18.15-18.15l9.6-27.22L281.94,335.47z"/>
</g>
<path fill="#fff" class="st2" d="M479.64,71.97v234.31H0.34v87.8H648V73.81c-5.53-1.34-10.41-2.53-16.3-3.96c2.08-7.34,4.84-13.41,5.11-19.59
	c0.13-3.25-4.08-6.7-6.34-10.05c-2.22,3.38-6.34,6.83-6.2,10.12c0.25,6.72,2.8,13.32,4.84,21.65H479.64z M255.85,82.36H0.38v213.66
	h255.47V82.36z M199.62,426.99c77.79,0,153.47,0.29,229.18-0.29c13.59-0.11,23.51,1.23,22.41,17.62h183.57v-41.98H12.92v42.21
	h183.81C197.68,438.97,198.51,433.91,199.62,426.99 M324.46,197.07h117.87V0.79H324.46V197.07z M464.63,268.55H281.85v22.8h182.78
	V268.55z M387.54,203.1c-11.35,0-19.03-1.68-25.24,0.6c-3.9,1.46-5.58,8.87-8.26,13.59c15.83,2.87,11.46,17.69,14.2,26.38
	C374.39,230.77,380.22,218.48,387.54,203.1"/>
<path fill="#fff" d="M479.63,71.98H629.1c-2.04-8.33-4.59-14.96-4.84-21.65c-0.13-3.29,4.01-6.74,6.2-10.12c2.26,3.36,6.47,6.81,6.36,10.05
	c-0.29,6.18-3.05,12.25-5.11,19.59c5.87,1.43,10.75,2.6,16.28,3.96v320.27H0.33v-87.8h479.3V71.98z M537.87,251.29h94.96V94.82
	h-94.96V251.29z M578.98,263.16h-40.55v26.83h40.55V263.16z"/>
<path fill="#fff" d="M255.86,296.04H0.39V82.37h255.47V296.04z M120.47,256.61c21.05,0,42.07,0.2,63.1-0.04c20.69-0.25,31.21-10.12,31.68-30.7
	c0.58-24.63,0.6-49.28,0-73.92c-0.49-19.75-10.86-29.89-30.43-30.05c-42.68-0.34-85.36-0.36-128.01,0.02
	c-19.19,0.16-28.95,9.67-29.42,28.77c-0.63,25.24-0.58,50.49-0.07,75.73c0.43,20.85,10.35,29.92,31.84,30.14
	C79.61,256.79,100.03,256.63,120.47,256.61 M235.3,237.98c1.21,0,2.42,0,3.63,0v-98.23c-1.21,0-2.42,0-3.63-0.02V237.98z"/>
<path fill="#fff" d="M199.63,426.98c-1.14,6.94-1.97,11.98-2.89,17.56H12.93v-42.21H634.8v42.01H451.21c1.1-16.41-8.82-17.73-22.41-17.62
	C353.11,427.3,277.4,426.98,199.63,426.98"/>
<path fill="#fff" d="M324.44,0.78h117.87v196.29H324.44V0.78z M395.74,149.35h28.21v-19.73h-28.21V149.35z M395.7,159.86v20.02h29.67
	c-0.36-7.43-0.67-13.61-0.99-20.02H395.7z"/>
<rect fill="#fff" x="281.84" y="268.55" width="182.78" height="22.8"/>
<path fill="#fff" d="M387.54,203.1c-7.32,15.38-13.14,27.68-19.3,40.57c-2.73-8.69,1.64-23.51-14.2-26.38c2.69-4.72,4.37-12.14,8.26-13.59
	C368.5,201.42,376.18,203.1,387.54,203.1"/>
<path fill="#fff" d="M235.3,237.98v-98.26c1.21,0.02,2.42,0.02,3.63,0.02v98.23C237.72,237.98,236.51,237.98,235.3,237.98"/>
<path fill="#fff" d="M585.11,103.56c39.63,0.49,34.01-5.73,34.71,41.67c0.16,10.66-4.03,15.45-14.64,15.29c-14.35-0.2-28.84,1.03-42.99-0.67
	c-4.81-0.58-9.09-7.9-12.99-12.65c-1.19-1.46-0.27-4.66-0.27-7.03C549.1,97.53,545.77,104.14,585.11,103.56"/>
</svg>
