<?xml version="1.0" encoding="utf-8"?>
<!-- Generator: Adobe Illustrator 24.1.1, SVG Export Plug-In . SVG Version: 6.00 Build 0)  -->
<svg version="1.1" id="katman_1" xmlns="http://www.w3.org/2000/svg" xmlns:xlink="http://www.w3.org/1999/xlink" x="0px" y="0px"
	 viewBox="0 0 648 646" style="enable-background:new 0 0 648 646;" xml:space="preserve">
<g>
	<path fill="#fff" d="M457.02,572.74c1.48,3.53,4.95,5.86,8.78,5.86h103.89c5.24,0,9.51-4.26,9.51-9.51V465.2c0-3.83-2.33-7.3-5.86-8.78
		c-3.56-1.46-7.64-0.66-10.37,2.05L459.07,562.39C456.36,565.1,455.56,569.18,457.02,572.74z M560.18,488.16v71.43h-71.43
		L560.18,488.16z"/>
	<path fill="#fff" d="M642.04,304.08c-3.56-1.48-7.64-0.66-10.35,2.05l-28.47,28.47V141.02c0-5.24-4.24-9.51-9.51-9.51h-73.02L547.2,105
		l25.56-25.56c5.47-5.47,8.48-12.74,8.48-20.5c0-7.75-3.01-15.02-8.48-20.5L543.21,8.91c-5.47-5.47-12.77-8.48-20.5-8.48
		c-7.73,0-15.02,3.01-20.5,8.48l-25.56,25.56l-30.89,30.89l-66.16,66.16H84.56V37.48c0-5.24-4.26-9.51-9.51-9.51
		c-41.24,0-74.78,33.56-74.78,74.78v403.73c0,0.71,0.09,1.39,0.23,2.05c1.32,17.49,8.89,33.74,21.52,46.07
		c13.52,13.2,31.37,20.45,50.27,20.45h290.47l-54.72,54.72c-2.71,2.71-3.53,6.82-2.05,10.35c1.46,3.56,4.92,5.88,8.78,5.88h323.64
		c5.24,0,9.51-4.26,9.51-9.51V312.85C647.92,309,645.59,305.53,642.04,304.08z M515.67,22.36c3.88-3.9,10.21-3.9,14.09,0
		l29.55,29.55c3.9,3.88,3.9,10.21,0,14.09l-18.83,18.83l-43.66-43.64L515.67,22.36z M483.39,54.64l43.64,43.64l-17.44,17.44
		l-43.64-43.64L483.39,54.64z M628.9,419.66h-17.53c-5.24,0-9.51,4.26-9.51,9.51c0,5.24,4.26,9.51,9.51,9.51h17.53v28.63h-17.53
		c-5.24,0-9.51,4.26-9.51,9.51c0,5.27,4.26,9.51,9.51,9.51h17.53v28.66h-17.53c-5.24,0-9.51,4.24-9.51,9.51
		c0,5.24,4.26,9.51,9.51,9.51h17.53v28.63h-17.53c-5.24,0-9.51,4.26-9.51,9.51c0,5.24,4.26,9.51,9.51,9.51h17.53v45.35H337.73
		l96-96.03c3.72-3.72,3.72-9.73,0-13.45c-0.43-0.41-0.89-0.8-1.37-1.12c-3.69-2.53-8.78-2.17-12.06,1.12l-38.53,38.53H72.29
		c-28.84,0-52.05-22.5-52.96-51.3c0.05-1.8,0.21-3.58,0.41-5.36c0,0,0-0.02,0.02-0.02c0.09-0.84,0.23-1.69,0.36-2.51
		c0.02-0.11,0.05-0.21,0.05-0.3c0.14-0.73,0.3-1.48,0.46-2.21c0.05-0.21,0.09-0.41,0.14-0.62c0.16-0.62,0.3-1.25,0.48-1.87
		c0.09-0.32,0.18-0.66,0.27-0.98c0.14-0.48,0.3-0.96,0.43-1.44c0.16-0.48,0.32-0.96,0.5-1.44c0.09-0.32,0.21-0.66,0.34-0.98
		c0.23-0.62,0.48-1.23,0.73-1.85c0.07-0.18,0.14-0.36,0.21-0.52c0.34-0.78,0.66-1.53,1.03-2.26c0.02-0.05,0.05-0.07,0.05-0.09
		c7.43-15.39,21.73-26.86,38.89-30.41c0.05-0.02,0.09-0.02,0.14-0.05c0.8-0.16,1.6-0.3,2.39-0.41c0.14-0.02,0.27-0.07,0.41-0.07
		c0.71-0.11,1.44-0.21,2.17-0.3c0.21-0.02,0.41-0.05,0.62-0.07c0.71-0.07,1.41-0.11,2.12-0.16c0.25-0.02,0.46-0.05,0.68-0.05
		c0.93-0.05,1.87-0.09,2.83-0.09c5.24,0,9.48-4.24,9.48-9.48v-68.94c0-5.24-4.24-9.51-9.48-9.51c-5.27,0-9.51,4.26-9.51,9.51v60.03
		c-16.05,2.03-30.96,9.19-42.7,20.66c-1.25,1.21-2.42,2.46-3.56,3.74V102.75c0-27.52,20.02-50.43,46.26-54.97v93.24v193.26
		c0,5.24,4.24,9.51,9.51,9.51c5.24,0,9.48-4.26,9.48-9.51V150.53h276.06l-52.55,52.55c-3.72,3.72-3.72,9.73,0,13.45
		c3.72,3.69,9.73,3.69,13.45,0l68.78-68.78l62.22-62.22l43.64,43.64l-5.11,5.13c-0.02,0-0.02,0-0.02,0L299.34,325.98l-43.66-43.66
		l37.8-37.78c3.69-3.72,3.69-9.73,0-13.45c-3.72-3.72-9.76-3.72-13.45,0l-44.5,44.5c-0.25,0.25-0.46,0.5-0.68,0.75
		c-0.07,0.09-0.11,0.18-0.18,0.27c-0.14,0.18-0.27,0.36-0.39,0.55c-0.07,0.09-0.14,0.21-0.21,0.32c-0.11,0.18-0.21,0.36-0.3,0.55
		c-0.07,0.11-0.11,0.23-0.18,0.36c-0.07,0.18-0.16,0.36-0.23,0.57c-0.02,0.07-0.05,0.11-0.07,0.18l-18.53,52.48l-12.63,35.77
		c-0.16,0.48-0.27,0.96-0.36,1.44h-31.62c-5.24,0-9.51,4.26-9.51,9.51c0,5.24,4.26,9.51,9.51,9.51h263.25
		c5.24,0,9.51-4.26,9.51-9.51c0-5.24-4.26-9.51-9.51-9.51H244.53l57.98-20.45c0.05-0.02,0.09-0.05,0.14-0.07
		c0.23-0.09,0.43-0.18,0.66-0.27c0.09-0.05,0.18-0.09,0.25-0.11c0.23-0.11,0.46-0.25,0.68-0.39c0.07-0.05,0.14-0.09,0.21-0.11
		c0.23-0.16,0.46-0.32,0.66-0.48c0.07-0.05,0.11-0.09,0.18-0.14c0.25-0.21,0.52-0.43,0.75-0.68l195.63-195.61h82.53v203.08
		L448.23,489.58c-3.72,3.72-3.72,9.73,0,13.45c0.23,0.23,0.48,0.43,0.73,0.66c1.73,1.41,3.85,2.12,6,2.12c2.12,0,4.26-0.71,6-2.12
		c0.25-0.23,0.48-0.43,0.73-0.66L628.9,335.79V419.66z M281.94,335.47l-27.22,9.62l-18.15-18.15l9.6-27.22L281.94,335.47z"/>
</g>
</svg>
